%TF.GenerationSoftware,KiCad,Pcbnew,(5.1.8)-1*%
%TF.CreationDate,2021-12-09T09:07:22-03:00*%
%TF.ProjectId,dsp_amp_2to4,6473705f-616d-4705-9f32-746f342e6b69,1.1*%
%TF.SameCoordinates,Original*%
%TF.FileFunction,Soldermask,Bot*%
%TF.FilePolarity,Negative*%
%FSLAX46Y46*%
G04 Gerber Fmt 4.6, Leading zero omitted, Abs format (unit mm)*
G04 Created by KiCad (PCBNEW (5.1.8)-1) date 2021-12-09 09:07:22*
%MOMM*%
%LPD*%
G01*
G04 APERTURE LIST*
%ADD10C,1.000000*%
%ADD11O,1.950000X1.700000*%
%ADD12O,5.000000X2.500000*%
%ADD13O,2.500000X5.000000*%
%ADD14R,1.600000X1.600000*%
%ADD15C,1.600000*%
%ADD16O,1.200000X2.000000*%
%ADD17C,1.200000*%
%ADD18O,1.700000X1.700000*%
%ADD19R,1.700000X1.700000*%
%ADD20O,1.400000X1.400000*%
%ADD21C,1.400000*%
%ADD22C,0.800000*%
%ADD23C,6.400000*%
%ADD24O,1.700000X1.950000*%
%ADD25R,1.800000X1.800000*%
%ADD26C,1.800000*%
%ADD27C,3.200000*%
G04 APERTURE END LIST*
D10*
%TO.C,TP6*%
X108300000Y-114031520D03*
%TD*%
%TO.C,TP5*%
X123400000Y-125600000D03*
%TD*%
%TO.C,TP4*%
X101500000Y-105300000D03*
%TD*%
%TO.C,TP3*%
X85000000Y-104200000D03*
%TD*%
%TO.C,TP2*%
X78500000Y-105100000D03*
%TD*%
%TO.C,TP1*%
X69800000Y-105300000D03*
%TD*%
D11*
%TO.C,JP3*%
X127000000Y-76000000D03*
X127000000Y-73500000D03*
X127000000Y-71000000D03*
G36*
G01*
X126275000Y-67650000D02*
X127725000Y-67650000D01*
G75*
G02*
X127975000Y-67900000I0J-250000D01*
G01*
X127975000Y-69100000D01*
G75*
G02*
X127725000Y-69350000I-250000J0D01*
G01*
X126275000Y-69350000D01*
G75*
G02*
X126025000Y-69100000I0J250000D01*
G01*
X126025000Y-67900000D01*
G75*
G02*
X126275000Y-67650000I250000J0D01*
G01*
G37*
%TD*%
D12*
%TO.C,J1*%
X120500000Y-62300000D03*
X120500000Y-56300000D03*
D13*
X115800000Y-59300000D03*
%TD*%
D14*
%TO.C,C11*%
X57552651Y-87650000D03*
D15*
X57552651Y-91150000D03*
%TD*%
%TO.C,J5*%
G36*
G01*
X95500000Y-51675000D02*
X95500000Y-53925000D01*
G75*
G02*
X95125000Y-54300000I-375000J0D01*
G01*
X92875000Y-54300000D01*
G75*
G02*
X92500000Y-53925000I0J375000D01*
G01*
X92500000Y-51675000D01*
G75*
G02*
X92875000Y-51300000I375000J0D01*
G01*
X95125000Y-51300000D01*
G75*
G02*
X95500000Y-51675000I0J-375000D01*
G01*
G37*
G36*
G01*
X100500000Y-51675000D02*
X100500000Y-53925000D01*
G75*
G02*
X100125000Y-54300000I-375000J0D01*
G01*
X97875000Y-54300000D01*
G75*
G02*
X97500000Y-53925000I0J375000D01*
G01*
X97500000Y-51675000D01*
G75*
G02*
X97875000Y-51300000I375000J0D01*
G01*
X100125000Y-51300000D01*
G75*
G02*
X100500000Y-51675000I0J-375000D01*
G01*
G37*
G36*
G01*
X105500000Y-51675000D02*
X105500000Y-53925000D01*
G75*
G02*
X105125000Y-54300000I-375000J0D01*
G01*
X102875000Y-54300000D01*
G75*
G02*
X102500000Y-53925000I0J375000D01*
G01*
X102500000Y-51675000D01*
G75*
G02*
X102875000Y-51300000I375000J0D01*
G01*
X105125000Y-51300000D01*
G75*
G02*
X105500000Y-51675000I0J-375000D01*
G01*
G37*
G36*
G01*
X110500000Y-51675000D02*
X110500000Y-53925000D01*
G75*
G02*
X110125000Y-54300000I-375000J0D01*
G01*
X107875000Y-54300000D01*
G75*
G02*
X107500000Y-53925000I0J375000D01*
G01*
X107500000Y-51675000D01*
G75*
G02*
X107875000Y-51300000I375000J0D01*
G01*
X110125000Y-51300000D01*
G75*
G02*
X110500000Y-51675000I0J-375000D01*
G01*
G37*
G36*
G01*
X95500000Y-56675000D02*
X95500000Y-58925000D01*
G75*
G02*
X95125000Y-59300000I-375000J0D01*
G01*
X92875000Y-59300000D01*
G75*
G02*
X92500000Y-58925000I0J375000D01*
G01*
X92500000Y-56675000D01*
G75*
G02*
X92875000Y-56300000I375000J0D01*
G01*
X95125000Y-56300000D01*
G75*
G02*
X95500000Y-56675000I0J-375000D01*
G01*
G37*
G36*
G01*
X100500000Y-56675000D02*
X100500000Y-58925000D01*
G75*
G02*
X100125000Y-59300000I-375000J0D01*
G01*
X97875000Y-59300000D01*
G75*
G02*
X97500000Y-58925000I0J375000D01*
G01*
X97500000Y-56675000D01*
G75*
G02*
X97875000Y-56300000I375000J0D01*
G01*
X100125000Y-56300000D01*
G75*
G02*
X100500000Y-56675000I0J-375000D01*
G01*
G37*
G36*
G01*
X105500000Y-56675000D02*
X105500000Y-58925000D01*
G75*
G02*
X105125000Y-59300000I-375000J0D01*
G01*
X102875000Y-59300000D01*
G75*
G02*
X102500000Y-58925000I0J375000D01*
G01*
X102500000Y-56675000D01*
G75*
G02*
X102875000Y-56300000I375000J0D01*
G01*
X105125000Y-56300000D01*
G75*
G02*
X105500000Y-56675000I0J-375000D01*
G01*
G37*
G36*
G01*
X110500000Y-56675000D02*
X110500000Y-58925000D01*
G75*
G02*
X110125000Y-59300000I-375000J0D01*
G01*
X107875000Y-59300000D01*
G75*
G02*
X107500000Y-58925000I0J375000D01*
G01*
X107500000Y-56675000D01*
G75*
G02*
X107875000Y-56300000I375000J0D01*
G01*
X110125000Y-56300000D01*
G75*
G02*
X110500000Y-56675000I0J-375000D01*
G01*
G37*
%TD*%
%TO.C,J4*%
G36*
G01*
X73000000Y-51675000D02*
X73000000Y-53925000D01*
G75*
G02*
X72625000Y-54300000I-375000J0D01*
G01*
X70375000Y-54300000D01*
G75*
G02*
X70000000Y-53925000I0J375000D01*
G01*
X70000000Y-51675000D01*
G75*
G02*
X70375000Y-51300000I375000J0D01*
G01*
X72625000Y-51300000D01*
G75*
G02*
X73000000Y-51675000I0J-375000D01*
G01*
G37*
G36*
G01*
X78000000Y-51675000D02*
X78000000Y-53925000D01*
G75*
G02*
X77625000Y-54300000I-375000J0D01*
G01*
X75375000Y-54300000D01*
G75*
G02*
X75000000Y-53925000I0J375000D01*
G01*
X75000000Y-51675000D01*
G75*
G02*
X75375000Y-51300000I375000J0D01*
G01*
X77625000Y-51300000D01*
G75*
G02*
X78000000Y-51675000I0J-375000D01*
G01*
G37*
G36*
G01*
X83000000Y-51675000D02*
X83000000Y-53925000D01*
G75*
G02*
X82625000Y-54300000I-375000J0D01*
G01*
X80375000Y-54300000D01*
G75*
G02*
X80000000Y-53925000I0J375000D01*
G01*
X80000000Y-51675000D01*
G75*
G02*
X80375000Y-51300000I375000J0D01*
G01*
X82625000Y-51300000D01*
G75*
G02*
X83000000Y-51675000I0J-375000D01*
G01*
G37*
G36*
G01*
X88000000Y-51675000D02*
X88000000Y-53925000D01*
G75*
G02*
X87625000Y-54300000I-375000J0D01*
G01*
X85375000Y-54300000D01*
G75*
G02*
X85000000Y-53925000I0J375000D01*
G01*
X85000000Y-51675000D01*
G75*
G02*
X85375000Y-51300000I375000J0D01*
G01*
X87625000Y-51300000D01*
G75*
G02*
X88000000Y-51675000I0J-375000D01*
G01*
G37*
G36*
G01*
X73000000Y-56675000D02*
X73000000Y-58925000D01*
G75*
G02*
X72625000Y-59300000I-375000J0D01*
G01*
X70375000Y-59300000D01*
G75*
G02*
X70000000Y-58925000I0J375000D01*
G01*
X70000000Y-56675000D01*
G75*
G02*
X70375000Y-56300000I375000J0D01*
G01*
X72625000Y-56300000D01*
G75*
G02*
X73000000Y-56675000I0J-375000D01*
G01*
G37*
G36*
G01*
X78000000Y-56675000D02*
X78000000Y-58925000D01*
G75*
G02*
X77625000Y-59300000I-375000J0D01*
G01*
X75375000Y-59300000D01*
G75*
G02*
X75000000Y-58925000I0J375000D01*
G01*
X75000000Y-56675000D01*
G75*
G02*
X75375000Y-56300000I375000J0D01*
G01*
X77625000Y-56300000D01*
G75*
G02*
X78000000Y-56675000I0J-375000D01*
G01*
G37*
G36*
G01*
X83000000Y-56675000D02*
X83000000Y-58925000D01*
G75*
G02*
X82625000Y-59300000I-375000J0D01*
G01*
X80375000Y-59300000D01*
G75*
G02*
X80000000Y-58925000I0J375000D01*
G01*
X80000000Y-56675000D01*
G75*
G02*
X80375000Y-56300000I375000J0D01*
G01*
X82625000Y-56300000D01*
G75*
G02*
X83000000Y-56675000I0J-375000D01*
G01*
G37*
G36*
G01*
X88000000Y-56675000D02*
X88000000Y-58925000D01*
G75*
G02*
X87625000Y-59300000I-375000J0D01*
G01*
X85375000Y-59300000D01*
G75*
G02*
X85000000Y-58925000I0J375000D01*
G01*
X85000000Y-56675000D01*
G75*
G02*
X85375000Y-56300000I375000J0D01*
G01*
X87625000Y-56300000D01*
G75*
G02*
X88000000Y-56675000I0J-375000D01*
G01*
G37*
%TD*%
D11*
%TO.C,J3*%
X56300000Y-109500000D03*
X56300000Y-112000000D03*
G36*
G01*
X57025000Y-115350000D02*
X55575000Y-115350000D01*
G75*
G02*
X55325000Y-115100000I0J250000D01*
G01*
X55325000Y-113900000D01*
G75*
G02*
X55575000Y-113650000I250000J0D01*
G01*
X57025000Y-113650000D01*
G75*
G02*
X57275000Y-113900000I0J-250000D01*
G01*
X57275000Y-115100000D01*
G75*
G02*
X57025000Y-115350000I-250000J0D01*
G01*
G37*
%TD*%
D16*
%TO.C,J2*%
X59580000Y-53100000D03*
X59580000Y-59800000D03*
X64200000Y-61500000D03*
X64420000Y-55800000D03*
X64420000Y-52200000D03*
D17*
X62000000Y-59500000D03*
X62000000Y-53500000D03*
%TD*%
D18*
%TO.C,J7*%
X96980000Y-127400000D03*
X99520000Y-127400000D03*
X102060000Y-127400000D03*
D19*
X104600000Y-127400000D03*
%TD*%
D20*
%TO.C,JP2*%
X91310000Y-84500000D03*
D21*
X83690000Y-84500000D03*
%TD*%
D15*
%TO.C,C87*%
X119000000Y-67000000D03*
X119000000Y-72000000D03*
%TD*%
%TO.C,C85*%
X102100000Y-67000000D03*
X102100000Y-72000000D03*
%TD*%
%TO.C,C84*%
X90300000Y-67000000D03*
X90300000Y-72000000D03*
%TD*%
%TO.C,C58*%
X85200000Y-67000000D03*
X85200000Y-72000000D03*
%TD*%
%TO.C,C56*%
X68300000Y-67000000D03*
X68300000Y-72000000D03*
%TD*%
%TO.C,C55*%
X56500000Y-67000000D03*
X56500000Y-72000000D03*
%TD*%
%TO.C,C12*%
X117447349Y-91150000D03*
D14*
X117447349Y-87650000D03*
%TD*%
D15*
%TO.C,C2*%
X123775000Y-107300000D03*
D14*
X127275000Y-107300000D03*
%TD*%
D22*
%TO.C,H5*%
X89197056Y-89802944D03*
X87500000Y-89100000D03*
X85802944Y-89802944D03*
X85100000Y-91500000D03*
X85802944Y-93197056D03*
X87500000Y-93900000D03*
X89197056Y-93197056D03*
X89900000Y-91500000D03*
D23*
X87500000Y-91500000D03*
%TD*%
D18*
%TO.C,J6*%
X102060000Y-120700000D03*
D19*
X104600000Y-120700000D03*
%TD*%
D24*
%TO.C,POT4*%
X80666666Y-135000000D03*
X83166666Y-135000000D03*
G36*
G01*
X86516666Y-134275000D02*
X86516666Y-135725000D01*
G75*
G02*
X86266666Y-135975000I-250000J0D01*
G01*
X85066666Y-135975000D01*
G75*
G02*
X84816666Y-135725000I0J250000D01*
G01*
X84816666Y-134275000D01*
G75*
G02*
X85066666Y-134025000I250000J0D01*
G01*
X86266666Y-134025000D01*
G75*
G02*
X86516666Y-134275000I0J-250000D01*
G01*
G37*
%TD*%
%TO.C,POT3*%
X98333332Y-135000000D03*
X100833332Y-135000000D03*
G36*
G01*
X104183332Y-134275000D02*
X104183332Y-135725000D01*
G75*
G02*
X103933332Y-135975000I-250000J0D01*
G01*
X102733332Y-135975000D01*
G75*
G02*
X102483332Y-135725000I0J250000D01*
G01*
X102483332Y-134275000D01*
G75*
G02*
X102733332Y-134025000I250000J0D01*
G01*
X103933332Y-134025000D01*
G75*
G02*
X104183332Y-134275000I0J-250000D01*
G01*
G37*
%TD*%
%TO.C,POT2*%
X116000000Y-135000000D03*
X118500000Y-135000000D03*
G36*
G01*
X121850000Y-134275000D02*
X121850000Y-135725000D01*
G75*
G02*
X121600000Y-135975000I-250000J0D01*
G01*
X120400000Y-135975000D01*
G75*
G02*
X120150000Y-135725000I0J250000D01*
G01*
X120150000Y-134275000D01*
G75*
G02*
X120400000Y-134025000I250000J0D01*
G01*
X121600000Y-134025000D01*
G75*
G02*
X121850000Y-134275000I0J-250000D01*
G01*
G37*
%TD*%
%TO.C,POT1*%
X63000000Y-135000000D03*
X65500000Y-135000000D03*
G36*
G01*
X68850000Y-134275000D02*
X68850000Y-135725000D01*
G75*
G02*
X68600000Y-135975000I-250000J0D01*
G01*
X67400000Y-135975000D01*
G75*
G02*
X67150000Y-135725000I0J250000D01*
G01*
X67150000Y-134275000D01*
G75*
G02*
X67400000Y-134025000I250000J0D01*
G01*
X68600000Y-134025000D01*
G75*
G02*
X68850000Y-134275000I0J-250000D01*
G01*
G37*
%TD*%
D15*
%TO.C,C86*%
X107200000Y-67000000D03*
X107200000Y-72000000D03*
%TD*%
%TO.C,C57*%
X73400000Y-67000000D03*
X73400000Y-72000000D03*
%TD*%
D25*
%TO.C,D3*%
X60600000Y-121925000D03*
D26*
X60600000Y-124465000D03*
%TD*%
D25*
%TO.C,D4*%
X55800000Y-121925000D03*
D26*
X55800000Y-124465000D03*
%TD*%
D27*
%TO.C,H1*%
X54500000Y-55000000D03*
%TD*%
%TO.C,H2*%
X129500000Y-55000000D03*
%TD*%
%TO.C,H3*%
X54500000Y-135000000D03*
%TD*%
%TO.C,H4*%
X129500000Y-135000000D03*
%TD*%
M02*
