%TF.GenerationSoftware,KiCad,Pcbnew,(5.1.8)-1*%
%TF.CreationDate,2021-12-09T09:07:22-03:00*%
%TF.ProjectId,dsp_amp_2to4,6473705f-616d-4705-9f32-746f342e6b69,1.1*%
%TF.SameCoordinates,Original*%
%TF.FileFunction,Paste,Top*%
%TF.FilePolarity,Positive*%
%FSLAX46Y46*%
G04 Gerber Fmt 4.6, Leading zero omitted, Abs format (unit mm)*
G04 Created by KiCad (PCBNEW (5.1.8)-1) date 2021-12-09 09:07:22*
%MOMM*%
%LPD*%
G01*
G04 APERTURE LIST*
%ADD10R,0.650000X1.060000*%
%ADD11R,2.400000X1.500000*%
%ADD12R,2.500000X1.800000*%
%ADD13R,3.800000X2.000000*%
%ADD14R,1.500000X2.000000*%
%ADD15R,0.400000X1.200000*%
%ADD16R,1.000000X1.200000*%
%ADD17R,0.550000X1.200000*%
%ADD18R,1.000000X0.930000*%
%ADD19R,0.550000X0.930000*%
%ADD20R,1.200000X1.400000*%
%ADD21R,0.900000X0.800000*%
%ADD22R,1.800000X2.500000*%
G04 APERTURE END LIST*
%TO.C,C8*%
G36*
G01*
X112750000Y-112931520D02*
X112250000Y-112931520D01*
G75*
G02*
X112025000Y-112706520I0J225000D01*
G01*
X112025000Y-112256520D01*
G75*
G02*
X112250000Y-112031520I225000J0D01*
G01*
X112750000Y-112031520D01*
G75*
G02*
X112975000Y-112256520I0J-225000D01*
G01*
X112975000Y-112706520D01*
G75*
G02*
X112750000Y-112931520I-225000J0D01*
G01*
G37*
G36*
G01*
X112750000Y-114481520D02*
X112250000Y-114481520D01*
G75*
G02*
X112025000Y-114256520I0J225000D01*
G01*
X112025000Y-113806520D01*
G75*
G02*
X112250000Y-113581520I225000J0D01*
G01*
X112750000Y-113581520D01*
G75*
G02*
X112975000Y-113806520I0J-225000D01*
G01*
X112975000Y-114256520D01*
G75*
G02*
X112750000Y-114481520I-225000J0D01*
G01*
G37*
%TD*%
%TO.C,C7*%
G36*
G01*
X114250000Y-112931520D02*
X113750000Y-112931520D01*
G75*
G02*
X113525000Y-112706520I0J225000D01*
G01*
X113525000Y-112256520D01*
G75*
G02*
X113750000Y-112031520I225000J0D01*
G01*
X114250000Y-112031520D01*
G75*
G02*
X114475000Y-112256520I0J-225000D01*
G01*
X114475000Y-112706520D01*
G75*
G02*
X114250000Y-112931520I-225000J0D01*
G01*
G37*
G36*
G01*
X114250000Y-114481520D02*
X113750000Y-114481520D01*
G75*
G02*
X113525000Y-114256520I0J225000D01*
G01*
X113525000Y-113806520D01*
G75*
G02*
X113750000Y-113581520I225000J0D01*
G01*
X114250000Y-113581520D01*
G75*
G02*
X114475000Y-113806520I0J-225000D01*
G01*
X114475000Y-114256520D01*
G75*
G02*
X114250000Y-114481520I-225000J0D01*
G01*
G37*
%TD*%
D10*
%TO.C,U1*%
X127240000Y-118143480D03*
X126290000Y-118143480D03*
X128190000Y-118143480D03*
X128190000Y-120343480D03*
X127240000Y-120343480D03*
X126290000Y-120343480D03*
%TD*%
%TO.C,R4*%
G36*
G01*
X128475000Y-123418480D02*
X127925000Y-123418480D01*
G75*
G02*
X127725000Y-123218480I0J200000D01*
G01*
X127725000Y-122818480D01*
G75*
G02*
X127925000Y-122618480I200000J0D01*
G01*
X128475000Y-122618480D01*
G75*
G02*
X128675000Y-122818480I0J-200000D01*
G01*
X128675000Y-123218480D01*
G75*
G02*
X128475000Y-123418480I-200000J0D01*
G01*
G37*
G36*
G01*
X128475000Y-125068480D02*
X127925000Y-125068480D01*
G75*
G02*
X127725000Y-124868480I0J200000D01*
G01*
X127725000Y-124468480D01*
G75*
G02*
X127925000Y-124268480I200000J0D01*
G01*
X128475000Y-124268480D01*
G75*
G02*
X128675000Y-124468480I0J-200000D01*
G01*
X128675000Y-124868480D01*
G75*
G02*
X128475000Y-125068480I-200000J0D01*
G01*
G37*
%TD*%
%TO.C,R3*%
G36*
G01*
X126975000Y-123418480D02*
X126425000Y-123418480D01*
G75*
G02*
X126225000Y-123218480I0J200000D01*
G01*
X126225000Y-122818480D01*
G75*
G02*
X126425000Y-122618480I200000J0D01*
G01*
X126975000Y-122618480D01*
G75*
G02*
X127175000Y-122818480I0J-200000D01*
G01*
X127175000Y-123218480D01*
G75*
G02*
X126975000Y-123418480I-200000J0D01*
G01*
G37*
G36*
G01*
X126975000Y-125068480D02*
X126425000Y-125068480D01*
G75*
G02*
X126225000Y-124868480I0J200000D01*
G01*
X126225000Y-124468480D01*
G75*
G02*
X126425000Y-124268480I200000J0D01*
G01*
X126975000Y-124268480D01*
G75*
G02*
X127175000Y-124468480I0J-200000D01*
G01*
X127175000Y-124868480D01*
G75*
G02*
X126975000Y-125068480I-200000J0D01*
G01*
G37*
%TD*%
%TO.C,R2*%
G36*
G01*
X124925000Y-124268480D02*
X125475000Y-124268480D01*
G75*
G02*
X125675000Y-124468480I0J-200000D01*
G01*
X125675000Y-124868480D01*
G75*
G02*
X125475000Y-125068480I-200000J0D01*
G01*
X124925000Y-125068480D01*
G75*
G02*
X124725000Y-124868480I0J200000D01*
G01*
X124725000Y-124468480D01*
G75*
G02*
X124925000Y-124268480I200000J0D01*
G01*
G37*
G36*
G01*
X124925000Y-122618480D02*
X125475000Y-122618480D01*
G75*
G02*
X125675000Y-122818480I0J-200000D01*
G01*
X125675000Y-123218480D01*
G75*
G02*
X125475000Y-123418480I-200000J0D01*
G01*
X124925000Y-123418480D01*
G75*
G02*
X124725000Y-123218480I0J200000D01*
G01*
X124725000Y-122818480D01*
G75*
G02*
X124925000Y-122618480I200000J0D01*
G01*
G37*
%TD*%
%TO.C,R1*%
G36*
G01*
X130375000Y-118875000D02*
X129825000Y-118875000D01*
G75*
G02*
X129625000Y-118675000I0J200000D01*
G01*
X129625000Y-118275000D01*
G75*
G02*
X129825000Y-118075000I200000J0D01*
G01*
X130375000Y-118075000D01*
G75*
G02*
X130575000Y-118275000I0J-200000D01*
G01*
X130575000Y-118675000D01*
G75*
G02*
X130375000Y-118875000I-200000J0D01*
G01*
G37*
G36*
G01*
X130375000Y-120525000D02*
X129825000Y-120525000D01*
G75*
G02*
X129625000Y-120325000I0J200000D01*
G01*
X129625000Y-119925000D01*
G75*
G02*
X129825000Y-119725000I200000J0D01*
G01*
X130375000Y-119725000D01*
G75*
G02*
X130575000Y-119925000I0J-200000D01*
G01*
X130575000Y-120325000D01*
G75*
G02*
X130375000Y-120525000I-200000J0D01*
G01*
G37*
%TD*%
D11*
%TO.C,L2*%
X120140000Y-123493480D03*
X120140000Y-117993480D03*
%TD*%
D12*
%TO.C,D2*%
X122200000Y-114900000D03*
X118200000Y-114900000D03*
%TD*%
%TO.C,C6*%
G36*
G01*
X119850000Y-126681520D02*
X120350000Y-126681520D01*
G75*
G02*
X120575000Y-126906520I0J-225000D01*
G01*
X120575000Y-127356520D01*
G75*
G02*
X120350000Y-127581520I-225000J0D01*
G01*
X119850000Y-127581520D01*
G75*
G02*
X119625000Y-127356520I0J225000D01*
G01*
X119625000Y-126906520D01*
G75*
G02*
X119850000Y-126681520I225000J0D01*
G01*
G37*
G36*
G01*
X119850000Y-125131520D02*
X120350000Y-125131520D01*
G75*
G02*
X120575000Y-125356520I0J-225000D01*
G01*
X120575000Y-125806520D01*
G75*
G02*
X120350000Y-126031520I-225000J0D01*
G01*
X119850000Y-126031520D01*
G75*
G02*
X119625000Y-125806520I0J225000D01*
G01*
X119625000Y-125356520D01*
G75*
G02*
X119850000Y-125131520I225000J0D01*
G01*
G37*
%TD*%
%TO.C,C5*%
G36*
G01*
X121350000Y-126681520D02*
X121850000Y-126681520D01*
G75*
G02*
X122075000Y-126906520I0J-225000D01*
G01*
X122075000Y-127356520D01*
G75*
G02*
X121850000Y-127581520I-225000J0D01*
G01*
X121350000Y-127581520D01*
G75*
G02*
X121125000Y-127356520I0J225000D01*
G01*
X121125000Y-126906520D01*
G75*
G02*
X121350000Y-126681520I225000J0D01*
G01*
G37*
G36*
G01*
X121350000Y-125131520D02*
X121850000Y-125131520D01*
G75*
G02*
X122075000Y-125356520I0J-225000D01*
G01*
X122075000Y-125806520D01*
G75*
G02*
X121850000Y-126031520I-225000J0D01*
G01*
X121350000Y-126031520D01*
G75*
G02*
X121125000Y-125806520I0J225000D01*
G01*
X121125000Y-125356520D01*
G75*
G02*
X121350000Y-125131520I225000J0D01*
G01*
G37*
%TD*%
%TO.C,C3*%
G36*
G01*
X124690000Y-118918480D02*
X124190000Y-118918480D01*
G75*
G02*
X123965000Y-118693480I0J225000D01*
G01*
X123965000Y-118243480D01*
G75*
G02*
X124190000Y-118018480I225000J0D01*
G01*
X124690000Y-118018480D01*
G75*
G02*
X124915000Y-118243480I0J-225000D01*
G01*
X124915000Y-118693480D01*
G75*
G02*
X124690000Y-118918480I-225000J0D01*
G01*
G37*
G36*
G01*
X124690000Y-120468480D02*
X124190000Y-120468480D01*
G75*
G02*
X123965000Y-120243480I0J225000D01*
G01*
X123965000Y-119793480D01*
G75*
G02*
X124190000Y-119568480I225000J0D01*
G01*
X124690000Y-119568480D01*
G75*
G02*
X124915000Y-119793480I0J-225000D01*
G01*
X124915000Y-120243480D01*
G75*
G02*
X124690000Y-120468480I-225000J0D01*
G01*
G37*
%TD*%
%TO.C,C1*%
G36*
G01*
X126175000Y-115650000D02*
X126175000Y-116150000D01*
G75*
G02*
X125950000Y-116375000I-225000J0D01*
G01*
X125500000Y-116375000D01*
G75*
G02*
X125275000Y-116150000I0J225000D01*
G01*
X125275000Y-115650000D01*
G75*
G02*
X125500000Y-115425000I225000J0D01*
G01*
X125950000Y-115425000D01*
G75*
G02*
X126175000Y-115650000I0J-225000D01*
G01*
G37*
G36*
G01*
X127725000Y-115650000D02*
X127725000Y-116150000D01*
G75*
G02*
X127500000Y-116375000I-225000J0D01*
G01*
X127050000Y-116375000D01*
G75*
G02*
X126825000Y-116150000I0J225000D01*
G01*
X126825000Y-115650000D01*
G75*
G02*
X127050000Y-115425000I225000J0D01*
G01*
X127500000Y-115425000D01*
G75*
G02*
X127725000Y-115650000I0J-225000D01*
G01*
G37*
%TD*%
%TO.C,C51*%
G36*
G01*
X64250000Y-87275000D02*
X64750000Y-87275000D01*
G75*
G02*
X64975000Y-87500000I0J-225000D01*
G01*
X64975000Y-87950000D01*
G75*
G02*
X64750000Y-88175000I-225000J0D01*
G01*
X64250000Y-88175000D01*
G75*
G02*
X64025000Y-87950000I0J225000D01*
G01*
X64025000Y-87500000D01*
G75*
G02*
X64250000Y-87275000I225000J0D01*
G01*
G37*
G36*
G01*
X64250000Y-88825000D02*
X64750000Y-88825000D01*
G75*
G02*
X64975000Y-89050000I0J-225000D01*
G01*
X64975000Y-89500000D01*
G75*
G02*
X64750000Y-89725000I-225000J0D01*
G01*
X64250000Y-89725000D01*
G75*
G02*
X64025000Y-89500000I0J225000D01*
G01*
X64025000Y-89050000D01*
G75*
G02*
X64250000Y-88825000I225000J0D01*
G01*
G37*
%TD*%
%TO.C,C53*%
G36*
G01*
X62750000Y-88825000D02*
X63250000Y-88825000D01*
G75*
G02*
X63475000Y-89050000I0J-225000D01*
G01*
X63475000Y-89500000D01*
G75*
G02*
X63250000Y-89725000I-225000J0D01*
G01*
X62750000Y-89725000D01*
G75*
G02*
X62525000Y-89500000I0J225000D01*
G01*
X62525000Y-89050000D01*
G75*
G02*
X62750000Y-88825000I225000J0D01*
G01*
G37*
G36*
G01*
X62750000Y-87275000D02*
X63250000Y-87275000D01*
G75*
G02*
X63475000Y-87500000I0J-225000D01*
G01*
X63475000Y-87950000D01*
G75*
G02*
X63250000Y-88175000I-225000J0D01*
G01*
X62750000Y-88175000D01*
G75*
G02*
X62525000Y-87950000I0J225000D01*
G01*
X62525000Y-87500000D01*
G75*
G02*
X62750000Y-87275000I225000J0D01*
G01*
G37*
%TD*%
%TO.C,R19*%
G36*
G01*
X72825000Y-115675000D02*
X72825000Y-115125000D01*
G75*
G02*
X73025000Y-114925000I200000J0D01*
G01*
X73425000Y-114925000D01*
G75*
G02*
X73625000Y-115125000I0J-200000D01*
G01*
X73625000Y-115675000D01*
G75*
G02*
X73425000Y-115875000I-200000J0D01*
G01*
X73025000Y-115875000D01*
G75*
G02*
X72825000Y-115675000I0J200000D01*
G01*
G37*
G36*
G01*
X71175000Y-115675000D02*
X71175000Y-115125000D01*
G75*
G02*
X71375000Y-114925000I200000J0D01*
G01*
X71775000Y-114925000D01*
G75*
G02*
X71975000Y-115125000I0J-200000D01*
G01*
X71975000Y-115675000D01*
G75*
G02*
X71775000Y-115875000I-200000J0D01*
G01*
X71375000Y-115875000D01*
G75*
G02*
X71175000Y-115675000I0J200000D01*
G01*
G37*
%TD*%
%TO.C,R13*%
G36*
G01*
X72825000Y-114175000D02*
X72825000Y-113625000D01*
G75*
G02*
X73025000Y-113425000I200000J0D01*
G01*
X73425000Y-113425000D01*
G75*
G02*
X73625000Y-113625000I0J-200000D01*
G01*
X73625000Y-114175000D01*
G75*
G02*
X73425000Y-114375000I-200000J0D01*
G01*
X73025000Y-114375000D01*
G75*
G02*
X72825000Y-114175000I0J200000D01*
G01*
G37*
G36*
G01*
X71175000Y-114175000D02*
X71175000Y-113625000D01*
G75*
G02*
X71375000Y-113425000I200000J0D01*
G01*
X71775000Y-113425000D01*
G75*
G02*
X71975000Y-113625000I0J-200000D01*
G01*
X71975000Y-114175000D01*
G75*
G02*
X71775000Y-114375000I-200000J0D01*
G01*
X71375000Y-114375000D01*
G75*
G02*
X71175000Y-114175000I0J200000D01*
G01*
G37*
%TD*%
%TO.C,C95*%
G36*
G01*
X113650000Y-70825000D02*
X114150000Y-70825000D01*
G75*
G02*
X114375000Y-71050000I0J-225000D01*
G01*
X114375000Y-71500000D01*
G75*
G02*
X114150000Y-71725000I-225000J0D01*
G01*
X113650000Y-71725000D01*
G75*
G02*
X113425000Y-71500000I0J225000D01*
G01*
X113425000Y-71050000D01*
G75*
G02*
X113650000Y-70825000I225000J0D01*
G01*
G37*
G36*
G01*
X113650000Y-69275000D02*
X114150000Y-69275000D01*
G75*
G02*
X114375000Y-69500000I0J-225000D01*
G01*
X114375000Y-69950000D01*
G75*
G02*
X114150000Y-70175000I-225000J0D01*
G01*
X113650000Y-70175000D01*
G75*
G02*
X113425000Y-69950000I0J225000D01*
G01*
X113425000Y-69500000D01*
G75*
G02*
X113650000Y-69275000I225000J0D01*
G01*
G37*
%TD*%
%TO.C,C94*%
G36*
G01*
X112050000Y-70825000D02*
X112550000Y-70825000D01*
G75*
G02*
X112775000Y-71050000I0J-225000D01*
G01*
X112775000Y-71500000D01*
G75*
G02*
X112550000Y-71725000I-225000J0D01*
G01*
X112050000Y-71725000D01*
G75*
G02*
X111825000Y-71500000I0J225000D01*
G01*
X111825000Y-71050000D01*
G75*
G02*
X112050000Y-70825000I225000J0D01*
G01*
G37*
G36*
G01*
X112050000Y-69275000D02*
X112550000Y-69275000D01*
G75*
G02*
X112775000Y-69500000I0J-225000D01*
G01*
X112775000Y-69950000D01*
G75*
G02*
X112550000Y-70175000I-225000J0D01*
G01*
X112050000Y-70175000D01*
G75*
G02*
X111825000Y-69950000I0J225000D01*
G01*
X111825000Y-69500000D01*
G75*
G02*
X112050000Y-69275000I225000J0D01*
G01*
G37*
%TD*%
%TO.C,C93*%
G36*
G01*
X96750000Y-70825000D02*
X97250000Y-70825000D01*
G75*
G02*
X97475000Y-71050000I0J-225000D01*
G01*
X97475000Y-71500000D01*
G75*
G02*
X97250000Y-71725000I-225000J0D01*
G01*
X96750000Y-71725000D01*
G75*
G02*
X96525000Y-71500000I0J225000D01*
G01*
X96525000Y-71050000D01*
G75*
G02*
X96750000Y-70825000I225000J0D01*
G01*
G37*
G36*
G01*
X96750000Y-69275000D02*
X97250000Y-69275000D01*
G75*
G02*
X97475000Y-69500000I0J-225000D01*
G01*
X97475000Y-69950000D01*
G75*
G02*
X97250000Y-70175000I-225000J0D01*
G01*
X96750000Y-70175000D01*
G75*
G02*
X96525000Y-69950000I0J225000D01*
G01*
X96525000Y-69500000D01*
G75*
G02*
X96750000Y-69275000I225000J0D01*
G01*
G37*
%TD*%
%TO.C,C91*%
G36*
G01*
X115250000Y-70825000D02*
X115750000Y-70825000D01*
G75*
G02*
X115975000Y-71050000I0J-225000D01*
G01*
X115975000Y-71500000D01*
G75*
G02*
X115750000Y-71725000I-225000J0D01*
G01*
X115250000Y-71725000D01*
G75*
G02*
X115025000Y-71500000I0J225000D01*
G01*
X115025000Y-71050000D01*
G75*
G02*
X115250000Y-70825000I225000J0D01*
G01*
G37*
G36*
G01*
X115250000Y-69275000D02*
X115750000Y-69275000D01*
G75*
G02*
X115975000Y-69500000I0J-225000D01*
G01*
X115975000Y-69950000D01*
G75*
G02*
X115750000Y-70175000I-225000J0D01*
G01*
X115250000Y-70175000D01*
G75*
G02*
X115025000Y-69950000I0J225000D01*
G01*
X115025000Y-69500000D01*
G75*
G02*
X115250000Y-69275000I225000J0D01*
G01*
G37*
%TD*%
%TO.C,C90*%
G36*
G01*
X110450000Y-70825000D02*
X110950000Y-70825000D01*
G75*
G02*
X111175000Y-71050000I0J-225000D01*
G01*
X111175000Y-71500000D01*
G75*
G02*
X110950000Y-71725000I-225000J0D01*
G01*
X110450000Y-71725000D01*
G75*
G02*
X110225000Y-71500000I0J225000D01*
G01*
X110225000Y-71050000D01*
G75*
G02*
X110450000Y-70825000I225000J0D01*
G01*
G37*
G36*
G01*
X110450000Y-69275000D02*
X110950000Y-69275000D01*
G75*
G02*
X111175000Y-69500000I0J-225000D01*
G01*
X111175000Y-69950000D01*
G75*
G02*
X110950000Y-70175000I-225000J0D01*
G01*
X110450000Y-70175000D01*
G75*
G02*
X110225000Y-69950000I0J225000D01*
G01*
X110225000Y-69500000D01*
G75*
G02*
X110450000Y-69275000I225000J0D01*
G01*
G37*
%TD*%
%TO.C,C89*%
G36*
G01*
X98350000Y-70825000D02*
X98850000Y-70825000D01*
G75*
G02*
X99075000Y-71050000I0J-225000D01*
G01*
X99075000Y-71500000D01*
G75*
G02*
X98850000Y-71725000I-225000J0D01*
G01*
X98350000Y-71725000D01*
G75*
G02*
X98125000Y-71500000I0J225000D01*
G01*
X98125000Y-71050000D01*
G75*
G02*
X98350000Y-70825000I225000J0D01*
G01*
G37*
G36*
G01*
X98350000Y-69275000D02*
X98850000Y-69275000D01*
G75*
G02*
X99075000Y-69500000I0J-225000D01*
G01*
X99075000Y-69950000D01*
G75*
G02*
X98850000Y-70175000I-225000J0D01*
G01*
X98350000Y-70175000D01*
G75*
G02*
X98125000Y-69950000I0J225000D01*
G01*
X98125000Y-69500000D01*
G75*
G02*
X98350000Y-69275000I225000J0D01*
G01*
G37*
%TD*%
%TO.C,C88*%
G36*
G01*
X93550000Y-70825000D02*
X94050000Y-70825000D01*
G75*
G02*
X94275000Y-71050000I0J-225000D01*
G01*
X94275000Y-71500000D01*
G75*
G02*
X94050000Y-71725000I-225000J0D01*
G01*
X93550000Y-71725000D01*
G75*
G02*
X93325000Y-71500000I0J225000D01*
G01*
X93325000Y-71050000D01*
G75*
G02*
X93550000Y-70825000I225000J0D01*
G01*
G37*
G36*
G01*
X93550000Y-69275000D02*
X94050000Y-69275000D01*
G75*
G02*
X94275000Y-69500000I0J-225000D01*
G01*
X94275000Y-69950000D01*
G75*
G02*
X94050000Y-70175000I-225000J0D01*
G01*
X93550000Y-70175000D01*
G75*
G02*
X93325000Y-69950000I0J225000D01*
G01*
X93325000Y-69500000D01*
G75*
G02*
X93550000Y-69275000I225000J0D01*
G01*
G37*
%TD*%
%TO.C,C83*%
G36*
G01*
X111750000Y-89125000D02*
X112250000Y-89125000D01*
G75*
G02*
X112475000Y-89350000I0J-225000D01*
G01*
X112475000Y-89800000D01*
G75*
G02*
X112250000Y-90025000I-225000J0D01*
G01*
X111750000Y-90025000D01*
G75*
G02*
X111525000Y-89800000I0J225000D01*
G01*
X111525000Y-89350000D01*
G75*
G02*
X111750000Y-89125000I225000J0D01*
G01*
G37*
G36*
G01*
X111750000Y-87575000D02*
X112250000Y-87575000D01*
G75*
G02*
X112475000Y-87800000I0J-225000D01*
G01*
X112475000Y-88250000D01*
G75*
G02*
X112250000Y-88475000I-225000J0D01*
G01*
X111750000Y-88475000D01*
G75*
G02*
X111525000Y-88250000I0J225000D01*
G01*
X111525000Y-87800000D01*
G75*
G02*
X111750000Y-87575000I225000J0D01*
G01*
G37*
%TD*%
%TO.C,C81*%
G36*
G01*
X110250000Y-89125000D02*
X110750000Y-89125000D01*
G75*
G02*
X110975000Y-89350000I0J-225000D01*
G01*
X110975000Y-89800000D01*
G75*
G02*
X110750000Y-90025000I-225000J0D01*
G01*
X110250000Y-90025000D01*
G75*
G02*
X110025000Y-89800000I0J225000D01*
G01*
X110025000Y-89350000D01*
G75*
G02*
X110250000Y-89125000I225000J0D01*
G01*
G37*
G36*
G01*
X110250000Y-87575000D02*
X110750000Y-87575000D01*
G75*
G02*
X110975000Y-87800000I0J-225000D01*
G01*
X110975000Y-88250000D01*
G75*
G02*
X110750000Y-88475000I-225000J0D01*
G01*
X110250000Y-88475000D01*
G75*
G02*
X110025000Y-88250000I0J225000D01*
G01*
X110025000Y-87800000D01*
G75*
G02*
X110250000Y-87575000I225000J0D01*
G01*
G37*
%TD*%
%TO.C,C79*%
G36*
G01*
X107825000Y-84750000D02*
X107825000Y-84250000D01*
G75*
G02*
X108050000Y-84025000I225000J0D01*
G01*
X108500000Y-84025000D01*
G75*
G02*
X108725000Y-84250000I0J-225000D01*
G01*
X108725000Y-84750000D01*
G75*
G02*
X108500000Y-84975000I-225000J0D01*
G01*
X108050000Y-84975000D01*
G75*
G02*
X107825000Y-84750000I0J225000D01*
G01*
G37*
G36*
G01*
X106275000Y-84750000D02*
X106275000Y-84250000D01*
G75*
G02*
X106500000Y-84025000I225000J0D01*
G01*
X106950000Y-84025000D01*
G75*
G02*
X107175000Y-84250000I0J-225000D01*
G01*
X107175000Y-84750000D01*
G75*
G02*
X106950000Y-84975000I-225000J0D01*
G01*
X106500000Y-84975000D01*
G75*
G02*
X106275000Y-84750000I0J225000D01*
G01*
G37*
%TD*%
%TO.C,C78*%
G36*
G01*
X103675000Y-84250000D02*
X103675000Y-84750000D01*
G75*
G02*
X103450000Y-84975000I-225000J0D01*
G01*
X103000000Y-84975000D01*
G75*
G02*
X102775000Y-84750000I0J225000D01*
G01*
X102775000Y-84250000D01*
G75*
G02*
X103000000Y-84025000I225000J0D01*
G01*
X103450000Y-84025000D01*
G75*
G02*
X103675000Y-84250000I0J-225000D01*
G01*
G37*
G36*
G01*
X105225000Y-84250000D02*
X105225000Y-84750000D01*
G75*
G02*
X105000000Y-84975000I-225000J0D01*
G01*
X104550000Y-84975000D01*
G75*
G02*
X104325000Y-84750000I0J225000D01*
G01*
X104325000Y-84250000D01*
G75*
G02*
X104550000Y-84025000I225000J0D01*
G01*
X105000000Y-84025000D01*
G75*
G02*
X105225000Y-84250000I0J-225000D01*
G01*
G37*
%TD*%
%TO.C,C77*%
G36*
G01*
X100825000Y-84750000D02*
X100825000Y-84250000D01*
G75*
G02*
X101050000Y-84025000I225000J0D01*
G01*
X101500000Y-84025000D01*
G75*
G02*
X101725000Y-84250000I0J-225000D01*
G01*
X101725000Y-84750000D01*
G75*
G02*
X101500000Y-84975000I-225000J0D01*
G01*
X101050000Y-84975000D01*
G75*
G02*
X100825000Y-84750000I0J225000D01*
G01*
G37*
G36*
G01*
X99275000Y-84750000D02*
X99275000Y-84250000D01*
G75*
G02*
X99500000Y-84025000I225000J0D01*
G01*
X99950000Y-84025000D01*
G75*
G02*
X100175000Y-84250000I0J-225000D01*
G01*
X100175000Y-84750000D01*
G75*
G02*
X99950000Y-84975000I-225000J0D01*
G01*
X99500000Y-84975000D01*
G75*
G02*
X99275000Y-84750000I0J225000D01*
G01*
G37*
%TD*%
%TO.C,C70*%
G36*
G01*
X110400000Y-103050000D02*
X110400000Y-103550000D01*
G75*
G02*
X110175000Y-103775000I-225000J0D01*
G01*
X109725000Y-103775000D01*
G75*
G02*
X109500000Y-103550000I0J225000D01*
G01*
X109500000Y-103050000D01*
G75*
G02*
X109725000Y-102825000I225000J0D01*
G01*
X110175000Y-102825000D01*
G75*
G02*
X110400000Y-103050000I0J-225000D01*
G01*
G37*
G36*
G01*
X111950000Y-103050000D02*
X111950000Y-103550000D01*
G75*
G02*
X111725000Y-103775000I-225000J0D01*
G01*
X111275000Y-103775000D01*
G75*
G02*
X111050000Y-103550000I0J225000D01*
G01*
X111050000Y-103050000D01*
G75*
G02*
X111275000Y-102825000I225000J0D01*
G01*
X111725000Y-102825000D01*
G75*
G02*
X111950000Y-103050000I0J-225000D01*
G01*
G37*
%TD*%
%TO.C,C69*%
G36*
G01*
X106600000Y-103550000D02*
X106600000Y-103050000D01*
G75*
G02*
X106825000Y-102825000I225000J0D01*
G01*
X107275000Y-102825000D01*
G75*
G02*
X107500000Y-103050000I0J-225000D01*
G01*
X107500000Y-103550000D01*
G75*
G02*
X107275000Y-103775000I-225000J0D01*
G01*
X106825000Y-103775000D01*
G75*
G02*
X106600000Y-103550000I0J225000D01*
G01*
G37*
G36*
G01*
X105050000Y-103550000D02*
X105050000Y-103050000D01*
G75*
G02*
X105275000Y-102825000I225000J0D01*
G01*
X105725000Y-102825000D01*
G75*
G02*
X105950000Y-103050000I0J-225000D01*
G01*
X105950000Y-103550000D01*
G75*
G02*
X105725000Y-103775000I-225000J0D01*
G01*
X105275000Y-103775000D01*
G75*
G02*
X105050000Y-103550000I0J225000D01*
G01*
G37*
%TD*%
%TO.C,C68*%
G36*
G01*
X96400000Y-103050000D02*
X96400000Y-103550000D01*
G75*
G02*
X96175000Y-103775000I-225000J0D01*
G01*
X95725000Y-103775000D01*
G75*
G02*
X95500000Y-103550000I0J225000D01*
G01*
X95500000Y-103050000D01*
G75*
G02*
X95725000Y-102825000I225000J0D01*
G01*
X96175000Y-102825000D01*
G75*
G02*
X96400000Y-103050000I0J-225000D01*
G01*
G37*
G36*
G01*
X97950000Y-103050000D02*
X97950000Y-103550000D01*
G75*
G02*
X97725000Y-103775000I-225000J0D01*
G01*
X97275000Y-103775000D01*
G75*
G02*
X97050000Y-103550000I0J225000D01*
G01*
X97050000Y-103050000D01*
G75*
G02*
X97275000Y-102825000I225000J0D01*
G01*
X97725000Y-102825000D01*
G75*
G02*
X97950000Y-103050000I0J-225000D01*
G01*
G37*
%TD*%
%TO.C,C67*%
G36*
G01*
X92600000Y-103550000D02*
X92600000Y-103050000D01*
G75*
G02*
X92825000Y-102825000I225000J0D01*
G01*
X93275000Y-102825000D01*
G75*
G02*
X93500000Y-103050000I0J-225000D01*
G01*
X93500000Y-103550000D01*
G75*
G02*
X93275000Y-103775000I-225000J0D01*
G01*
X92825000Y-103775000D01*
G75*
G02*
X92600000Y-103550000I0J225000D01*
G01*
G37*
G36*
G01*
X91050000Y-103550000D02*
X91050000Y-103050000D01*
G75*
G02*
X91275000Y-102825000I225000J0D01*
G01*
X91725000Y-102825000D01*
G75*
G02*
X91950000Y-103050000I0J-225000D01*
G01*
X91950000Y-103550000D01*
G75*
G02*
X91725000Y-103775000I-225000J0D01*
G01*
X91275000Y-103775000D01*
G75*
G02*
X91050000Y-103550000I0J225000D01*
G01*
G37*
%TD*%
%TO.C,C66*%
G36*
G01*
X79850000Y-70825000D02*
X80350000Y-70825000D01*
G75*
G02*
X80575000Y-71050000I0J-225000D01*
G01*
X80575000Y-71500000D01*
G75*
G02*
X80350000Y-71725000I-225000J0D01*
G01*
X79850000Y-71725000D01*
G75*
G02*
X79625000Y-71500000I0J225000D01*
G01*
X79625000Y-71050000D01*
G75*
G02*
X79850000Y-70825000I225000J0D01*
G01*
G37*
G36*
G01*
X79850000Y-69275000D02*
X80350000Y-69275000D01*
G75*
G02*
X80575000Y-69500000I0J-225000D01*
G01*
X80575000Y-69950000D01*
G75*
G02*
X80350000Y-70175000I-225000J0D01*
G01*
X79850000Y-70175000D01*
G75*
G02*
X79625000Y-69950000I0J225000D01*
G01*
X79625000Y-69500000D01*
G75*
G02*
X79850000Y-69275000I225000J0D01*
G01*
G37*
%TD*%
%TO.C,C65*%
G36*
G01*
X78250000Y-70825000D02*
X78750000Y-70825000D01*
G75*
G02*
X78975000Y-71050000I0J-225000D01*
G01*
X78975000Y-71500000D01*
G75*
G02*
X78750000Y-71725000I-225000J0D01*
G01*
X78250000Y-71725000D01*
G75*
G02*
X78025000Y-71500000I0J225000D01*
G01*
X78025000Y-71050000D01*
G75*
G02*
X78250000Y-70825000I225000J0D01*
G01*
G37*
G36*
G01*
X78250000Y-69275000D02*
X78750000Y-69275000D01*
G75*
G02*
X78975000Y-69500000I0J-225000D01*
G01*
X78975000Y-69950000D01*
G75*
G02*
X78750000Y-70175000I-225000J0D01*
G01*
X78250000Y-70175000D01*
G75*
G02*
X78025000Y-69950000I0J225000D01*
G01*
X78025000Y-69500000D01*
G75*
G02*
X78250000Y-69275000I225000J0D01*
G01*
G37*
%TD*%
%TO.C,C64*%
G36*
G01*
X62950000Y-70825000D02*
X63450000Y-70825000D01*
G75*
G02*
X63675000Y-71050000I0J-225000D01*
G01*
X63675000Y-71500000D01*
G75*
G02*
X63450000Y-71725000I-225000J0D01*
G01*
X62950000Y-71725000D01*
G75*
G02*
X62725000Y-71500000I0J225000D01*
G01*
X62725000Y-71050000D01*
G75*
G02*
X62950000Y-70825000I225000J0D01*
G01*
G37*
G36*
G01*
X62950000Y-69275000D02*
X63450000Y-69275000D01*
G75*
G02*
X63675000Y-69500000I0J-225000D01*
G01*
X63675000Y-69950000D01*
G75*
G02*
X63450000Y-70175000I-225000J0D01*
G01*
X62950000Y-70175000D01*
G75*
G02*
X62725000Y-69950000I0J225000D01*
G01*
X62725000Y-69500000D01*
G75*
G02*
X62950000Y-69275000I225000J0D01*
G01*
G37*
%TD*%
%TO.C,C62*%
G36*
G01*
X81450000Y-70825000D02*
X81950000Y-70825000D01*
G75*
G02*
X82175000Y-71050000I0J-225000D01*
G01*
X82175000Y-71500000D01*
G75*
G02*
X81950000Y-71725000I-225000J0D01*
G01*
X81450000Y-71725000D01*
G75*
G02*
X81225000Y-71500000I0J225000D01*
G01*
X81225000Y-71050000D01*
G75*
G02*
X81450000Y-70825000I225000J0D01*
G01*
G37*
G36*
G01*
X81450000Y-69275000D02*
X81950000Y-69275000D01*
G75*
G02*
X82175000Y-69500000I0J-225000D01*
G01*
X82175000Y-69950000D01*
G75*
G02*
X81950000Y-70175000I-225000J0D01*
G01*
X81450000Y-70175000D01*
G75*
G02*
X81225000Y-69950000I0J225000D01*
G01*
X81225000Y-69500000D01*
G75*
G02*
X81450000Y-69275000I225000J0D01*
G01*
G37*
%TD*%
%TO.C,C61*%
G36*
G01*
X76650000Y-70825000D02*
X77150000Y-70825000D01*
G75*
G02*
X77375000Y-71050000I0J-225000D01*
G01*
X77375000Y-71500000D01*
G75*
G02*
X77150000Y-71725000I-225000J0D01*
G01*
X76650000Y-71725000D01*
G75*
G02*
X76425000Y-71500000I0J225000D01*
G01*
X76425000Y-71050000D01*
G75*
G02*
X76650000Y-70825000I225000J0D01*
G01*
G37*
G36*
G01*
X76650000Y-69275000D02*
X77150000Y-69275000D01*
G75*
G02*
X77375000Y-69500000I0J-225000D01*
G01*
X77375000Y-69950000D01*
G75*
G02*
X77150000Y-70175000I-225000J0D01*
G01*
X76650000Y-70175000D01*
G75*
G02*
X76425000Y-69950000I0J225000D01*
G01*
X76425000Y-69500000D01*
G75*
G02*
X76650000Y-69275000I225000J0D01*
G01*
G37*
%TD*%
%TO.C,C60*%
G36*
G01*
X64550000Y-70825000D02*
X65050000Y-70825000D01*
G75*
G02*
X65275000Y-71050000I0J-225000D01*
G01*
X65275000Y-71500000D01*
G75*
G02*
X65050000Y-71725000I-225000J0D01*
G01*
X64550000Y-71725000D01*
G75*
G02*
X64325000Y-71500000I0J225000D01*
G01*
X64325000Y-71050000D01*
G75*
G02*
X64550000Y-70825000I225000J0D01*
G01*
G37*
G36*
G01*
X64550000Y-69275000D02*
X65050000Y-69275000D01*
G75*
G02*
X65275000Y-69500000I0J-225000D01*
G01*
X65275000Y-69950000D01*
G75*
G02*
X65050000Y-70175000I-225000J0D01*
G01*
X64550000Y-70175000D01*
G75*
G02*
X64325000Y-69950000I0J225000D01*
G01*
X64325000Y-69500000D01*
G75*
G02*
X64550000Y-69275000I225000J0D01*
G01*
G37*
%TD*%
%TO.C,C59*%
G36*
G01*
X59750000Y-70825000D02*
X60250000Y-70825000D01*
G75*
G02*
X60475000Y-71050000I0J-225000D01*
G01*
X60475000Y-71500000D01*
G75*
G02*
X60250000Y-71725000I-225000J0D01*
G01*
X59750000Y-71725000D01*
G75*
G02*
X59525000Y-71500000I0J225000D01*
G01*
X59525000Y-71050000D01*
G75*
G02*
X59750000Y-70825000I225000J0D01*
G01*
G37*
G36*
G01*
X59750000Y-69275000D02*
X60250000Y-69275000D01*
G75*
G02*
X60475000Y-69500000I0J-225000D01*
G01*
X60475000Y-69950000D01*
G75*
G02*
X60250000Y-70175000I-225000J0D01*
G01*
X59750000Y-70175000D01*
G75*
G02*
X59525000Y-69950000I0J225000D01*
G01*
X59525000Y-69500000D01*
G75*
G02*
X59750000Y-69275000I225000J0D01*
G01*
G37*
%TD*%
%TO.C,C52*%
G36*
G01*
X80250000Y-89125000D02*
X80750000Y-89125000D01*
G75*
G02*
X80975000Y-89350000I0J-225000D01*
G01*
X80975000Y-89800000D01*
G75*
G02*
X80750000Y-90025000I-225000J0D01*
G01*
X80250000Y-90025000D01*
G75*
G02*
X80025000Y-89800000I0J225000D01*
G01*
X80025000Y-89350000D01*
G75*
G02*
X80250000Y-89125000I225000J0D01*
G01*
G37*
G36*
G01*
X80250000Y-87575000D02*
X80750000Y-87575000D01*
G75*
G02*
X80975000Y-87800000I0J-225000D01*
G01*
X80975000Y-88250000D01*
G75*
G02*
X80750000Y-88475000I-225000J0D01*
G01*
X80250000Y-88475000D01*
G75*
G02*
X80025000Y-88250000I0J225000D01*
G01*
X80025000Y-87800000D01*
G75*
G02*
X80250000Y-87575000I225000J0D01*
G01*
G37*
%TD*%
%TO.C,C54*%
G36*
G01*
X81750000Y-89125000D02*
X82250000Y-89125000D01*
G75*
G02*
X82475000Y-89350000I0J-225000D01*
G01*
X82475000Y-89800000D01*
G75*
G02*
X82250000Y-90025000I-225000J0D01*
G01*
X81750000Y-90025000D01*
G75*
G02*
X81525000Y-89800000I0J225000D01*
G01*
X81525000Y-89350000D01*
G75*
G02*
X81750000Y-89125000I225000J0D01*
G01*
G37*
G36*
G01*
X81750000Y-87575000D02*
X82250000Y-87575000D01*
G75*
G02*
X82475000Y-87800000I0J-225000D01*
G01*
X82475000Y-88250000D01*
G75*
G02*
X82250000Y-88475000I-225000J0D01*
G01*
X81750000Y-88475000D01*
G75*
G02*
X81525000Y-88250000I0J225000D01*
G01*
X81525000Y-87800000D01*
G75*
G02*
X81750000Y-87575000I225000J0D01*
G01*
G37*
%TD*%
%TO.C,C36*%
G36*
G01*
X86250000Y-110225000D02*
X86750000Y-110225000D01*
G75*
G02*
X86975000Y-110450000I0J-225000D01*
G01*
X86975000Y-110900000D01*
G75*
G02*
X86750000Y-111125000I-225000J0D01*
G01*
X86250000Y-111125000D01*
G75*
G02*
X86025000Y-110900000I0J225000D01*
G01*
X86025000Y-110450000D01*
G75*
G02*
X86250000Y-110225000I225000J0D01*
G01*
G37*
G36*
G01*
X86250000Y-108675000D02*
X86750000Y-108675000D01*
G75*
G02*
X86975000Y-108900000I0J-225000D01*
G01*
X86975000Y-109350000D01*
G75*
G02*
X86750000Y-109575000I-225000J0D01*
G01*
X86250000Y-109575000D01*
G75*
G02*
X86025000Y-109350000I0J225000D01*
G01*
X86025000Y-108900000D01*
G75*
G02*
X86250000Y-108675000I225000J0D01*
G01*
G37*
%TD*%
%TO.C,C50*%
G36*
G01*
X77825000Y-84750000D02*
X77825000Y-84250000D01*
G75*
G02*
X78050000Y-84025000I225000J0D01*
G01*
X78500000Y-84025000D01*
G75*
G02*
X78725000Y-84250000I0J-225000D01*
G01*
X78725000Y-84750000D01*
G75*
G02*
X78500000Y-84975000I-225000J0D01*
G01*
X78050000Y-84975000D01*
G75*
G02*
X77825000Y-84750000I0J225000D01*
G01*
G37*
G36*
G01*
X76275000Y-84750000D02*
X76275000Y-84250000D01*
G75*
G02*
X76500000Y-84025000I225000J0D01*
G01*
X76950000Y-84025000D01*
G75*
G02*
X77175000Y-84250000I0J-225000D01*
G01*
X77175000Y-84750000D01*
G75*
G02*
X76950000Y-84975000I-225000J0D01*
G01*
X76500000Y-84975000D01*
G75*
G02*
X76275000Y-84750000I0J225000D01*
G01*
G37*
%TD*%
%TO.C,C49*%
G36*
G01*
X73675000Y-84250000D02*
X73675000Y-84750000D01*
G75*
G02*
X73450000Y-84975000I-225000J0D01*
G01*
X73000000Y-84975000D01*
G75*
G02*
X72775000Y-84750000I0J225000D01*
G01*
X72775000Y-84250000D01*
G75*
G02*
X73000000Y-84025000I225000J0D01*
G01*
X73450000Y-84025000D01*
G75*
G02*
X73675000Y-84250000I0J-225000D01*
G01*
G37*
G36*
G01*
X75225000Y-84250000D02*
X75225000Y-84750000D01*
G75*
G02*
X75000000Y-84975000I-225000J0D01*
G01*
X74550000Y-84975000D01*
G75*
G02*
X74325000Y-84750000I0J225000D01*
G01*
X74325000Y-84250000D01*
G75*
G02*
X74550000Y-84025000I225000J0D01*
G01*
X75000000Y-84025000D01*
G75*
G02*
X75225000Y-84250000I0J-225000D01*
G01*
G37*
%TD*%
%TO.C,C48*%
G36*
G01*
X70825000Y-84750000D02*
X70825000Y-84250000D01*
G75*
G02*
X71050000Y-84025000I225000J0D01*
G01*
X71500000Y-84025000D01*
G75*
G02*
X71725000Y-84250000I0J-225000D01*
G01*
X71725000Y-84750000D01*
G75*
G02*
X71500000Y-84975000I-225000J0D01*
G01*
X71050000Y-84975000D01*
G75*
G02*
X70825000Y-84750000I0J225000D01*
G01*
G37*
G36*
G01*
X69275000Y-84750000D02*
X69275000Y-84250000D01*
G75*
G02*
X69500000Y-84025000I225000J0D01*
G01*
X69950000Y-84025000D01*
G75*
G02*
X70175000Y-84250000I0J-225000D01*
G01*
X70175000Y-84750000D01*
G75*
G02*
X69950000Y-84975000I-225000J0D01*
G01*
X69500000Y-84975000D01*
G75*
G02*
X69275000Y-84750000I0J225000D01*
G01*
G37*
%TD*%
%TO.C,C41*%
G36*
G01*
X80400000Y-103050000D02*
X80400000Y-103550000D01*
G75*
G02*
X80175000Y-103775000I-225000J0D01*
G01*
X79725000Y-103775000D01*
G75*
G02*
X79500000Y-103550000I0J225000D01*
G01*
X79500000Y-103050000D01*
G75*
G02*
X79725000Y-102825000I225000J0D01*
G01*
X80175000Y-102825000D01*
G75*
G02*
X80400000Y-103050000I0J-225000D01*
G01*
G37*
G36*
G01*
X81950000Y-103050000D02*
X81950000Y-103550000D01*
G75*
G02*
X81725000Y-103775000I-225000J0D01*
G01*
X81275000Y-103775000D01*
G75*
G02*
X81050000Y-103550000I0J225000D01*
G01*
X81050000Y-103050000D01*
G75*
G02*
X81275000Y-102825000I225000J0D01*
G01*
X81725000Y-102825000D01*
G75*
G02*
X81950000Y-103050000I0J-225000D01*
G01*
G37*
%TD*%
%TO.C,C40*%
G36*
G01*
X76600000Y-103550000D02*
X76600000Y-103050000D01*
G75*
G02*
X76825000Y-102825000I225000J0D01*
G01*
X77275000Y-102825000D01*
G75*
G02*
X77500000Y-103050000I0J-225000D01*
G01*
X77500000Y-103550000D01*
G75*
G02*
X77275000Y-103775000I-225000J0D01*
G01*
X76825000Y-103775000D01*
G75*
G02*
X76600000Y-103550000I0J225000D01*
G01*
G37*
G36*
G01*
X75050000Y-103550000D02*
X75050000Y-103050000D01*
G75*
G02*
X75275000Y-102825000I225000J0D01*
G01*
X75725000Y-102825000D01*
G75*
G02*
X75950000Y-103050000I0J-225000D01*
G01*
X75950000Y-103550000D01*
G75*
G02*
X75725000Y-103775000I-225000J0D01*
G01*
X75275000Y-103775000D01*
G75*
G02*
X75050000Y-103550000I0J225000D01*
G01*
G37*
%TD*%
%TO.C,C39*%
G36*
G01*
X66400000Y-103050000D02*
X66400000Y-103550000D01*
G75*
G02*
X66175000Y-103775000I-225000J0D01*
G01*
X65725000Y-103775000D01*
G75*
G02*
X65500000Y-103550000I0J225000D01*
G01*
X65500000Y-103050000D01*
G75*
G02*
X65725000Y-102825000I225000J0D01*
G01*
X66175000Y-102825000D01*
G75*
G02*
X66400000Y-103050000I0J-225000D01*
G01*
G37*
G36*
G01*
X67950000Y-103050000D02*
X67950000Y-103550000D01*
G75*
G02*
X67725000Y-103775000I-225000J0D01*
G01*
X67275000Y-103775000D01*
G75*
G02*
X67050000Y-103550000I0J225000D01*
G01*
X67050000Y-103050000D01*
G75*
G02*
X67275000Y-102825000I225000J0D01*
G01*
X67725000Y-102825000D01*
G75*
G02*
X67950000Y-103050000I0J-225000D01*
G01*
G37*
%TD*%
%TO.C,C38*%
G36*
G01*
X62600000Y-103550000D02*
X62600000Y-103050000D01*
G75*
G02*
X62825000Y-102825000I225000J0D01*
G01*
X63275000Y-102825000D01*
G75*
G02*
X63500000Y-103050000I0J-225000D01*
G01*
X63500000Y-103550000D01*
G75*
G02*
X63275000Y-103775000I-225000J0D01*
G01*
X62825000Y-103775000D01*
G75*
G02*
X62600000Y-103550000I0J225000D01*
G01*
G37*
G36*
G01*
X61050000Y-103550000D02*
X61050000Y-103050000D01*
G75*
G02*
X61275000Y-102825000I225000J0D01*
G01*
X61725000Y-102825000D01*
G75*
G02*
X61950000Y-103050000I0J-225000D01*
G01*
X61950000Y-103550000D01*
G75*
G02*
X61725000Y-103775000I-225000J0D01*
G01*
X61275000Y-103775000D01*
G75*
G02*
X61050000Y-103550000I0J225000D01*
G01*
G37*
%TD*%
%TO.C,C34*%
G36*
G01*
X84750000Y-127725000D02*
X85250000Y-127725000D01*
G75*
G02*
X85475000Y-127950000I0J-225000D01*
G01*
X85475000Y-128400000D01*
G75*
G02*
X85250000Y-128625000I-225000J0D01*
G01*
X84750000Y-128625000D01*
G75*
G02*
X84525000Y-128400000I0J225000D01*
G01*
X84525000Y-127950000D01*
G75*
G02*
X84750000Y-127725000I225000J0D01*
G01*
G37*
G36*
G01*
X84750000Y-126175000D02*
X85250000Y-126175000D01*
G75*
G02*
X85475000Y-126400000I0J-225000D01*
G01*
X85475000Y-126850000D01*
G75*
G02*
X85250000Y-127075000I-225000J0D01*
G01*
X84750000Y-127075000D01*
G75*
G02*
X84525000Y-126850000I0J225000D01*
G01*
X84525000Y-126400000D01*
G75*
G02*
X84750000Y-126175000I225000J0D01*
G01*
G37*
%TD*%
%TO.C,C33*%
G36*
G01*
X82250000Y-109575000D02*
X81750000Y-109575000D01*
G75*
G02*
X81525000Y-109350000I0J225000D01*
G01*
X81525000Y-108900000D01*
G75*
G02*
X81750000Y-108675000I225000J0D01*
G01*
X82250000Y-108675000D01*
G75*
G02*
X82475000Y-108900000I0J-225000D01*
G01*
X82475000Y-109350000D01*
G75*
G02*
X82250000Y-109575000I-225000J0D01*
G01*
G37*
G36*
G01*
X82250000Y-111125000D02*
X81750000Y-111125000D01*
G75*
G02*
X81525000Y-110900000I0J225000D01*
G01*
X81525000Y-110450000D01*
G75*
G02*
X81750000Y-110225000I225000J0D01*
G01*
X82250000Y-110225000D01*
G75*
G02*
X82475000Y-110450000I0J-225000D01*
G01*
X82475000Y-110900000D01*
G75*
G02*
X82250000Y-111125000I-225000J0D01*
G01*
G37*
%TD*%
%TO.C,C32*%
G36*
G01*
X76350000Y-127725000D02*
X76850000Y-127725000D01*
G75*
G02*
X77075000Y-127950000I0J-225000D01*
G01*
X77075000Y-128400000D01*
G75*
G02*
X76850000Y-128625000I-225000J0D01*
G01*
X76350000Y-128625000D01*
G75*
G02*
X76125000Y-128400000I0J225000D01*
G01*
X76125000Y-127950000D01*
G75*
G02*
X76350000Y-127725000I225000J0D01*
G01*
G37*
G36*
G01*
X76350000Y-126175000D02*
X76850000Y-126175000D01*
G75*
G02*
X77075000Y-126400000I0J-225000D01*
G01*
X77075000Y-126850000D01*
G75*
G02*
X76850000Y-127075000I-225000J0D01*
G01*
X76350000Y-127075000D01*
G75*
G02*
X76125000Y-126850000I0J225000D01*
G01*
X76125000Y-126400000D01*
G75*
G02*
X76350000Y-126175000I225000J0D01*
G01*
G37*
%TD*%
%TO.C,C31*%
G36*
G01*
X79350000Y-127725000D02*
X79850000Y-127725000D01*
G75*
G02*
X80075000Y-127950000I0J-225000D01*
G01*
X80075000Y-128400000D01*
G75*
G02*
X79850000Y-128625000I-225000J0D01*
G01*
X79350000Y-128625000D01*
G75*
G02*
X79125000Y-128400000I0J225000D01*
G01*
X79125000Y-127950000D01*
G75*
G02*
X79350000Y-127725000I225000J0D01*
G01*
G37*
G36*
G01*
X79350000Y-126175000D02*
X79850000Y-126175000D01*
G75*
G02*
X80075000Y-126400000I0J-225000D01*
G01*
X80075000Y-126850000D01*
G75*
G02*
X79850000Y-127075000I-225000J0D01*
G01*
X79350000Y-127075000D01*
G75*
G02*
X79125000Y-126850000I0J225000D01*
G01*
X79125000Y-126400000D01*
G75*
G02*
X79350000Y-126175000I225000J0D01*
G01*
G37*
%TD*%
%TO.C,C28*%
G36*
G01*
X75450000Y-109575000D02*
X74950000Y-109575000D01*
G75*
G02*
X74725000Y-109350000I0J225000D01*
G01*
X74725000Y-108900000D01*
G75*
G02*
X74950000Y-108675000I225000J0D01*
G01*
X75450000Y-108675000D01*
G75*
G02*
X75675000Y-108900000I0J-225000D01*
G01*
X75675000Y-109350000D01*
G75*
G02*
X75450000Y-109575000I-225000J0D01*
G01*
G37*
G36*
G01*
X75450000Y-111125000D02*
X74950000Y-111125000D01*
G75*
G02*
X74725000Y-110900000I0J225000D01*
G01*
X74725000Y-110450000D01*
G75*
G02*
X74950000Y-110225000I225000J0D01*
G01*
X75450000Y-110225000D01*
G75*
G02*
X75675000Y-110450000I0J-225000D01*
G01*
X75675000Y-110900000D01*
G75*
G02*
X75450000Y-111125000I-225000J0D01*
G01*
G37*
%TD*%
%TO.C,C27*%
G36*
G01*
X88250000Y-109575000D02*
X87750000Y-109575000D01*
G75*
G02*
X87525000Y-109350000I0J225000D01*
G01*
X87525000Y-108900000D01*
G75*
G02*
X87750000Y-108675000I225000J0D01*
G01*
X88250000Y-108675000D01*
G75*
G02*
X88475000Y-108900000I0J-225000D01*
G01*
X88475000Y-109350000D01*
G75*
G02*
X88250000Y-109575000I-225000J0D01*
G01*
G37*
G36*
G01*
X88250000Y-111125000D02*
X87750000Y-111125000D01*
G75*
G02*
X87525000Y-110900000I0J225000D01*
G01*
X87525000Y-110450000D01*
G75*
G02*
X87750000Y-110225000I225000J0D01*
G01*
X88250000Y-110225000D01*
G75*
G02*
X88475000Y-110450000I0J-225000D01*
G01*
X88475000Y-110900000D01*
G75*
G02*
X88250000Y-111125000I-225000J0D01*
G01*
G37*
%TD*%
%TO.C,C25*%
G36*
G01*
X91925000Y-113850000D02*
X91925000Y-113350000D01*
G75*
G02*
X92150000Y-113125000I225000J0D01*
G01*
X92600000Y-113125000D01*
G75*
G02*
X92825000Y-113350000I0J-225000D01*
G01*
X92825000Y-113850000D01*
G75*
G02*
X92600000Y-114075000I-225000J0D01*
G01*
X92150000Y-114075000D01*
G75*
G02*
X91925000Y-113850000I0J225000D01*
G01*
G37*
G36*
G01*
X90375000Y-113850000D02*
X90375000Y-113350000D01*
G75*
G02*
X90600000Y-113125000I225000J0D01*
G01*
X91050000Y-113125000D01*
G75*
G02*
X91275000Y-113350000I0J-225000D01*
G01*
X91275000Y-113850000D01*
G75*
G02*
X91050000Y-114075000I-225000J0D01*
G01*
X90600000Y-114075000D01*
G75*
G02*
X90375000Y-113850000I0J225000D01*
G01*
G37*
%TD*%
%TO.C,C24*%
G36*
G01*
X78450000Y-109575000D02*
X77950000Y-109575000D01*
G75*
G02*
X77725000Y-109350000I0J225000D01*
G01*
X77725000Y-108900000D01*
G75*
G02*
X77950000Y-108675000I225000J0D01*
G01*
X78450000Y-108675000D01*
G75*
G02*
X78675000Y-108900000I0J-225000D01*
G01*
X78675000Y-109350000D01*
G75*
G02*
X78450000Y-109575000I-225000J0D01*
G01*
G37*
G36*
G01*
X78450000Y-111125000D02*
X77950000Y-111125000D01*
G75*
G02*
X77725000Y-110900000I0J225000D01*
G01*
X77725000Y-110450000D01*
G75*
G02*
X77950000Y-110225000I225000J0D01*
G01*
X78450000Y-110225000D01*
G75*
G02*
X78675000Y-110450000I0J-225000D01*
G01*
X78675000Y-110900000D01*
G75*
G02*
X78450000Y-111125000I-225000J0D01*
G01*
G37*
%TD*%
%TO.C,C20*%
G36*
G01*
X72725000Y-120450000D02*
X72725000Y-119950000D01*
G75*
G02*
X72950000Y-119725000I225000J0D01*
G01*
X73400000Y-119725000D01*
G75*
G02*
X73625000Y-119950000I0J-225000D01*
G01*
X73625000Y-120450000D01*
G75*
G02*
X73400000Y-120675000I-225000J0D01*
G01*
X72950000Y-120675000D01*
G75*
G02*
X72725000Y-120450000I0J225000D01*
G01*
G37*
G36*
G01*
X71175000Y-120450000D02*
X71175000Y-119950000D01*
G75*
G02*
X71400000Y-119725000I225000J0D01*
G01*
X71850000Y-119725000D01*
G75*
G02*
X72075000Y-119950000I0J-225000D01*
G01*
X72075000Y-120450000D01*
G75*
G02*
X71850000Y-120675000I-225000J0D01*
G01*
X71400000Y-120675000D01*
G75*
G02*
X71175000Y-120450000I0J225000D01*
G01*
G37*
%TD*%
%TO.C,C13*%
G36*
G01*
X103450000Y-114275000D02*
X102950000Y-114275000D01*
G75*
G02*
X102725000Y-114050000I0J225000D01*
G01*
X102725000Y-113600000D01*
G75*
G02*
X102950000Y-113375000I225000J0D01*
G01*
X103450000Y-113375000D01*
G75*
G02*
X103675000Y-113600000I0J-225000D01*
G01*
X103675000Y-114050000D01*
G75*
G02*
X103450000Y-114275000I-225000J0D01*
G01*
G37*
G36*
G01*
X103450000Y-115825000D02*
X102950000Y-115825000D01*
G75*
G02*
X102725000Y-115600000I0J225000D01*
G01*
X102725000Y-115150000D01*
G75*
G02*
X102950000Y-114925000I225000J0D01*
G01*
X103450000Y-114925000D01*
G75*
G02*
X103675000Y-115150000I0J-225000D01*
G01*
X103675000Y-115600000D01*
G75*
G02*
X103450000Y-115825000I-225000J0D01*
G01*
G37*
%TD*%
%TO.C,C9*%
G36*
G01*
X111250000Y-112931520D02*
X110750000Y-112931520D01*
G75*
G02*
X110525000Y-112706520I0J225000D01*
G01*
X110525000Y-112256520D01*
G75*
G02*
X110750000Y-112031520I225000J0D01*
G01*
X111250000Y-112031520D01*
G75*
G02*
X111475000Y-112256520I0J-225000D01*
G01*
X111475000Y-112706520D01*
G75*
G02*
X111250000Y-112931520I-225000J0D01*
G01*
G37*
G36*
G01*
X111250000Y-114481520D02*
X110750000Y-114481520D01*
G75*
G02*
X110525000Y-114256520I0J225000D01*
G01*
X110525000Y-113806520D01*
G75*
G02*
X110750000Y-113581520I225000J0D01*
G01*
X111250000Y-113581520D01*
G75*
G02*
X111475000Y-113806520I0J-225000D01*
G01*
X111475000Y-114256520D01*
G75*
G02*
X111250000Y-114481520I-225000J0D01*
G01*
G37*
%TD*%
%TO.C,C4*%
G36*
G01*
X118350000Y-126681520D02*
X118850000Y-126681520D01*
G75*
G02*
X119075000Y-126906520I0J-225000D01*
G01*
X119075000Y-127356520D01*
G75*
G02*
X118850000Y-127581520I-225000J0D01*
G01*
X118350000Y-127581520D01*
G75*
G02*
X118125000Y-127356520I0J225000D01*
G01*
X118125000Y-126906520D01*
G75*
G02*
X118350000Y-126681520I225000J0D01*
G01*
G37*
G36*
G01*
X118350000Y-125131520D02*
X118850000Y-125131520D01*
G75*
G02*
X119075000Y-125356520I0J-225000D01*
G01*
X119075000Y-125806520D01*
G75*
G02*
X118850000Y-126031520I-225000J0D01*
G01*
X118350000Y-126031520D01*
G75*
G02*
X118125000Y-125806520I0J225000D01*
G01*
X118125000Y-125356520D01*
G75*
G02*
X118350000Y-125131520I225000J0D01*
G01*
G37*
%TD*%
%TO.C,C37*%
G36*
G01*
X84750000Y-110225000D02*
X85250000Y-110225000D01*
G75*
G02*
X85475000Y-110450000I0J-225000D01*
G01*
X85475000Y-110900000D01*
G75*
G02*
X85250000Y-111125000I-225000J0D01*
G01*
X84750000Y-111125000D01*
G75*
G02*
X84525000Y-110900000I0J225000D01*
G01*
X84525000Y-110450000D01*
G75*
G02*
X84750000Y-110225000I225000J0D01*
G01*
G37*
G36*
G01*
X84750000Y-108675000D02*
X85250000Y-108675000D01*
G75*
G02*
X85475000Y-108900000I0J-225000D01*
G01*
X85475000Y-109350000D01*
G75*
G02*
X85250000Y-109575000I-225000J0D01*
G01*
X84750000Y-109575000D01*
G75*
G02*
X84525000Y-109350000I0J225000D01*
G01*
X84525000Y-108900000D01*
G75*
G02*
X84750000Y-108675000I225000J0D01*
G01*
G37*
%TD*%
%TO.C,R11*%
G36*
G01*
X96175000Y-117125000D02*
X96175000Y-117675000D01*
G75*
G02*
X95975000Y-117875000I-200000J0D01*
G01*
X95575000Y-117875000D01*
G75*
G02*
X95375000Y-117675000I0J200000D01*
G01*
X95375000Y-117125000D01*
G75*
G02*
X95575000Y-116925000I200000J0D01*
G01*
X95975000Y-116925000D01*
G75*
G02*
X96175000Y-117125000I0J-200000D01*
G01*
G37*
G36*
G01*
X97825000Y-117125000D02*
X97825000Y-117675000D01*
G75*
G02*
X97625000Y-117875000I-200000J0D01*
G01*
X97225000Y-117875000D01*
G75*
G02*
X97025000Y-117675000I0J200000D01*
G01*
X97025000Y-117125000D01*
G75*
G02*
X97225000Y-116925000I200000J0D01*
G01*
X97625000Y-116925000D01*
G75*
G02*
X97825000Y-117125000I0J-200000D01*
G01*
G37*
%TD*%
%TO.C,R39*%
G36*
G01*
X101225000Y-100925000D02*
X101775000Y-100925000D01*
G75*
G02*
X101975000Y-101125000I0J-200000D01*
G01*
X101975000Y-101525000D01*
G75*
G02*
X101775000Y-101725000I-200000J0D01*
G01*
X101225000Y-101725000D01*
G75*
G02*
X101025000Y-101525000I0J200000D01*
G01*
X101025000Y-101125000D01*
G75*
G02*
X101225000Y-100925000I200000J0D01*
G01*
G37*
G36*
G01*
X101225000Y-99275000D02*
X101775000Y-99275000D01*
G75*
G02*
X101975000Y-99475000I0J-200000D01*
G01*
X101975000Y-99875000D01*
G75*
G02*
X101775000Y-100075000I-200000J0D01*
G01*
X101225000Y-100075000D01*
G75*
G02*
X101025000Y-99875000I0J200000D01*
G01*
X101025000Y-99475000D01*
G75*
G02*
X101225000Y-99275000I200000J0D01*
G01*
G37*
%TD*%
%TO.C,R37*%
G36*
G01*
X103225000Y-100925000D02*
X103775000Y-100925000D01*
G75*
G02*
X103975000Y-101125000I0J-200000D01*
G01*
X103975000Y-101525000D01*
G75*
G02*
X103775000Y-101725000I-200000J0D01*
G01*
X103225000Y-101725000D01*
G75*
G02*
X103025000Y-101525000I0J200000D01*
G01*
X103025000Y-101125000D01*
G75*
G02*
X103225000Y-100925000I200000J0D01*
G01*
G37*
G36*
G01*
X103225000Y-99275000D02*
X103775000Y-99275000D01*
G75*
G02*
X103975000Y-99475000I0J-200000D01*
G01*
X103975000Y-99875000D01*
G75*
G02*
X103775000Y-100075000I-200000J0D01*
G01*
X103225000Y-100075000D01*
G75*
G02*
X103025000Y-99875000I0J200000D01*
G01*
X103025000Y-99475000D01*
G75*
G02*
X103225000Y-99275000I200000J0D01*
G01*
G37*
%TD*%
%TO.C,R27*%
G36*
G01*
X71225000Y-100925000D02*
X71775000Y-100925000D01*
G75*
G02*
X71975000Y-101125000I0J-200000D01*
G01*
X71975000Y-101525000D01*
G75*
G02*
X71775000Y-101725000I-200000J0D01*
G01*
X71225000Y-101725000D01*
G75*
G02*
X71025000Y-101525000I0J200000D01*
G01*
X71025000Y-101125000D01*
G75*
G02*
X71225000Y-100925000I200000J0D01*
G01*
G37*
G36*
G01*
X71225000Y-99275000D02*
X71775000Y-99275000D01*
G75*
G02*
X71975000Y-99475000I0J-200000D01*
G01*
X71975000Y-99875000D01*
G75*
G02*
X71775000Y-100075000I-200000J0D01*
G01*
X71225000Y-100075000D01*
G75*
G02*
X71025000Y-99875000I0J200000D01*
G01*
X71025000Y-99475000D01*
G75*
G02*
X71225000Y-99275000I200000J0D01*
G01*
G37*
%TD*%
%TO.C,R25*%
G36*
G01*
X73225000Y-100925000D02*
X73775000Y-100925000D01*
G75*
G02*
X73975000Y-101125000I0J-200000D01*
G01*
X73975000Y-101525000D01*
G75*
G02*
X73775000Y-101725000I-200000J0D01*
G01*
X73225000Y-101725000D01*
G75*
G02*
X73025000Y-101525000I0J200000D01*
G01*
X73025000Y-101125000D01*
G75*
G02*
X73225000Y-100925000I200000J0D01*
G01*
G37*
G36*
G01*
X73225000Y-99275000D02*
X73775000Y-99275000D01*
G75*
G02*
X73975000Y-99475000I0J-200000D01*
G01*
X73975000Y-99875000D01*
G75*
G02*
X73775000Y-100075000I-200000J0D01*
G01*
X73225000Y-100075000D01*
G75*
G02*
X73025000Y-99875000I0J200000D01*
G01*
X73025000Y-99475000D01*
G75*
G02*
X73225000Y-99275000I200000J0D01*
G01*
G37*
%TD*%
D11*
%TO.C,L3*%
X57400000Y-80250000D03*
X57400000Y-74750000D03*
%TD*%
%TO.C,L4*%
X66071428Y-74750000D03*
X66071428Y-80250000D03*
%TD*%
%TO.C,L5*%
X74742856Y-80250000D03*
X74742856Y-74750000D03*
%TD*%
%TO.C,L6*%
X83414284Y-80250000D03*
X83414284Y-74750000D03*
%TD*%
%TO.C,L7*%
X92085712Y-74750000D03*
X92085712Y-80250000D03*
%TD*%
%TO.C,L8*%
X100757140Y-80250000D03*
X100757140Y-74750000D03*
%TD*%
%TO.C,L9*%
X109428568Y-74750000D03*
X109428568Y-80250000D03*
%TD*%
%TO.C,L10*%
X118100000Y-74750000D03*
X118100000Y-80250000D03*
%TD*%
%TO.C,C92*%
G36*
G01*
X95150000Y-70825000D02*
X95650000Y-70825000D01*
G75*
G02*
X95875000Y-71050000I0J-225000D01*
G01*
X95875000Y-71500000D01*
G75*
G02*
X95650000Y-71725000I-225000J0D01*
G01*
X95150000Y-71725000D01*
G75*
G02*
X94925000Y-71500000I0J225000D01*
G01*
X94925000Y-71050000D01*
G75*
G02*
X95150000Y-70825000I225000J0D01*
G01*
G37*
G36*
G01*
X95150000Y-69275000D02*
X95650000Y-69275000D01*
G75*
G02*
X95875000Y-69500000I0J-225000D01*
G01*
X95875000Y-69950000D01*
G75*
G02*
X95650000Y-70175000I-225000J0D01*
G01*
X95150000Y-70175000D01*
G75*
G02*
X94925000Y-69950000I0J225000D01*
G01*
X94925000Y-69500000D01*
G75*
G02*
X95150000Y-69275000I225000J0D01*
G01*
G37*
%TD*%
%TO.C,C63*%
G36*
G01*
X61350000Y-70825000D02*
X61850000Y-70825000D01*
G75*
G02*
X62075000Y-71050000I0J-225000D01*
G01*
X62075000Y-71500000D01*
G75*
G02*
X61850000Y-71725000I-225000J0D01*
G01*
X61350000Y-71725000D01*
G75*
G02*
X61125000Y-71500000I0J225000D01*
G01*
X61125000Y-71050000D01*
G75*
G02*
X61350000Y-70825000I225000J0D01*
G01*
G37*
G36*
G01*
X61350000Y-69275000D02*
X61850000Y-69275000D01*
G75*
G02*
X62075000Y-69500000I0J-225000D01*
G01*
X62075000Y-69950000D01*
G75*
G02*
X61850000Y-70175000I-225000J0D01*
G01*
X61350000Y-70175000D01*
G75*
G02*
X61125000Y-69950000I0J225000D01*
G01*
X61125000Y-69500000D01*
G75*
G02*
X61350000Y-69275000I225000J0D01*
G01*
G37*
%TD*%
%TO.C,C10*%
G36*
G01*
X87250000Y-100825000D02*
X87750000Y-100825000D01*
G75*
G02*
X87975000Y-101050000I0J-225000D01*
G01*
X87975000Y-101500000D01*
G75*
G02*
X87750000Y-101725000I-225000J0D01*
G01*
X87250000Y-101725000D01*
G75*
G02*
X87025000Y-101500000I0J225000D01*
G01*
X87025000Y-101050000D01*
G75*
G02*
X87250000Y-100825000I225000J0D01*
G01*
G37*
G36*
G01*
X87250000Y-99275000D02*
X87750000Y-99275000D01*
G75*
G02*
X87975000Y-99500000I0J-225000D01*
G01*
X87975000Y-99950000D01*
G75*
G02*
X87750000Y-100175000I-225000J0D01*
G01*
X87250000Y-100175000D01*
G75*
G02*
X87025000Y-99950000I0J225000D01*
G01*
X87025000Y-99500000D01*
G75*
G02*
X87250000Y-99275000I225000J0D01*
G01*
G37*
%TD*%
%TO.C,C14*%
G36*
G01*
X63650000Y-114041666D02*
X64150000Y-114041666D01*
G75*
G02*
X64375000Y-114266666I0J-225000D01*
G01*
X64375000Y-114716666D01*
G75*
G02*
X64150000Y-114941666I-225000J0D01*
G01*
X63650000Y-114941666D01*
G75*
G02*
X63425000Y-114716666I0J225000D01*
G01*
X63425000Y-114266666D01*
G75*
G02*
X63650000Y-114041666I225000J0D01*
G01*
G37*
G36*
G01*
X63650000Y-112491666D02*
X64150000Y-112491666D01*
G75*
G02*
X64375000Y-112716666I0J-225000D01*
G01*
X64375000Y-113166666D01*
G75*
G02*
X64150000Y-113391666I-225000J0D01*
G01*
X63650000Y-113391666D01*
G75*
G02*
X63425000Y-113166666I0J225000D01*
G01*
X63425000Y-112716666D01*
G75*
G02*
X63650000Y-112491666I225000J0D01*
G01*
G37*
%TD*%
%TO.C,C15*%
G36*
G01*
X90375000Y-122650000D02*
X90375000Y-122150000D01*
G75*
G02*
X90600000Y-121925000I225000J0D01*
G01*
X91050000Y-121925000D01*
G75*
G02*
X91275000Y-122150000I0J-225000D01*
G01*
X91275000Y-122650000D01*
G75*
G02*
X91050000Y-122875000I-225000J0D01*
G01*
X90600000Y-122875000D01*
G75*
G02*
X90375000Y-122650000I0J225000D01*
G01*
G37*
G36*
G01*
X91925000Y-122650000D02*
X91925000Y-122150000D01*
G75*
G02*
X92150000Y-121925000I225000J0D01*
G01*
X92600000Y-121925000D01*
G75*
G02*
X92825000Y-122150000I0J-225000D01*
G01*
X92825000Y-122650000D01*
G75*
G02*
X92600000Y-122875000I-225000J0D01*
G01*
X92150000Y-122875000D01*
G75*
G02*
X91925000Y-122650000I0J225000D01*
G01*
G37*
%TD*%
%TO.C,C16*%
G36*
G01*
X91275000Y-116350000D02*
X91275000Y-116850000D01*
G75*
G02*
X91050000Y-117075000I-225000J0D01*
G01*
X90600000Y-117075000D01*
G75*
G02*
X90375000Y-116850000I0J225000D01*
G01*
X90375000Y-116350000D01*
G75*
G02*
X90600000Y-116125000I225000J0D01*
G01*
X91050000Y-116125000D01*
G75*
G02*
X91275000Y-116350000I0J-225000D01*
G01*
G37*
G36*
G01*
X92825000Y-116350000D02*
X92825000Y-116850000D01*
G75*
G02*
X92600000Y-117075000I-225000J0D01*
G01*
X92150000Y-117075000D01*
G75*
G02*
X91925000Y-116850000I0J225000D01*
G01*
X91925000Y-116350000D01*
G75*
G02*
X92150000Y-116125000I225000J0D01*
G01*
X92600000Y-116125000D01*
G75*
G02*
X92825000Y-116350000I0J-225000D01*
G01*
G37*
%TD*%
%TO.C,C17*%
G36*
G01*
X64150000Y-111475000D02*
X63650000Y-111475000D01*
G75*
G02*
X63425000Y-111250000I0J225000D01*
G01*
X63425000Y-110800000D01*
G75*
G02*
X63650000Y-110575000I225000J0D01*
G01*
X64150000Y-110575000D01*
G75*
G02*
X64375000Y-110800000I0J-225000D01*
G01*
X64375000Y-111250000D01*
G75*
G02*
X64150000Y-111475000I-225000J0D01*
G01*
G37*
G36*
G01*
X64150000Y-109925000D02*
X63650000Y-109925000D01*
G75*
G02*
X63425000Y-109700000I0J225000D01*
G01*
X63425000Y-109250000D01*
G75*
G02*
X63650000Y-109025000I225000J0D01*
G01*
X64150000Y-109025000D01*
G75*
G02*
X64375000Y-109250000I0J-225000D01*
G01*
X64375000Y-109700000D01*
G75*
G02*
X64150000Y-109925000I-225000J0D01*
G01*
G37*
%TD*%
%TO.C,C21*%
G36*
G01*
X92825000Y-111850000D02*
X92825000Y-112350000D01*
G75*
G02*
X92600000Y-112575000I-225000J0D01*
G01*
X92150000Y-112575000D01*
G75*
G02*
X91925000Y-112350000I0J225000D01*
G01*
X91925000Y-111850000D01*
G75*
G02*
X92150000Y-111625000I225000J0D01*
G01*
X92600000Y-111625000D01*
G75*
G02*
X92825000Y-111850000I0J-225000D01*
G01*
G37*
G36*
G01*
X91275000Y-111850000D02*
X91275000Y-112350000D01*
G75*
G02*
X91050000Y-112575000I-225000J0D01*
G01*
X90600000Y-112575000D01*
G75*
G02*
X90375000Y-112350000I0J225000D01*
G01*
X90375000Y-111850000D01*
G75*
G02*
X90600000Y-111625000I225000J0D01*
G01*
X91050000Y-111625000D01*
G75*
G02*
X91275000Y-111850000I0J-225000D01*
G01*
G37*
%TD*%
%TO.C,C22*%
G36*
G01*
X90375000Y-115350000D02*
X90375000Y-114850000D01*
G75*
G02*
X90600000Y-114625000I225000J0D01*
G01*
X91050000Y-114625000D01*
G75*
G02*
X91275000Y-114850000I0J-225000D01*
G01*
X91275000Y-115350000D01*
G75*
G02*
X91050000Y-115575000I-225000J0D01*
G01*
X90600000Y-115575000D01*
G75*
G02*
X90375000Y-115350000I0J225000D01*
G01*
G37*
G36*
G01*
X91925000Y-115350000D02*
X91925000Y-114850000D01*
G75*
G02*
X92150000Y-114625000I225000J0D01*
G01*
X92600000Y-114625000D01*
G75*
G02*
X92825000Y-114850000I0J-225000D01*
G01*
X92825000Y-115350000D01*
G75*
G02*
X92600000Y-115575000I-225000J0D01*
G01*
X92150000Y-115575000D01*
G75*
G02*
X91925000Y-115350000I0J225000D01*
G01*
G37*
%TD*%
%TO.C,C46*%
G36*
G01*
X69250000Y-99275000D02*
X69750000Y-99275000D01*
G75*
G02*
X69975000Y-99500000I0J-225000D01*
G01*
X69975000Y-99950000D01*
G75*
G02*
X69750000Y-100175000I-225000J0D01*
G01*
X69250000Y-100175000D01*
G75*
G02*
X69025000Y-99950000I0J225000D01*
G01*
X69025000Y-99500000D01*
G75*
G02*
X69250000Y-99275000I225000J0D01*
G01*
G37*
G36*
G01*
X69250000Y-100825000D02*
X69750000Y-100825000D01*
G75*
G02*
X69975000Y-101050000I0J-225000D01*
G01*
X69975000Y-101500000D01*
G75*
G02*
X69750000Y-101725000I-225000J0D01*
G01*
X69250000Y-101725000D01*
G75*
G02*
X69025000Y-101500000I0J225000D01*
G01*
X69025000Y-101050000D01*
G75*
G02*
X69250000Y-100825000I225000J0D01*
G01*
G37*
%TD*%
%TO.C,C47*%
G36*
G01*
X66675000Y-84250000D02*
X66675000Y-84750000D01*
G75*
G02*
X66450000Y-84975000I-225000J0D01*
G01*
X66000000Y-84975000D01*
G75*
G02*
X65775000Y-84750000I0J225000D01*
G01*
X65775000Y-84250000D01*
G75*
G02*
X66000000Y-84025000I225000J0D01*
G01*
X66450000Y-84025000D01*
G75*
G02*
X66675000Y-84250000I0J-225000D01*
G01*
G37*
G36*
G01*
X68225000Y-84250000D02*
X68225000Y-84750000D01*
G75*
G02*
X68000000Y-84975000I-225000J0D01*
G01*
X67550000Y-84975000D01*
G75*
G02*
X67325000Y-84750000I0J225000D01*
G01*
X67325000Y-84250000D01*
G75*
G02*
X67550000Y-84025000I225000J0D01*
G01*
X68000000Y-84025000D01*
G75*
G02*
X68225000Y-84250000I0J-225000D01*
G01*
G37*
%TD*%
%TO.C,C75*%
G36*
G01*
X99250000Y-99275000D02*
X99750000Y-99275000D01*
G75*
G02*
X99975000Y-99500000I0J-225000D01*
G01*
X99975000Y-99950000D01*
G75*
G02*
X99750000Y-100175000I-225000J0D01*
G01*
X99250000Y-100175000D01*
G75*
G02*
X99025000Y-99950000I0J225000D01*
G01*
X99025000Y-99500000D01*
G75*
G02*
X99250000Y-99275000I225000J0D01*
G01*
G37*
G36*
G01*
X99250000Y-100825000D02*
X99750000Y-100825000D01*
G75*
G02*
X99975000Y-101050000I0J-225000D01*
G01*
X99975000Y-101500000D01*
G75*
G02*
X99750000Y-101725000I-225000J0D01*
G01*
X99250000Y-101725000D01*
G75*
G02*
X99025000Y-101500000I0J225000D01*
G01*
X99025000Y-101050000D01*
G75*
G02*
X99250000Y-100825000I225000J0D01*
G01*
G37*
%TD*%
%TO.C,C76*%
G36*
G01*
X96675000Y-84250000D02*
X96675000Y-84750000D01*
G75*
G02*
X96450000Y-84975000I-225000J0D01*
G01*
X96000000Y-84975000D01*
G75*
G02*
X95775000Y-84750000I0J225000D01*
G01*
X95775000Y-84250000D01*
G75*
G02*
X96000000Y-84025000I225000J0D01*
G01*
X96450000Y-84025000D01*
G75*
G02*
X96675000Y-84250000I0J-225000D01*
G01*
G37*
G36*
G01*
X98225000Y-84250000D02*
X98225000Y-84750000D01*
G75*
G02*
X98000000Y-84975000I-225000J0D01*
G01*
X97550000Y-84975000D01*
G75*
G02*
X97325000Y-84750000I0J225000D01*
G01*
X97325000Y-84250000D01*
G75*
G02*
X97550000Y-84025000I225000J0D01*
G01*
X98000000Y-84025000D01*
G75*
G02*
X98225000Y-84250000I0J-225000D01*
G01*
G37*
%TD*%
%TO.C,C80*%
G36*
G01*
X94250000Y-87275000D02*
X94750000Y-87275000D01*
G75*
G02*
X94975000Y-87500000I0J-225000D01*
G01*
X94975000Y-87950000D01*
G75*
G02*
X94750000Y-88175000I-225000J0D01*
G01*
X94250000Y-88175000D01*
G75*
G02*
X94025000Y-87950000I0J225000D01*
G01*
X94025000Y-87500000D01*
G75*
G02*
X94250000Y-87275000I225000J0D01*
G01*
G37*
G36*
G01*
X94250000Y-88825000D02*
X94750000Y-88825000D01*
G75*
G02*
X94975000Y-89050000I0J-225000D01*
G01*
X94975000Y-89500000D01*
G75*
G02*
X94750000Y-89725000I-225000J0D01*
G01*
X94250000Y-89725000D01*
G75*
G02*
X94025000Y-89500000I0J225000D01*
G01*
X94025000Y-89050000D01*
G75*
G02*
X94250000Y-88825000I225000J0D01*
G01*
G37*
%TD*%
%TO.C,C82*%
G36*
G01*
X92750000Y-88825000D02*
X93250000Y-88825000D01*
G75*
G02*
X93475000Y-89050000I0J-225000D01*
G01*
X93475000Y-89500000D01*
G75*
G02*
X93250000Y-89725000I-225000J0D01*
G01*
X92750000Y-89725000D01*
G75*
G02*
X92525000Y-89500000I0J225000D01*
G01*
X92525000Y-89050000D01*
G75*
G02*
X92750000Y-88825000I225000J0D01*
G01*
G37*
G36*
G01*
X92750000Y-87275000D02*
X93250000Y-87275000D01*
G75*
G02*
X93475000Y-87500000I0J-225000D01*
G01*
X93475000Y-87950000D01*
G75*
G02*
X93250000Y-88175000I-225000J0D01*
G01*
X92750000Y-88175000D01*
G75*
G02*
X92525000Y-87950000I0J225000D01*
G01*
X92525000Y-87500000D01*
G75*
G02*
X92750000Y-87275000I225000J0D01*
G01*
G37*
%TD*%
%TO.C,F1*%
G36*
G01*
X125125000Y-83625000D02*
X123875000Y-83625000D01*
G75*
G02*
X123625000Y-83375000I0J250000D01*
G01*
X123625000Y-82625000D01*
G75*
G02*
X123875000Y-82375000I250000J0D01*
G01*
X125125000Y-82375000D01*
G75*
G02*
X125375000Y-82625000I0J-250000D01*
G01*
X125375000Y-83375000D01*
G75*
G02*
X125125000Y-83625000I-250000J0D01*
G01*
G37*
G36*
G01*
X125125000Y-80825000D02*
X123875000Y-80825000D01*
G75*
G02*
X123625000Y-80575000I0J250000D01*
G01*
X123625000Y-79825000D01*
G75*
G02*
X123875000Y-79575000I250000J0D01*
G01*
X125125000Y-79575000D01*
G75*
G02*
X125375000Y-79825000I0J-250000D01*
G01*
X125375000Y-80575000D01*
G75*
G02*
X125125000Y-80825000I-250000J0D01*
G01*
G37*
%TD*%
%TO.C,L1*%
G36*
G01*
X124118750Y-84800000D02*
X124881250Y-84800000D01*
G75*
G02*
X125100000Y-85018750I0J-218750D01*
G01*
X125100000Y-85456250D01*
G75*
G02*
X124881250Y-85675000I-218750J0D01*
G01*
X124118750Y-85675000D01*
G75*
G02*
X123900000Y-85456250I0J218750D01*
G01*
X123900000Y-85018750D01*
G75*
G02*
X124118750Y-84800000I218750J0D01*
G01*
G37*
G36*
G01*
X124118750Y-86925000D02*
X124881250Y-86925000D01*
G75*
G02*
X125100000Y-87143750I0J-218750D01*
G01*
X125100000Y-87581250D01*
G75*
G02*
X124881250Y-87800000I-218750J0D01*
G01*
X124118750Y-87800000D01*
G75*
G02*
X123900000Y-87581250I0J218750D01*
G01*
X123900000Y-87143750D01*
G75*
G02*
X124118750Y-86925000I218750J0D01*
G01*
G37*
%TD*%
%TO.C,R5*%
G36*
G01*
X64725000Y-123625000D02*
X65275000Y-123625000D01*
G75*
G02*
X65475000Y-123825000I0J-200000D01*
G01*
X65475000Y-124225000D01*
G75*
G02*
X65275000Y-124425000I-200000J0D01*
G01*
X64725000Y-124425000D01*
G75*
G02*
X64525000Y-124225000I0J200000D01*
G01*
X64525000Y-123825000D01*
G75*
G02*
X64725000Y-123625000I200000J0D01*
G01*
G37*
G36*
G01*
X64725000Y-121975000D02*
X65275000Y-121975000D01*
G75*
G02*
X65475000Y-122175000I0J-200000D01*
G01*
X65475000Y-122575000D01*
G75*
G02*
X65275000Y-122775000I-200000J0D01*
G01*
X64725000Y-122775000D01*
G75*
G02*
X64525000Y-122575000I0J200000D01*
G01*
X64525000Y-122175000D01*
G75*
G02*
X64725000Y-121975000I200000J0D01*
G01*
G37*
%TD*%
%TO.C,R6*%
G36*
G01*
X66225000Y-121975000D02*
X66775000Y-121975000D01*
G75*
G02*
X66975000Y-122175000I0J-200000D01*
G01*
X66975000Y-122575000D01*
G75*
G02*
X66775000Y-122775000I-200000J0D01*
G01*
X66225000Y-122775000D01*
G75*
G02*
X66025000Y-122575000I0J200000D01*
G01*
X66025000Y-122175000D01*
G75*
G02*
X66225000Y-121975000I200000J0D01*
G01*
G37*
G36*
G01*
X66225000Y-123625000D02*
X66775000Y-123625000D01*
G75*
G02*
X66975000Y-123825000I0J-200000D01*
G01*
X66975000Y-124225000D01*
G75*
G02*
X66775000Y-124425000I-200000J0D01*
G01*
X66225000Y-124425000D01*
G75*
G02*
X66025000Y-124225000I0J200000D01*
G01*
X66025000Y-123825000D01*
G75*
G02*
X66225000Y-123625000I200000J0D01*
G01*
G37*
%TD*%
%TO.C,R7*%
G36*
G01*
X85225000Y-99275000D02*
X85775000Y-99275000D01*
G75*
G02*
X85975000Y-99475000I0J-200000D01*
G01*
X85975000Y-99875000D01*
G75*
G02*
X85775000Y-100075000I-200000J0D01*
G01*
X85225000Y-100075000D01*
G75*
G02*
X85025000Y-99875000I0J200000D01*
G01*
X85025000Y-99475000D01*
G75*
G02*
X85225000Y-99275000I200000J0D01*
G01*
G37*
G36*
G01*
X85225000Y-100925000D02*
X85775000Y-100925000D01*
G75*
G02*
X85975000Y-101125000I0J-200000D01*
G01*
X85975000Y-101525000D01*
G75*
G02*
X85775000Y-101725000I-200000J0D01*
G01*
X85225000Y-101725000D01*
G75*
G02*
X85025000Y-101525000I0J200000D01*
G01*
X85025000Y-101125000D01*
G75*
G02*
X85225000Y-100925000I200000J0D01*
G01*
G37*
%TD*%
%TO.C,R8*%
G36*
G01*
X62125000Y-114141666D02*
X62675000Y-114141666D01*
G75*
G02*
X62875000Y-114341666I0J-200000D01*
G01*
X62875000Y-114741666D01*
G75*
G02*
X62675000Y-114941666I-200000J0D01*
G01*
X62125000Y-114941666D01*
G75*
G02*
X61925000Y-114741666I0J200000D01*
G01*
X61925000Y-114341666D01*
G75*
G02*
X62125000Y-114141666I200000J0D01*
G01*
G37*
G36*
G01*
X62125000Y-112491666D02*
X62675000Y-112491666D01*
G75*
G02*
X62875000Y-112691666I0J-200000D01*
G01*
X62875000Y-113091666D01*
G75*
G02*
X62675000Y-113291666I-200000J0D01*
G01*
X62125000Y-113291666D01*
G75*
G02*
X61925000Y-113091666I0J200000D01*
G01*
X61925000Y-112691666D01*
G75*
G02*
X62125000Y-112491666I200000J0D01*
G01*
G37*
%TD*%
%TO.C,R9*%
G36*
G01*
X62675000Y-111475000D02*
X62125000Y-111475000D01*
G75*
G02*
X61925000Y-111275000I0J200000D01*
G01*
X61925000Y-110875000D01*
G75*
G02*
X62125000Y-110675000I200000J0D01*
G01*
X62675000Y-110675000D01*
G75*
G02*
X62875000Y-110875000I0J-200000D01*
G01*
X62875000Y-111275000D01*
G75*
G02*
X62675000Y-111475000I-200000J0D01*
G01*
G37*
G36*
G01*
X62675000Y-109825000D02*
X62125000Y-109825000D01*
G75*
G02*
X61925000Y-109625000I0J200000D01*
G01*
X61925000Y-109225000D01*
G75*
G02*
X62125000Y-109025000I200000J0D01*
G01*
X62675000Y-109025000D01*
G75*
G02*
X62875000Y-109225000I0J-200000D01*
G01*
X62875000Y-109625000D01*
G75*
G02*
X62675000Y-109825000I-200000J0D01*
G01*
G37*
%TD*%
%TO.C,R10*%
G36*
G01*
X88825000Y-118275000D02*
X89375000Y-118275000D01*
G75*
G02*
X89575000Y-118475000I0J-200000D01*
G01*
X89575000Y-118875000D01*
G75*
G02*
X89375000Y-119075000I-200000J0D01*
G01*
X88825000Y-119075000D01*
G75*
G02*
X88625000Y-118875000I0J200000D01*
G01*
X88625000Y-118475000D01*
G75*
G02*
X88825000Y-118275000I200000J0D01*
G01*
G37*
G36*
G01*
X88825000Y-119925000D02*
X89375000Y-119925000D01*
G75*
G02*
X89575000Y-120125000I0J-200000D01*
G01*
X89575000Y-120525000D01*
G75*
G02*
X89375000Y-120725000I-200000J0D01*
G01*
X88825000Y-120725000D01*
G75*
G02*
X88625000Y-120525000I0J200000D01*
G01*
X88625000Y-120125000D01*
G75*
G02*
X88825000Y-119925000I200000J0D01*
G01*
G37*
%TD*%
%TO.C,R12*%
G36*
G01*
X96175000Y-118625000D02*
X96175000Y-119175000D01*
G75*
G02*
X95975000Y-119375000I-200000J0D01*
G01*
X95575000Y-119375000D01*
G75*
G02*
X95375000Y-119175000I0J200000D01*
G01*
X95375000Y-118625000D01*
G75*
G02*
X95575000Y-118425000I200000J0D01*
G01*
X95975000Y-118425000D01*
G75*
G02*
X96175000Y-118625000I0J-200000D01*
G01*
G37*
G36*
G01*
X97825000Y-118625000D02*
X97825000Y-119175000D01*
G75*
G02*
X97625000Y-119375000I-200000J0D01*
G01*
X97225000Y-119375000D01*
G75*
G02*
X97025000Y-119175000I0J200000D01*
G01*
X97025000Y-118625000D01*
G75*
G02*
X97225000Y-118425000I200000J0D01*
G01*
X97625000Y-118425000D01*
G75*
G02*
X97825000Y-118625000I0J-200000D01*
G01*
G37*
%TD*%
%TO.C,R14*%
G36*
G01*
X71175000Y-118675000D02*
X71175000Y-118125000D01*
G75*
G02*
X71375000Y-117925000I200000J0D01*
G01*
X71775000Y-117925000D01*
G75*
G02*
X71975000Y-118125000I0J-200000D01*
G01*
X71975000Y-118675000D01*
G75*
G02*
X71775000Y-118875000I-200000J0D01*
G01*
X71375000Y-118875000D01*
G75*
G02*
X71175000Y-118675000I0J200000D01*
G01*
G37*
G36*
G01*
X72825000Y-118675000D02*
X72825000Y-118125000D01*
G75*
G02*
X73025000Y-117925000I200000J0D01*
G01*
X73425000Y-117925000D01*
G75*
G02*
X73625000Y-118125000I0J-200000D01*
G01*
X73625000Y-118675000D01*
G75*
G02*
X73425000Y-118875000I-200000J0D01*
G01*
X73025000Y-118875000D01*
G75*
G02*
X72825000Y-118675000I0J200000D01*
G01*
G37*
%TD*%
%TO.C,R16*%
G36*
G01*
X82325000Y-127825000D02*
X82875000Y-127825000D01*
G75*
G02*
X83075000Y-128025000I0J-200000D01*
G01*
X83075000Y-128425000D01*
G75*
G02*
X82875000Y-128625000I-200000J0D01*
G01*
X82325000Y-128625000D01*
G75*
G02*
X82125000Y-128425000I0J200000D01*
G01*
X82125000Y-128025000D01*
G75*
G02*
X82325000Y-127825000I200000J0D01*
G01*
G37*
G36*
G01*
X82325000Y-126175000D02*
X82875000Y-126175000D01*
G75*
G02*
X83075000Y-126375000I0J-200000D01*
G01*
X83075000Y-126775000D01*
G75*
G02*
X82875000Y-126975000I-200000J0D01*
G01*
X82325000Y-126975000D01*
G75*
G02*
X82125000Y-126775000I0J200000D01*
G01*
X82125000Y-126375000D01*
G75*
G02*
X82325000Y-126175000I200000J0D01*
G01*
G37*
%TD*%
%TO.C,R17*%
G36*
G01*
X71175000Y-121975000D02*
X71175000Y-121425000D01*
G75*
G02*
X71375000Y-121225000I200000J0D01*
G01*
X71775000Y-121225000D01*
G75*
G02*
X71975000Y-121425000I0J-200000D01*
G01*
X71975000Y-121975000D01*
G75*
G02*
X71775000Y-122175000I-200000J0D01*
G01*
X71375000Y-122175000D01*
G75*
G02*
X71175000Y-121975000I0J200000D01*
G01*
G37*
G36*
G01*
X72825000Y-121975000D02*
X72825000Y-121425000D01*
G75*
G02*
X73025000Y-121225000I200000J0D01*
G01*
X73425000Y-121225000D01*
G75*
G02*
X73625000Y-121425000I0J-200000D01*
G01*
X73625000Y-121975000D01*
G75*
G02*
X73425000Y-122175000I-200000J0D01*
G01*
X73025000Y-122175000D01*
G75*
G02*
X72825000Y-121975000I0J200000D01*
G01*
G37*
%TD*%
%TO.C,R18*%
G36*
G01*
X91175000Y-110325000D02*
X91175000Y-110875000D01*
G75*
G02*
X90975000Y-111075000I-200000J0D01*
G01*
X90575000Y-111075000D01*
G75*
G02*
X90375000Y-110875000I0J200000D01*
G01*
X90375000Y-110325000D01*
G75*
G02*
X90575000Y-110125000I200000J0D01*
G01*
X90975000Y-110125000D01*
G75*
G02*
X91175000Y-110325000I0J-200000D01*
G01*
G37*
G36*
G01*
X92825000Y-110325000D02*
X92825000Y-110875000D01*
G75*
G02*
X92625000Y-111075000I-200000J0D01*
G01*
X92225000Y-111075000D01*
G75*
G02*
X92025000Y-110875000I0J200000D01*
G01*
X92025000Y-110325000D01*
G75*
G02*
X92225000Y-110125000I200000J0D01*
G01*
X92625000Y-110125000D01*
G75*
G02*
X92825000Y-110325000I0J-200000D01*
G01*
G37*
%TD*%
%TO.C,R15*%
G36*
G01*
X99675000Y-117675000D02*
X99675000Y-117125000D01*
G75*
G02*
X99875000Y-116925000I200000J0D01*
G01*
X100275000Y-116925000D01*
G75*
G02*
X100475000Y-117125000I0J-200000D01*
G01*
X100475000Y-117675000D01*
G75*
G02*
X100275000Y-117875000I-200000J0D01*
G01*
X99875000Y-117875000D01*
G75*
G02*
X99675000Y-117675000I0J200000D01*
G01*
G37*
G36*
G01*
X101325000Y-117675000D02*
X101325000Y-117125000D01*
G75*
G02*
X101525000Y-116925000I200000J0D01*
G01*
X101925000Y-116925000D01*
G75*
G02*
X102125000Y-117125000I0J-200000D01*
G01*
X102125000Y-117675000D01*
G75*
G02*
X101925000Y-117875000I-200000J0D01*
G01*
X101525000Y-117875000D01*
G75*
G02*
X101325000Y-117675000I0J200000D01*
G01*
G37*
%TD*%
%TO.C,R20*%
G36*
G01*
X77825000Y-127825000D02*
X78375000Y-127825000D01*
G75*
G02*
X78575000Y-128025000I0J-200000D01*
G01*
X78575000Y-128425000D01*
G75*
G02*
X78375000Y-128625000I-200000J0D01*
G01*
X77825000Y-128625000D01*
G75*
G02*
X77625000Y-128425000I0J200000D01*
G01*
X77625000Y-128025000D01*
G75*
G02*
X77825000Y-127825000I200000J0D01*
G01*
G37*
G36*
G01*
X77825000Y-126175000D02*
X78375000Y-126175000D01*
G75*
G02*
X78575000Y-126375000I0J-200000D01*
G01*
X78575000Y-126775000D01*
G75*
G02*
X78375000Y-126975000I-200000J0D01*
G01*
X77825000Y-126975000D01*
G75*
G02*
X77625000Y-126775000I0J200000D01*
G01*
X77625000Y-126375000D01*
G75*
G02*
X77825000Y-126175000I200000J0D01*
G01*
G37*
%TD*%
%TO.C,R28*%
G36*
G01*
X83225000Y-100925000D02*
X83775000Y-100925000D01*
G75*
G02*
X83975000Y-101125000I0J-200000D01*
G01*
X83975000Y-101525000D01*
G75*
G02*
X83775000Y-101725000I-200000J0D01*
G01*
X83225000Y-101725000D01*
G75*
G02*
X83025000Y-101525000I0J200000D01*
G01*
X83025000Y-101125000D01*
G75*
G02*
X83225000Y-100925000I200000J0D01*
G01*
G37*
G36*
G01*
X83225000Y-99275000D02*
X83775000Y-99275000D01*
G75*
G02*
X83975000Y-99475000I0J-200000D01*
G01*
X83975000Y-99875000D01*
G75*
G02*
X83775000Y-100075000I-200000J0D01*
G01*
X83225000Y-100075000D01*
G75*
G02*
X83025000Y-99875000I0J200000D01*
G01*
X83025000Y-99475000D01*
G75*
G02*
X83225000Y-99275000I200000J0D01*
G01*
G37*
%TD*%
%TO.C,R29*%
G36*
G01*
X59575000Y-68275000D02*
X59575000Y-67725000D01*
G75*
G02*
X59775000Y-67525000I200000J0D01*
G01*
X60175000Y-67525000D01*
G75*
G02*
X60375000Y-67725000I0J-200000D01*
G01*
X60375000Y-68275000D01*
G75*
G02*
X60175000Y-68475000I-200000J0D01*
G01*
X59775000Y-68475000D01*
G75*
G02*
X59575000Y-68275000I0J200000D01*
G01*
G37*
G36*
G01*
X61225000Y-68275000D02*
X61225000Y-67725000D01*
G75*
G02*
X61425000Y-67525000I200000J0D01*
G01*
X61825000Y-67525000D01*
G75*
G02*
X62025000Y-67725000I0J-200000D01*
G01*
X62025000Y-68275000D01*
G75*
G02*
X61825000Y-68475000I-200000J0D01*
G01*
X61425000Y-68475000D01*
G75*
G02*
X61225000Y-68275000I0J200000D01*
G01*
G37*
%TD*%
%TO.C,R30*%
G36*
G01*
X65225000Y-67725000D02*
X65225000Y-68275000D01*
G75*
G02*
X65025000Y-68475000I-200000J0D01*
G01*
X64625000Y-68475000D01*
G75*
G02*
X64425000Y-68275000I0J200000D01*
G01*
X64425000Y-67725000D01*
G75*
G02*
X64625000Y-67525000I200000J0D01*
G01*
X65025000Y-67525000D01*
G75*
G02*
X65225000Y-67725000I0J-200000D01*
G01*
G37*
G36*
G01*
X63575000Y-67725000D02*
X63575000Y-68275000D01*
G75*
G02*
X63375000Y-68475000I-200000J0D01*
G01*
X62975000Y-68475000D01*
G75*
G02*
X62775000Y-68275000I0J200000D01*
G01*
X62775000Y-67725000D01*
G75*
G02*
X62975000Y-67525000I200000J0D01*
G01*
X63375000Y-67525000D01*
G75*
G02*
X63575000Y-67725000I0J-200000D01*
G01*
G37*
%TD*%
%TO.C,R31*%
G36*
G01*
X78125000Y-68275000D02*
X78125000Y-67725000D01*
G75*
G02*
X78325000Y-67525000I200000J0D01*
G01*
X78725000Y-67525000D01*
G75*
G02*
X78925000Y-67725000I0J-200000D01*
G01*
X78925000Y-68275000D01*
G75*
G02*
X78725000Y-68475000I-200000J0D01*
G01*
X78325000Y-68475000D01*
G75*
G02*
X78125000Y-68275000I0J200000D01*
G01*
G37*
G36*
G01*
X76475000Y-68275000D02*
X76475000Y-67725000D01*
G75*
G02*
X76675000Y-67525000I200000J0D01*
G01*
X77075000Y-67525000D01*
G75*
G02*
X77275000Y-67725000I0J-200000D01*
G01*
X77275000Y-68275000D01*
G75*
G02*
X77075000Y-68475000I-200000J0D01*
G01*
X76675000Y-68475000D01*
G75*
G02*
X76475000Y-68275000I0J200000D01*
G01*
G37*
%TD*%
%TO.C,R32*%
G36*
G01*
X80475000Y-67725000D02*
X80475000Y-68275000D01*
G75*
G02*
X80275000Y-68475000I-200000J0D01*
G01*
X79875000Y-68475000D01*
G75*
G02*
X79675000Y-68275000I0J200000D01*
G01*
X79675000Y-67725000D01*
G75*
G02*
X79875000Y-67525000I200000J0D01*
G01*
X80275000Y-67525000D01*
G75*
G02*
X80475000Y-67725000I0J-200000D01*
G01*
G37*
G36*
G01*
X82125000Y-67725000D02*
X82125000Y-68275000D01*
G75*
G02*
X81925000Y-68475000I-200000J0D01*
G01*
X81525000Y-68475000D01*
G75*
G02*
X81325000Y-68275000I0J200000D01*
G01*
X81325000Y-67725000D01*
G75*
G02*
X81525000Y-67525000I200000J0D01*
G01*
X81925000Y-67525000D01*
G75*
G02*
X82125000Y-67725000I0J-200000D01*
G01*
G37*
%TD*%
%TO.C,R40*%
G36*
G01*
X113225000Y-100925000D02*
X113775000Y-100925000D01*
G75*
G02*
X113975000Y-101125000I0J-200000D01*
G01*
X113975000Y-101525000D01*
G75*
G02*
X113775000Y-101725000I-200000J0D01*
G01*
X113225000Y-101725000D01*
G75*
G02*
X113025000Y-101525000I0J200000D01*
G01*
X113025000Y-101125000D01*
G75*
G02*
X113225000Y-100925000I200000J0D01*
G01*
G37*
G36*
G01*
X113225000Y-99275000D02*
X113775000Y-99275000D01*
G75*
G02*
X113975000Y-99475000I0J-200000D01*
G01*
X113975000Y-99875000D01*
G75*
G02*
X113775000Y-100075000I-200000J0D01*
G01*
X113225000Y-100075000D01*
G75*
G02*
X113025000Y-99875000I0J200000D01*
G01*
X113025000Y-99475000D01*
G75*
G02*
X113225000Y-99275000I200000J0D01*
G01*
G37*
%TD*%
%TO.C,R41*%
G36*
G01*
X93375000Y-68375000D02*
X93375000Y-67825000D01*
G75*
G02*
X93575000Y-67625000I200000J0D01*
G01*
X93975000Y-67625000D01*
G75*
G02*
X94175000Y-67825000I0J-200000D01*
G01*
X94175000Y-68375000D01*
G75*
G02*
X93975000Y-68575000I-200000J0D01*
G01*
X93575000Y-68575000D01*
G75*
G02*
X93375000Y-68375000I0J200000D01*
G01*
G37*
G36*
G01*
X95025000Y-68375000D02*
X95025000Y-67825000D01*
G75*
G02*
X95225000Y-67625000I200000J0D01*
G01*
X95625000Y-67625000D01*
G75*
G02*
X95825000Y-67825000I0J-200000D01*
G01*
X95825000Y-68375000D01*
G75*
G02*
X95625000Y-68575000I-200000J0D01*
G01*
X95225000Y-68575000D01*
G75*
G02*
X95025000Y-68375000I0J200000D01*
G01*
G37*
%TD*%
%TO.C,R42*%
G36*
G01*
X97375000Y-67825000D02*
X97375000Y-68375000D01*
G75*
G02*
X97175000Y-68575000I-200000J0D01*
G01*
X96775000Y-68575000D01*
G75*
G02*
X96575000Y-68375000I0J200000D01*
G01*
X96575000Y-67825000D01*
G75*
G02*
X96775000Y-67625000I200000J0D01*
G01*
X97175000Y-67625000D01*
G75*
G02*
X97375000Y-67825000I0J-200000D01*
G01*
G37*
G36*
G01*
X99025000Y-67825000D02*
X99025000Y-68375000D01*
G75*
G02*
X98825000Y-68575000I-200000J0D01*
G01*
X98425000Y-68575000D01*
G75*
G02*
X98225000Y-68375000I0J200000D01*
G01*
X98225000Y-67825000D01*
G75*
G02*
X98425000Y-67625000I200000J0D01*
G01*
X98825000Y-67625000D01*
G75*
G02*
X99025000Y-67825000I0J-200000D01*
G01*
G37*
%TD*%
%TO.C,R43*%
G36*
G01*
X111925000Y-68275000D02*
X111925000Y-67725000D01*
G75*
G02*
X112125000Y-67525000I200000J0D01*
G01*
X112525000Y-67525000D01*
G75*
G02*
X112725000Y-67725000I0J-200000D01*
G01*
X112725000Y-68275000D01*
G75*
G02*
X112525000Y-68475000I-200000J0D01*
G01*
X112125000Y-68475000D01*
G75*
G02*
X111925000Y-68275000I0J200000D01*
G01*
G37*
G36*
G01*
X110275000Y-68275000D02*
X110275000Y-67725000D01*
G75*
G02*
X110475000Y-67525000I200000J0D01*
G01*
X110875000Y-67525000D01*
G75*
G02*
X111075000Y-67725000I0J-200000D01*
G01*
X111075000Y-68275000D01*
G75*
G02*
X110875000Y-68475000I-200000J0D01*
G01*
X110475000Y-68475000D01*
G75*
G02*
X110275000Y-68275000I0J200000D01*
G01*
G37*
%TD*%
%TO.C,R44*%
G36*
G01*
X115925000Y-67725000D02*
X115925000Y-68275000D01*
G75*
G02*
X115725000Y-68475000I-200000J0D01*
G01*
X115325000Y-68475000D01*
G75*
G02*
X115125000Y-68275000I0J200000D01*
G01*
X115125000Y-67725000D01*
G75*
G02*
X115325000Y-67525000I200000J0D01*
G01*
X115725000Y-67525000D01*
G75*
G02*
X115925000Y-67725000I0J-200000D01*
G01*
G37*
G36*
G01*
X114275000Y-67725000D02*
X114275000Y-68275000D01*
G75*
G02*
X114075000Y-68475000I-200000J0D01*
G01*
X113675000Y-68475000D01*
G75*
G02*
X113475000Y-68275000I0J200000D01*
G01*
X113475000Y-67725000D01*
G75*
G02*
X113675000Y-67525000I200000J0D01*
G01*
X114075000Y-67525000D01*
G75*
G02*
X114275000Y-67725000I0J-200000D01*
G01*
G37*
%TD*%
D13*
%TO.C,U2*%
X112540000Y-117593480D03*
D14*
X112540000Y-123893480D03*
X114840000Y-123893480D03*
X110240000Y-123893480D03*
%TD*%
%TO.C,U3*%
G36*
G01*
X101155000Y-108950000D02*
X101455000Y-108950000D01*
G75*
G02*
X101605000Y-109100000I0J-150000D01*
G01*
X101605000Y-110750000D01*
G75*
G02*
X101455000Y-110900000I-150000J0D01*
G01*
X101155000Y-110900000D01*
G75*
G02*
X101005000Y-110750000I0J150000D01*
G01*
X101005000Y-109100000D01*
G75*
G02*
X101155000Y-108950000I150000J0D01*
G01*
G37*
G36*
G01*
X99885000Y-108950000D02*
X100185000Y-108950000D01*
G75*
G02*
X100335000Y-109100000I0J-150000D01*
G01*
X100335000Y-110750000D01*
G75*
G02*
X100185000Y-110900000I-150000J0D01*
G01*
X99885000Y-110900000D01*
G75*
G02*
X99735000Y-110750000I0J150000D01*
G01*
X99735000Y-109100000D01*
G75*
G02*
X99885000Y-108950000I150000J0D01*
G01*
G37*
G36*
G01*
X98615000Y-108950000D02*
X98915000Y-108950000D01*
G75*
G02*
X99065000Y-109100000I0J-150000D01*
G01*
X99065000Y-110750000D01*
G75*
G02*
X98915000Y-110900000I-150000J0D01*
G01*
X98615000Y-110900000D01*
G75*
G02*
X98465000Y-110750000I0J150000D01*
G01*
X98465000Y-109100000D01*
G75*
G02*
X98615000Y-108950000I150000J0D01*
G01*
G37*
G36*
G01*
X97345000Y-108950000D02*
X97645000Y-108950000D01*
G75*
G02*
X97795000Y-109100000I0J-150000D01*
G01*
X97795000Y-110750000D01*
G75*
G02*
X97645000Y-110900000I-150000J0D01*
G01*
X97345000Y-110900000D01*
G75*
G02*
X97195000Y-110750000I0J150000D01*
G01*
X97195000Y-109100000D01*
G75*
G02*
X97345000Y-108950000I150000J0D01*
G01*
G37*
G36*
G01*
X97345000Y-113900000D02*
X97645000Y-113900000D01*
G75*
G02*
X97795000Y-114050000I0J-150000D01*
G01*
X97795000Y-115700000D01*
G75*
G02*
X97645000Y-115850000I-150000J0D01*
G01*
X97345000Y-115850000D01*
G75*
G02*
X97195000Y-115700000I0J150000D01*
G01*
X97195000Y-114050000D01*
G75*
G02*
X97345000Y-113900000I150000J0D01*
G01*
G37*
G36*
G01*
X98615000Y-113900000D02*
X98915000Y-113900000D01*
G75*
G02*
X99065000Y-114050000I0J-150000D01*
G01*
X99065000Y-115700000D01*
G75*
G02*
X98915000Y-115850000I-150000J0D01*
G01*
X98615000Y-115850000D01*
G75*
G02*
X98465000Y-115700000I0J150000D01*
G01*
X98465000Y-114050000D01*
G75*
G02*
X98615000Y-113900000I150000J0D01*
G01*
G37*
G36*
G01*
X99885000Y-113900000D02*
X100185000Y-113900000D01*
G75*
G02*
X100335000Y-114050000I0J-150000D01*
G01*
X100335000Y-115700000D01*
G75*
G02*
X100185000Y-115850000I-150000J0D01*
G01*
X99885000Y-115850000D01*
G75*
G02*
X99735000Y-115700000I0J150000D01*
G01*
X99735000Y-114050000D01*
G75*
G02*
X99885000Y-113900000I150000J0D01*
G01*
G37*
G36*
G01*
X101155000Y-113900000D02*
X101455000Y-113900000D01*
G75*
G02*
X101605000Y-114050000I0J-150000D01*
G01*
X101605000Y-115700000D01*
G75*
G02*
X101455000Y-115850000I-150000J0D01*
G01*
X101155000Y-115850000D01*
G75*
G02*
X101005000Y-115700000I0J150000D01*
G01*
X101005000Y-114050000D01*
G75*
G02*
X101155000Y-113900000I150000J0D01*
G01*
G37*
%TD*%
%TO.C,U4*%
G36*
G01*
X76200000Y-115925000D02*
X76200000Y-115775000D01*
G75*
G02*
X76275000Y-115700000I75000J0D01*
G01*
X77600000Y-115700000D01*
G75*
G02*
X77675000Y-115775000I0J-75000D01*
G01*
X77675000Y-115925000D01*
G75*
G02*
X77600000Y-116000000I-75000J0D01*
G01*
X76275000Y-116000000D01*
G75*
G02*
X76200000Y-115925000I0J75000D01*
G01*
G37*
G36*
G01*
X76200000Y-116425000D02*
X76200000Y-116275000D01*
G75*
G02*
X76275000Y-116200000I75000J0D01*
G01*
X77600000Y-116200000D01*
G75*
G02*
X77675000Y-116275000I0J-75000D01*
G01*
X77675000Y-116425000D01*
G75*
G02*
X77600000Y-116500000I-75000J0D01*
G01*
X76275000Y-116500000D01*
G75*
G02*
X76200000Y-116425000I0J75000D01*
G01*
G37*
G36*
G01*
X76200000Y-116925000D02*
X76200000Y-116775000D01*
G75*
G02*
X76275000Y-116700000I75000J0D01*
G01*
X77600000Y-116700000D01*
G75*
G02*
X77675000Y-116775000I0J-75000D01*
G01*
X77675000Y-116925000D01*
G75*
G02*
X77600000Y-117000000I-75000J0D01*
G01*
X76275000Y-117000000D01*
G75*
G02*
X76200000Y-116925000I0J75000D01*
G01*
G37*
G36*
G01*
X76200000Y-117425000D02*
X76200000Y-117275000D01*
G75*
G02*
X76275000Y-117200000I75000J0D01*
G01*
X77600000Y-117200000D01*
G75*
G02*
X77675000Y-117275000I0J-75000D01*
G01*
X77675000Y-117425000D01*
G75*
G02*
X77600000Y-117500000I-75000J0D01*
G01*
X76275000Y-117500000D01*
G75*
G02*
X76200000Y-117425000I0J75000D01*
G01*
G37*
G36*
G01*
X76200000Y-117925000D02*
X76200000Y-117775000D01*
G75*
G02*
X76275000Y-117700000I75000J0D01*
G01*
X77600000Y-117700000D01*
G75*
G02*
X77675000Y-117775000I0J-75000D01*
G01*
X77675000Y-117925000D01*
G75*
G02*
X77600000Y-118000000I-75000J0D01*
G01*
X76275000Y-118000000D01*
G75*
G02*
X76200000Y-117925000I0J75000D01*
G01*
G37*
G36*
G01*
X76200000Y-118425000D02*
X76200000Y-118275000D01*
G75*
G02*
X76275000Y-118200000I75000J0D01*
G01*
X77600000Y-118200000D01*
G75*
G02*
X77675000Y-118275000I0J-75000D01*
G01*
X77675000Y-118425000D01*
G75*
G02*
X77600000Y-118500000I-75000J0D01*
G01*
X76275000Y-118500000D01*
G75*
G02*
X76200000Y-118425000I0J75000D01*
G01*
G37*
G36*
G01*
X76200000Y-118925000D02*
X76200000Y-118775000D01*
G75*
G02*
X76275000Y-118700000I75000J0D01*
G01*
X77600000Y-118700000D01*
G75*
G02*
X77675000Y-118775000I0J-75000D01*
G01*
X77675000Y-118925000D01*
G75*
G02*
X77600000Y-119000000I-75000J0D01*
G01*
X76275000Y-119000000D01*
G75*
G02*
X76200000Y-118925000I0J75000D01*
G01*
G37*
G36*
G01*
X76200000Y-119425000D02*
X76200000Y-119275000D01*
G75*
G02*
X76275000Y-119200000I75000J0D01*
G01*
X77600000Y-119200000D01*
G75*
G02*
X77675000Y-119275000I0J-75000D01*
G01*
X77675000Y-119425000D01*
G75*
G02*
X77600000Y-119500000I-75000J0D01*
G01*
X76275000Y-119500000D01*
G75*
G02*
X76200000Y-119425000I0J75000D01*
G01*
G37*
G36*
G01*
X76200000Y-119925000D02*
X76200000Y-119775000D01*
G75*
G02*
X76275000Y-119700000I75000J0D01*
G01*
X77600000Y-119700000D01*
G75*
G02*
X77675000Y-119775000I0J-75000D01*
G01*
X77675000Y-119925000D01*
G75*
G02*
X77600000Y-120000000I-75000J0D01*
G01*
X76275000Y-120000000D01*
G75*
G02*
X76200000Y-119925000I0J75000D01*
G01*
G37*
G36*
G01*
X76200000Y-120425000D02*
X76200000Y-120275000D01*
G75*
G02*
X76275000Y-120200000I75000J0D01*
G01*
X77600000Y-120200000D01*
G75*
G02*
X77675000Y-120275000I0J-75000D01*
G01*
X77675000Y-120425000D01*
G75*
G02*
X77600000Y-120500000I-75000J0D01*
G01*
X76275000Y-120500000D01*
G75*
G02*
X76200000Y-120425000I0J75000D01*
G01*
G37*
G36*
G01*
X76200000Y-120925000D02*
X76200000Y-120775000D01*
G75*
G02*
X76275000Y-120700000I75000J0D01*
G01*
X77600000Y-120700000D01*
G75*
G02*
X77675000Y-120775000I0J-75000D01*
G01*
X77675000Y-120925000D01*
G75*
G02*
X77600000Y-121000000I-75000J0D01*
G01*
X76275000Y-121000000D01*
G75*
G02*
X76200000Y-120925000I0J75000D01*
G01*
G37*
G36*
G01*
X76200000Y-121425000D02*
X76200000Y-121275000D01*
G75*
G02*
X76275000Y-121200000I75000J0D01*
G01*
X77600000Y-121200000D01*
G75*
G02*
X77675000Y-121275000I0J-75000D01*
G01*
X77675000Y-121425000D01*
G75*
G02*
X77600000Y-121500000I-75000J0D01*
G01*
X76275000Y-121500000D01*
G75*
G02*
X76200000Y-121425000I0J75000D01*
G01*
G37*
G36*
G01*
X78200000Y-123425000D02*
X78200000Y-122100000D01*
G75*
G02*
X78275000Y-122025000I75000J0D01*
G01*
X78425000Y-122025000D01*
G75*
G02*
X78500000Y-122100000I0J-75000D01*
G01*
X78500000Y-123425000D01*
G75*
G02*
X78425000Y-123500000I-75000J0D01*
G01*
X78275000Y-123500000D01*
G75*
G02*
X78200000Y-123425000I0J75000D01*
G01*
G37*
G36*
G01*
X78700000Y-123425000D02*
X78700000Y-122100000D01*
G75*
G02*
X78775000Y-122025000I75000J0D01*
G01*
X78925000Y-122025000D01*
G75*
G02*
X79000000Y-122100000I0J-75000D01*
G01*
X79000000Y-123425000D01*
G75*
G02*
X78925000Y-123500000I-75000J0D01*
G01*
X78775000Y-123500000D01*
G75*
G02*
X78700000Y-123425000I0J75000D01*
G01*
G37*
G36*
G01*
X79200000Y-123425000D02*
X79200000Y-122100000D01*
G75*
G02*
X79275000Y-122025000I75000J0D01*
G01*
X79425000Y-122025000D01*
G75*
G02*
X79500000Y-122100000I0J-75000D01*
G01*
X79500000Y-123425000D01*
G75*
G02*
X79425000Y-123500000I-75000J0D01*
G01*
X79275000Y-123500000D01*
G75*
G02*
X79200000Y-123425000I0J75000D01*
G01*
G37*
G36*
G01*
X79700000Y-123425000D02*
X79700000Y-122100000D01*
G75*
G02*
X79775000Y-122025000I75000J0D01*
G01*
X79925000Y-122025000D01*
G75*
G02*
X80000000Y-122100000I0J-75000D01*
G01*
X80000000Y-123425000D01*
G75*
G02*
X79925000Y-123500000I-75000J0D01*
G01*
X79775000Y-123500000D01*
G75*
G02*
X79700000Y-123425000I0J75000D01*
G01*
G37*
G36*
G01*
X80200000Y-123425000D02*
X80200000Y-122100000D01*
G75*
G02*
X80275000Y-122025000I75000J0D01*
G01*
X80425000Y-122025000D01*
G75*
G02*
X80500000Y-122100000I0J-75000D01*
G01*
X80500000Y-123425000D01*
G75*
G02*
X80425000Y-123500000I-75000J0D01*
G01*
X80275000Y-123500000D01*
G75*
G02*
X80200000Y-123425000I0J75000D01*
G01*
G37*
G36*
G01*
X80700000Y-123425000D02*
X80700000Y-122100000D01*
G75*
G02*
X80775000Y-122025000I75000J0D01*
G01*
X80925000Y-122025000D01*
G75*
G02*
X81000000Y-122100000I0J-75000D01*
G01*
X81000000Y-123425000D01*
G75*
G02*
X80925000Y-123500000I-75000J0D01*
G01*
X80775000Y-123500000D01*
G75*
G02*
X80700000Y-123425000I0J75000D01*
G01*
G37*
G36*
G01*
X81200000Y-123425000D02*
X81200000Y-122100000D01*
G75*
G02*
X81275000Y-122025000I75000J0D01*
G01*
X81425000Y-122025000D01*
G75*
G02*
X81500000Y-122100000I0J-75000D01*
G01*
X81500000Y-123425000D01*
G75*
G02*
X81425000Y-123500000I-75000J0D01*
G01*
X81275000Y-123500000D01*
G75*
G02*
X81200000Y-123425000I0J75000D01*
G01*
G37*
G36*
G01*
X81700000Y-123425000D02*
X81700000Y-122100000D01*
G75*
G02*
X81775000Y-122025000I75000J0D01*
G01*
X81925000Y-122025000D01*
G75*
G02*
X82000000Y-122100000I0J-75000D01*
G01*
X82000000Y-123425000D01*
G75*
G02*
X81925000Y-123500000I-75000J0D01*
G01*
X81775000Y-123500000D01*
G75*
G02*
X81700000Y-123425000I0J75000D01*
G01*
G37*
G36*
G01*
X82200000Y-123425000D02*
X82200000Y-122100000D01*
G75*
G02*
X82275000Y-122025000I75000J0D01*
G01*
X82425000Y-122025000D01*
G75*
G02*
X82500000Y-122100000I0J-75000D01*
G01*
X82500000Y-123425000D01*
G75*
G02*
X82425000Y-123500000I-75000J0D01*
G01*
X82275000Y-123500000D01*
G75*
G02*
X82200000Y-123425000I0J75000D01*
G01*
G37*
G36*
G01*
X82700000Y-123425000D02*
X82700000Y-122100000D01*
G75*
G02*
X82775000Y-122025000I75000J0D01*
G01*
X82925000Y-122025000D01*
G75*
G02*
X83000000Y-122100000I0J-75000D01*
G01*
X83000000Y-123425000D01*
G75*
G02*
X82925000Y-123500000I-75000J0D01*
G01*
X82775000Y-123500000D01*
G75*
G02*
X82700000Y-123425000I0J75000D01*
G01*
G37*
G36*
G01*
X83200000Y-123425000D02*
X83200000Y-122100000D01*
G75*
G02*
X83275000Y-122025000I75000J0D01*
G01*
X83425000Y-122025000D01*
G75*
G02*
X83500000Y-122100000I0J-75000D01*
G01*
X83500000Y-123425000D01*
G75*
G02*
X83425000Y-123500000I-75000J0D01*
G01*
X83275000Y-123500000D01*
G75*
G02*
X83200000Y-123425000I0J75000D01*
G01*
G37*
G36*
G01*
X83700000Y-123425000D02*
X83700000Y-122100000D01*
G75*
G02*
X83775000Y-122025000I75000J0D01*
G01*
X83925000Y-122025000D01*
G75*
G02*
X84000000Y-122100000I0J-75000D01*
G01*
X84000000Y-123425000D01*
G75*
G02*
X83925000Y-123500000I-75000J0D01*
G01*
X83775000Y-123500000D01*
G75*
G02*
X83700000Y-123425000I0J75000D01*
G01*
G37*
G36*
G01*
X84525000Y-121425000D02*
X84525000Y-121275000D01*
G75*
G02*
X84600000Y-121200000I75000J0D01*
G01*
X85925000Y-121200000D01*
G75*
G02*
X86000000Y-121275000I0J-75000D01*
G01*
X86000000Y-121425000D01*
G75*
G02*
X85925000Y-121500000I-75000J0D01*
G01*
X84600000Y-121500000D01*
G75*
G02*
X84525000Y-121425000I0J75000D01*
G01*
G37*
G36*
G01*
X84525000Y-120925000D02*
X84525000Y-120775000D01*
G75*
G02*
X84600000Y-120700000I75000J0D01*
G01*
X85925000Y-120700000D01*
G75*
G02*
X86000000Y-120775000I0J-75000D01*
G01*
X86000000Y-120925000D01*
G75*
G02*
X85925000Y-121000000I-75000J0D01*
G01*
X84600000Y-121000000D01*
G75*
G02*
X84525000Y-120925000I0J75000D01*
G01*
G37*
G36*
G01*
X84525000Y-120425000D02*
X84525000Y-120275000D01*
G75*
G02*
X84600000Y-120200000I75000J0D01*
G01*
X85925000Y-120200000D01*
G75*
G02*
X86000000Y-120275000I0J-75000D01*
G01*
X86000000Y-120425000D01*
G75*
G02*
X85925000Y-120500000I-75000J0D01*
G01*
X84600000Y-120500000D01*
G75*
G02*
X84525000Y-120425000I0J75000D01*
G01*
G37*
G36*
G01*
X84525000Y-119925000D02*
X84525000Y-119775000D01*
G75*
G02*
X84600000Y-119700000I75000J0D01*
G01*
X85925000Y-119700000D01*
G75*
G02*
X86000000Y-119775000I0J-75000D01*
G01*
X86000000Y-119925000D01*
G75*
G02*
X85925000Y-120000000I-75000J0D01*
G01*
X84600000Y-120000000D01*
G75*
G02*
X84525000Y-119925000I0J75000D01*
G01*
G37*
G36*
G01*
X84525000Y-119425000D02*
X84525000Y-119275000D01*
G75*
G02*
X84600000Y-119200000I75000J0D01*
G01*
X85925000Y-119200000D01*
G75*
G02*
X86000000Y-119275000I0J-75000D01*
G01*
X86000000Y-119425000D01*
G75*
G02*
X85925000Y-119500000I-75000J0D01*
G01*
X84600000Y-119500000D01*
G75*
G02*
X84525000Y-119425000I0J75000D01*
G01*
G37*
G36*
G01*
X84525000Y-118925000D02*
X84525000Y-118775000D01*
G75*
G02*
X84600000Y-118700000I75000J0D01*
G01*
X85925000Y-118700000D01*
G75*
G02*
X86000000Y-118775000I0J-75000D01*
G01*
X86000000Y-118925000D01*
G75*
G02*
X85925000Y-119000000I-75000J0D01*
G01*
X84600000Y-119000000D01*
G75*
G02*
X84525000Y-118925000I0J75000D01*
G01*
G37*
G36*
G01*
X84525000Y-118425000D02*
X84525000Y-118275000D01*
G75*
G02*
X84600000Y-118200000I75000J0D01*
G01*
X85925000Y-118200000D01*
G75*
G02*
X86000000Y-118275000I0J-75000D01*
G01*
X86000000Y-118425000D01*
G75*
G02*
X85925000Y-118500000I-75000J0D01*
G01*
X84600000Y-118500000D01*
G75*
G02*
X84525000Y-118425000I0J75000D01*
G01*
G37*
G36*
G01*
X84525000Y-117925000D02*
X84525000Y-117775000D01*
G75*
G02*
X84600000Y-117700000I75000J0D01*
G01*
X85925000Y-117700000D01*
G75*
G02*
X86000000Y-117775000I0J-75000D01*
G01*
X86000000Y-117925000D01*
G75*
G02*
X85925000Y-118000000I-75000J0D01*
G01*
X84600000Y-118000000D01*
G75*
G02*
X84525000Y-117925000I0J75000D01*
G01*
G37*
G36*
G01*
X84525000Y-117425000D02*
X84525000Y-117275000D01*
G75*
G02*
X84600000Y-117200000I75000J0D01*
G01*
X85925000Y-117200000D01*
G75*
G02*
X86000000Y-117275000I0J-75000D01*
G01*
X86000000Y-117425000D01*
G75*
G02*
X85925000Y-117500000I-75000J0D01*
G01*
X84600000Y-117500000D01*
G75*
G02*
X84525000Y-117425000I0J75000D01*
G01*
G37*
G36*
G01*
X84525000Y-116925000D02*
X84525000Y-116775000D01*
G75*
G02*
X84600000Y-116700000I75000J0D01*
G01*
X85925000Y-116700000D01*
G75*
G02*
X86000000Y-116775000I0J-75000D01*
G01*
X86000000Y-116925000D01*
G75*
G02*
X85925000Y-117000000I-75000J0D01*
G01*
X84600000Y-117000000D01*
G75*
G02*
X84525000Y-116925000I0J75000D01*
G01*
G37*
G36*
G01*
X84525000Y-116425000D02*
X84525000Y-116275000D01*
G75*
G02*
X84600000Y-116200000I75000J0D01*
G01*
X85925000Y-116200000D01*
G75*
G02*
X86000000Y-116275000I0J-75000D01*
G01*
X86000000Y-116425000D01*
G75*
G02*
X85925000Y-116500000I-75000J0D01*
G01*
X84600000Y-116500000D01*
G75*
G02*
X84525000Y-116425000I0J75000D01*
G01*
G37*
G36*
G01*
X84525000Y-115925000D02*
X84525000Y-115775000D01*
G75*
G02*
X84600000Y-115700000I75000J0D01*
G01*
X85925000Y-115700000D01*
G75*
G02*
X86000000Y-115775000I0J-75000D01*
G01*
X86000000Y-115925000D01*
G75*
G02*
X85925000Y-116000000I-75000J0D01*
G01*
X84600000Y-116000000D01*
G75*
G02*
X84525000Y-115925000I0J75000D01*
G01*
G37*
G36*
G01*
X83700000Y-115100000D02*
X83700000Y-113775000D01*
G75*
G02*
X83775000Y-113700000I75000J0D01*
G01*
X83925000Y-113700000D01*
G75*
G02*
X84000000Y-113775000I0J-75000D01*
G01*
X84000000Y-115100000D01*
G75*
G02*
X83925000Y-115175000I-75000J0D01*
G01*
X83775000Y-115175000D01*
G75*
G02*
X83700000Y-115100000I0J75000D01*
G01*
G37*
G36*
G01*
X83200000Y-115100000D02*
X83200000Y-113775000D01*
G75*
G02*
X83275000Y-113700000I75000J0D01*
G01*
X83425000Y-113700000D01*
G75*
G02*
X83500000Y-113775000I0J-75000D01*
G01*
X83500000Y-115100000D01*
G75*
G02*
X83425000Y-115175000I-75000J0D01*
G01*
X83275000Y-115175000D01*
G75*
G02*
X83200000Y-115100000I0J75000D01*
G01*
G37*
G36*
G01*
X82700000Y-115100000D02*
X82700000Y-113775000D01*
G75*
G02*
X82775000Y-113700000I75000J0D01*
G01*
X82925000Y-113700000D01*
G75*
G02*
X83000000Y-113775000I0J-75000D01*
G01*
X83000000Y-115100000D01*
G75*
G02*
X82925000Y-115175000I-75000J0D01*
G01*
X82775000Y-115175000D01*
G75*
G02*
X82700000Y-115100000I0J75000D01*
G01*
G37*
G36*
G01*
X82200000Y-115100000D02*
X82200000Y-113775000D01*
G75*
G02*
X82275000Y-113700000I75000J0D01*
G01*
X82425000Y-113700000D01*
G75*
G02*
X82500000Y-113775000I0J-75000D01*
G01*
X82500000Y-115100000D01*
G75*
G02*
X82425000Y-115175000I-75000J0D01*
G01*
X82275000Y-115175000D01*
G75*
G02*
X82200000Y-115100000I0J75000D01*
G01*
G37*
G36*
G01*
X81700000Y-115100000D02*
X81700000Y-113775000D01*
G75*
G02*
X81775000Y-113700000I75000J0D01*
G01*
X81925000Y-113700000D01*
G75*
G02*
X82000000Y-113775000I0J-75000D01*
G01*
X82000000Y-115100000D01*
G75*
G02*
X81925000Y-115175000I-75000J0D01*
G01*
X81775000Y-115175000D01*
G75*
G02*
X81700000Y-115100000I0J75000D01*
G01*
G37*
G36*
G01*
X81200000Y-115100000D02*
X81200000Y-113775000D01*
G75*
G02*
X81275000Y-113700000I75000J0D01*
G01*
X81425000Y-113700000D01*
G75*
G02*
X81500000Y-113775000I0J-75000D01*
G01*
X81500000Y-115100000D01*
G75*
G02*
X81425000Y-115175000I-75000J0D01*
G01*
X81275000Y-115175000D01*
G75*
G02*
X81200000Y-115100000I0J75000D01*
G01*
G37*
G36*
G01*
X80700000Y-115100000D02*
X80700000Y-113775000D01*
G75*
G02*
X80775000Y-113700000I75000J0D01*
G01*
X80925000Y-113700000D01*
G75*
G02*
X81000000Y-113775000I0J-75000D01*
G01*
X81000000Y-115100000D01*
G75*
G02*
X80925000Y-115175000I-75000J0D01*
G01*
X80775000Y-115175000D01*
G75*
G02*
X80700000Y-115100000I0J75000D01*
G01*
G37*
G36*
G01*
X80200000Y-115100000D02*
X80200000Y-113775000D01*
G75*
G02*
X80275000Y-113700000I75000J0D01*
G01*
X80425000Y-113700000D01*
G75*
G02*
X80500000Y-113775000I0J-75000D01*
G01*
X80500000Y-115100000D01*
G75*
G02*
X80425000Y-115175000I-75000J0D01*
G01*
X80275000Y-115175000D01*
G75*
G02*
X80200000Y-115100000I0J75000D01*
G01*
G37*
G36*
G01*
X79700000Y-115100000D02*
X79700000Y-113775000D01*
G75*
G02*
X79775000Y-113700000I75000J0D01*
G01*
X79925000Y-113700000D01*
G75*
G02*
X80000000Y-113775000I0J-75000D01*
G01*
X80000000Y-115100000D01*
G75*
G02*
X79925000Y-115175000I-75000J0D01*
G01*
X79775000Y-115175000D01*
G75*
G02*
X79700000Y-115100000I0J75000D01*
G01*
G37*
G36*
G01*
X79200000Y-115100000D02*
X79200000Y-113775000D01*
G75*
G02*
X79275000Y-113700000I75000J0D01*
G01*
X79425000Y-113700000D01*
G75*
G02*
X79500000Y-113775000I0J-75000D01*
G01*
X79500000Y-115100000D01*
G75*
G02*
X79425000Y-115175000I-75000J0D01*
G01*
X79275000Y-115175000D01*
G75*
G02*
X79200000Y-115100000I0J75000D01*
G01*
G37*
G36*
G01*
X78700000Y-115100000D02*
X78700000Y-113775000D01*
G75*
G02*
X78775000Y-113700000I75000J0D01*
G01*
X78925000Y-113700000D01*
G75*
G02*
X79000000Y-113775000I0J-75000D01*
G01*
X79000000Y-115100000D01*
G75*
G02*
X78925000Y-115175000I-75000J0D01*
G01*
X78775000Y-115175000D01*
G75*
G02*
X78700000Y-115100000I0J75000D01*
G01*
G37*
G36*
G01*
X78200000Y-115100000D02*
X78200000Y-113775000D01*
G75*
G02*
X78275000Y-113700000I75000J0D01*
G01*
X78425000Y-113700000D01*
G75*
G02*
X78500000Y-113775000I0J-75000D01*
G01*
X78500000Y-115100000D01*
G75*
G02*
X78425000Y-115175000I-75000J0D01*
G01*
X78275000Y-115175000D01*
G75*
G02*
X78200000Y-115100000I0J75000D01*
G01*
G37*
%TD*%
D15*
%TO.C,U5*%
X67625000Y-95150000D03*
X68275000Y-95150000D03*
X68925000Y-95150000D03*
X69575000Y-95150000D03*
X70225000Y-95150000D03*
X70875000Y-95150000D03*
X71525000Y-95150000D03*
X72175000Y-95150000D03*
X72825000Y-95150000D03*
X73475000Y-95150000D03*
X74125000Y-95150000D03*
X74775000Y-95150000D03*
X75425000Y-95150000D03*
X76075000Y-95150000D03*
X76725000Y-95150000D03*
X77375000Y-95150000D03*
X77375000Y-87850000D03*
X76725000Y-87850000D03*
X76075000Y-87850000D03*
X75425000Y-87850000D03*
X74775000Y-87850000D03*
X74125000Y-87850000D03*
X73475000Y-87850000D03*
X72825000Y-87850000D03*
X72175000Y-87850000D03*
X71525000Y-87850000D03*
X70875000Y-87850000D03*
X70225000Y-87850000D03*
X69575000Y-87850000D03*
X68925000Y-87850000D03*
X68275000Y-87850000D03*
X67625000Y-87850000D03*
D16*
X71850000Y-91500000D03*
X73150000Y-91500000D03*
D17*
X74225000Y-91500000D03*
X70775000Y-91500000D03*
D18*
X71850000Y-92865000D03*
X73150000Y-92865000D03*
X73150000Y-90135000D03*
X71850000Y-90135000D03*
D19*
X70775000Y-90135000D03*
X74225000Y-90135000D03*
X74225000Y-92865000D03*
X70775000Y-92865000D03*
%TD*%
%TO.C,U6*%
X100775000Y-92865000D03*
X104225000Y-92865000D03*
X104225000Y-90135000D03*
X100775000Y-90135000D03*
D18*
X101850000Y-90135000D03*
X103150000Y-90135000D03*
X103150000Y-92865000D03*
X101850000Y-92865000D03*
D17*
X100775000Y-91500000D03*
X104225000Y-91500000D03*
D16*
X103150000Y-91500000D03*
X101850000Y-91500000D03*
D15*
X97625000Y-87850000D03*
X98275000Y-87850000D03*
X98925000Y-87850000D03*
X99575000Y-87850000D03*
X100225000Y-87850000D03*
X100875000Y-87850000D03*
X101525000Y-87850000D03*
X102175000Y-87850000D03*
X102825000Y-87850000D03*
X103475000Y-87850000D03*
X104125000Y-87850000D03*
X104775000Y-87850000D03*
X105425000Y-87850000D03*
X106075000Y-87850000D03*
X106725000Y-87850000D03*
X107375000Y-87850000D03*
X107375000Y-95150000D03*
X106725000Y-95150000D03*
X106075000Y-95150000D03*
X105425000Y-95150000D03*
X104775000Y-95150000D03*
X104125000Y-95150000D03*
X103475000Y-95150000D03*
X102825000Y-95150000D03*
X102175000Y-95150000D03*
X101525000Y-95150000D03*
X100875000Y-95150000D03*
X100225000Y-95150000D03*
X99575000Y-95150000D03*
X98925000Y-95150000D03*
X98275000Y-95150000D03*
X97625000Y-95150000D03*
%TD*%
D20*
%TO.C,Y1*%
X92400000Y-120600000D03*
X92400000Y-118400000D03*
X90800000Y-118400000D03*
X90800000Y-120600000D03*
%TD*%
%TO.C,C42*%
G36*
G01*
X63250000Y-99275000D02*
X63750000Y-99275000D01*
G75*
G02*
X63975000Y-99500000I0J-225000D01*
G01*
X63975000Y-99950000D01*
G75*
G02*
X63750000Y-100175000I-225000J0D01*
G01*
X63250000Y-100175000D01*
G75*
G02*
X63025000Y-99950000I0J225000D01*
G01*
X63025000Y-99500000D01*
G75*
G02*
X63250000Y-99275000I225000J0D01*
G01*
G37*
G36*
G01*
X63250000Y-100825000D02*
X63750000Y-100825000D01*
G75*
G02*
X63975000Y-101050000I0J-225000D01*
G01*
X63975000Y-101500000D01*
G75*
G02*
X63750000Y-101725000I-225000J0D01*
G01*
X63250000Y-101725000D01*
G75*
G02*
X63025000Y-101500000I0J225000D01*
G01*
X63025000Y-101050000D01*
G75*
G02*
X63250000Y-100825000I225000J0D01*
G01*
G37*
%TD*%
%TO.C,C43*%
G36*
G01*
X65250000Y-100825000D02*
X65750000Y-100825000D01*
G75*
G02*
X65975000Y-101050000I0J-225000D01*
G01*
X65975000Y-101500000D01*
G75*
G02*
X65750000Y-101725000I-225000J0D01*
G01*
X65250000Y-101725000D01*
G75*
G02*
X65025000Y-101500000I0J225000D01*
G01*
X65025000Y-101050000D01*
G75*
G02*
X65250000Y-100825000I225000J0D01*
G01*
G37*
G36*
G01*
X65250000Y-99275000D02*
X65750000Y-99275000D01*
G75*
G02*
X65975000Y-99500000I0J-225000D01*
G01*
X65975000Y-99950000D01*
G75*
G02*
X65750000Y-100175000I-225000J0D01*
G01*
X65250000Y-100175000D01*
G75*
G02*
X65025000Y-99950000I0J225000D01*
G01*
X65025000Y-99500000D01*
G75*
G02*
X65250000Y-99275000I225000J0D01*
G01*
G37*
%TD*%
%TO.C,C44*%
G36*
G01*
X77250000Y-99275000D02*
X77750000Y-99275000D01*
G75*
G02*
X77975000Y-99500000I0J-225000D01*
G01*
X77975000Y-99950000D01*
G75*
G02*
X77750000Y-100175000I-225000J0D01*
G01*
X77250000Y-100175000D01*
G75*
G02*
X77025000Y-99950000I0J225000D01*
G01*
X77025000Y-99500000D01*
G75*
G02*
X77250000Y-99275000I225000J0D01*
G01*
G37*
G36*
G01*
X77250000Y-100825000D02*
X77750000Y-100825000D01*
G75*
G02*
X77975000Y-101050000I0J-225000D01*
G01*
X77975000Y-101500000D01*
G75*
G02*
X77750000Y-101725000I-225000J0D01*
G01*
X77250000Y-101725000D01*
G75*
G02*
X77025000Y-101500000I0J225000D01*
G01*
X77025000Y-101050000D01*
G75*
G02*
X77250000Y-100825000I225000J0D01*
G01*
G37*
%TD*%
%TO.C,C45*%
G36*
G01*
X79250000Y-100825000D02*
X79750000Y-100825000D01*
G75*
G02*
X79975000Y-101050000I0J-225000D01*
G01*
X79975000Y-101500000D01*
G75*
G02*
X79750000Y-101725000I-225000J0D01*
G01*
X79250000Y-101725000D01*
G75*
G02*
X79025000Y-101500000I0J225000D01*
G01*
X79025000Y-101050000D01*
G75*
G02*
X79250000Y-100825000I225000J0D01*
G01*
G37*
G36*
G01*
X79250000Y-99275000D02*
X79750000Y-99275000D01*
G75*
G02*
X79975000Y-99500000I0J-225000D01*
G01*
X79975000Y-99950000D01*
G75*
G02*
X79750000Y-100175000I-225000J0D01*
G01*
X79250000Y-100175000D01*
G75*
G02*
X79025000Y-99950000I0J225000D01*
G01*
X79025000Y-99500000D01*
G75*
G02*
X79250000Y-99275000I225000J0D01*
G01*
G37*
%TD*%
%TO.C,C71*%
G36*
G01*
X93250000Y-99275000D02*
X93750000Y-99275000D01*
G75*
G02*
X93975000Y-99500000I0J-225000D01*
G01*
X93975000Y-99950000D01*
G75*
G02*
X93750000Y-100175000I-225000J0D01*
G01*
X93250000Y-100175000D01*
G75*
G02*
X93025000Y-99950000I0J225000D01*
G01*
X93025000Y-99500000D01*
G75*
G02*
X93250000Y-99275000I225000J0D01*
G01*
G37*
G36*
G01*
X93250000Y-100825000D02*
X93750000Y-100825000D01*
G75*
G02*
X93975000Y-101050000I0J-225000D01*
G01*
X93975000Y-101500000D01*
G75*
G02*
X93750000Y-101725000I-225000J0D01*
G01*
X93250000Y-101725000D01*
G75*
G02*
X93025000Y-101500000I0J225000D01*
G01*
X93025000Y-101050000D01*
G75*
G02*
X93250000Y-100825000I225000J0D01*
G01*
G37*
%TD*%
%TO.C,C72*%
G36*
G01*
X95250000Y-100825000D02*
X95750000Y-100825000D01*
G75*
G02*
X95975000Y-101050000I0J-225000D01*
G01*
X95975000Y-101500000D01*
G75*
G02*
X95750000Y-101725000I-225000J0D01*
G01*
X95250000Y-101725000D01*
G75*
G02*
X95025000Y-101500000I0J225000D01*
G01*
X95025000Y-101050000D01*
G75*
G02*
X95250000Y-100825000I225000J0D01*
G01*
G37*
G36*
G01*
X95250000Y-99275000D02*
X95750000Y-99275000D01*
G75*
G02*
X95975000Y-99500000I0J-225000D01*
G01*
X95975000Y-99950000D01*
G75*
G02*
X95750000Y-100175000I-225000J0D01*
G01*
X95250000Y-100175000D01*
G75*
G02*
X95025000Y-99950000I0J225000D01*
G01*
X95025000Y-99500000D01*
G75*
G02*
X95250000Y-99275000I225000J0D01*
G01*
G37*
%TD*%
%TO.C,C73*%
G36*
G01*
X107250000Y-99275000D02*
X107750000Y-99275000D01*
G75*
G02*
X107975000Y-99500000I0J-225000D01*
G01*
X107975000Y-99950000D01*
G75*
G02*
X107750000Y-100175000I-225000J0D01*
G01*
X107250000Y-100175000D01*
G75*
G02*
X107025000Y-99950000I0J225000D01*
G01*
X107025000Y-99500000D01*
G75*
G02*
X107250000Y-99275000I225000J0D01*
G01*
G37*
G36*
G01*
X107250000Y-100825000D02*
X107750000Y-100825000D01*
G75*
G02*
X107975000Y-101050000I0J-225000D01*
G01*
X107975000Y-101500000D01*
G75*
G02*
X107750000Y-101725000I-225000J0D01*
G01*
X107250000Y-101725000D01*
G75*
G02*
X107025000Y-101500000I0J225000D01*
G01*
X107025000Y-101050000D01*
G75*
G02*
X107250000Y-100825000I225000J0D01*
G01*
G37*
%TD*%
%TO.C,C74*%
G36*
G01*
X109250000Y-100825000D02*
X109750000Y-100825000D01*
G75*
G02*
X109975000Y-101050000I0J-225000D01*
G01*
X109975000Y-101500000D01*
G75*
G02*
X109750000Y-101725000I-225000J0D01*
G01*
X109250000Y-101725000D01*
G75*
G02*
X109025000Y-101500000I0J225000D01*
G01*
X109025000Y-101050000D01*
G75*
G02*
X109250000Y-100825000I225000J0D01*
G01*
G37*
G36*
G01*
X109250000Y-99275000D02*
X109750000Y-99275000D01*
G75*
G02*
X109975000Y-99500000I0J-225000D01*
G01*
X109975000Y-99950000D01*
G75*
G02*
X109750000Y-100175000I-225000J0D01*
G01*
X109250000Y-100175000D01*
G75*
G02*
X109025000Y-99950000I0J225000D01*
G01*
X109025000Y-99500000D01*
G75*
G02*
X109250000Y-99275000I225000J0D01*
G01*
G37*
%TD*%
%TO.C,R21*%
G36*
G01*
X61225000Y-99275000D02*
X61775000Y-99275000D01*
G75*
G02*
X61975000Y-99475000I0J-200000D01*
G01*
X61975000Y-99875000D01*
G75*
G02*
X61775000Y-100075000I-200000J0D01*
G01*
X61225000Y-100075000D01*
G75*
G02*
X61025000Y-99875000I0J200000D01*
G01*
X61025000Y-99475000D01*
G75*
G02*
X61225000Y-99275000I200000J0D01*
G01*
G37*
G36*
G01*
X61225000Y-100925000D02*
X61775000Y-100925000D01*
G75*
G02*
X61975000Y-101125000I0J-200000D01*
G01*
X61975000Y-101525000D01*
G75*
G02*
X61775000Y-101725000I-200000J0D01*
G01*
X61225000Y-101725000D01*
G75*
G02*
X61025000Y-101525000I0J200000D01*
G01*
X61025000Y-101125000D01*
G75*
G02*
X61225000Y-100925000I200000J0D01*
G01*
G37*
%TD*%
%TO.C,R22*%
G36*
G01*
X67225000Y-100925000D02*
X67775000Y-100925000D01*
G75*
G02*
X67975000Y-101125000I0J-200000D01*
G01*
X67975000Y-101525000D01*
G75*
G02*
X67775000Y-101725000I-200000J0D01*
G01*
X67225000Y-101725000D01*
G75*
G02*
X67025000Y-101525000I0J200000D01*
G01*
X67025000Y-101125000D01*
G75*
G02*
X67225000Y-100925000I200000J0D01*
G01*
G37*
G36*
G01*
X67225000Y-99275000D02*
X67775000Y-99275000D01*
G75*
G02*
X67975000Y-99475000I0J-200000D01*
G01*
X67975000Y-99875000D01*
G75*
G02*
X67775000Y-100075000I-200000J0D01*
G01*
X67225000Y-100075000D01*
G75*
G02*
X67025000Y-99875000I0J200000D01*
G01*
X67025000Y-99475000D01*
G75*
G02*
X67225000Y-99275000I200000J0D01*
G01*
G37*
%TD*%
%TO.C,R23*%
G36*
G01*
X75225000Y-99275000D02*
X75775000Y-99275000D01*
G75*
G02*
X75975000Y-99475000I0J-200000D01*
G01*
X75975000Y-99875000D01*
G75*
G02*
X75775000Y-100075000I-200000J0D01*
G01*
X75225000Y-100075000D01*
G75*
G02*
X75025000Y-99875000I0J200000D01*
G01*
X75025000Y-99475000D01*
G75*
G02*
X75225000Y-99275000I200000J0D01*
G01*
G37*
G36*
G01*
X75225000Y-100925000D02*
X75775000Y-100925000D01*
G75*
G02*
X75975000Y-101125000I0J-200000D01*
G01*
X75975000Y-101525000D01*
G75*
G02*
X75775000Y-101725000I-200000J0D01*
G01*
X75225000Y-101725000D01*
G75*
G02*
X75025000Y-101525000I0J200000D01*
G01*
X75025000Y-101125000D01*
G75*
G02*
X75225000Y-100925000I200000J0D01*
G01*
G37*
%TD*%
%TO.C,R24*%
G36*
G01*
X81225000Y-100925000D02*
X81775000Y-100925000D01*
G75*
G02*
X81975000Y-101125000I0J-200000D01*
G01*
X81975000Y-101525000D01*
G75*
G02*
X81775000Y-101725000I-200000J0D01*
G01*
X81225000Y-101725000D01*
G75*
G02*
X81025000Y-101525000I0J200000D01*
G01*
X81025000Y-101125000D01*
G75*
G02*
X81225000Y-100925000I200000J0D01*
G01*
G37*
G36*
G01*
X81225000Y-99275000D02*
X81775000Y-99275000D01*
G75*
G02*
X81975000Y-99475000I0J-200000D01*
G01*
X81975000Y-99875000D01*
G75*
G02*
X81775000Y-100075000I-200000J0D01*
G01*
X81225000Y-100075000D01*
G75*
G02*
X81025000Y-99875000I0J200000D01*
G01*
X81025000Y-99475000D01*
G75*
G02*
X81225000Y-99275000I200000J0D01*
G01*
G37*
%TD*%
%TO.C,R33*%
G36*
G01*
X91225000Y-99275000D02*
X91775000Y-99275000D01*
G75*
G02*
X91975000Y-99475000I0J-200000D01*
G01*
X91975000Y-99875000D01*
G75*
G02*
X91775000Y-100075000I-200000J0D01*
G01*
X91225000Y-100075000D01*
G75*
G02*
X91025000Y-99875000I0J200000D01*
G01*
X91025000Y-99475000D01*
G75*
G02*
X91225000Y-99275000I200000J0D01*
G01*
G37*
G36*
G01*
X91225000Y-100925000D02*
X91775000Y-100925000D01*
G75*
G02*
X91975000Y-101125000I0J-200000D01*
G01*
X91975000Y-101525000D01*
G75*
G02*
X91775000Y-101725000I-200000J0D01*
G01*
X91225000Y-101725000D01*
G75*
G02*
X91025000Y-101525000I0J200000D01*
G01*
X91025000Y-101125000D01*
G75*
G02*
X91225000Y-100925000I200000J0D01*
G01*
G37*
%TD*%
%TO.C,R34*%
G36*
G01*
X97225000Y-100925000D02*
X97775000Y-100925000D01*
G75*
G02*
X97975000Y-101125000I0J-200000D01*
G01*
X97975000Y-101525000D01*
G75*
G02*
X97775000Y-101725000I-200000J0D01*
G01*
X97225000Y-101725000D01*
G75*
G02*
X97025000Y-101525000I0J200000D01*
G01*
X97025000Y-101125000D01*
G75*
G02*
X97225000Y-100925000I200000J0D01*
G01*
G37*
G36*
G01*
X97225000Y-99275000D02*
X97775000Y-99275000D01*
G75*
G02*
X97975000Y-99475000I0J-200000D01*
G01*
X97975000Y-99875000D01*
G75*
G02*
X97775000Y-100075000I-200000J0D01*
G01*
X97225000Y-100075000D01*
G75*
G02*
X97025000Y-99875000I0J200000D01*
G01*
X97025000Y-99475000D01*
G75*
G02*
X97225000Y-99275000I200000J0D01*
G01*
G37*
%TD*%
%TO.C,R35*%
G36*
G01*
X105225000Y-99275000D02*
X105775000Y-99275000D01*
G75*
G02*
X105975000Y-99475000I0J-200000D01*
G01*
X105975000Y-99875000D01*
G75*
G02*
X105775000Y-100075000I-200000J0D01*
G01*
X105225000Y-100075000D01*
G75*
G02*
X105025000Y-99875000I0J200000D01*
G01*
X105025000Y-99475000D01*
G75*
G02*
X105225000Y-99275000I200000J0D01*
G01*
G37*
G36*
G01*
X105225000Y-100925000D02*
X105775000Y-100925000D01*
G75*
G02*
X105975000Y-101125000I0J-200000D01*
G01*
X105975000Y-101525000D01*
G75*
G02*
X105775000Y-101725000I-200000J0D01*
G01*
X105225000Y-101725000D01*
G75*
G02*
X105025000Y-101525000I0J200000D01*
G01*
X105025000Y-101125000D01*
G75*
G02*
X105225000Y-100925000I200000J0D01*
G01*
G37*
%TD*%
%TO.C,R36*%
G36*
G01*
X111225000Y-100925000D02*
X111775000Y-100925000D01*
G75*
G02*
X111975000Y-101125000I0J-200000D01*
G01*
X111975000Y-101525000D01*
G75*
G02*
X111775000Y-101725000I-200000J0D01*
G01*
X111225000Y-101725000D01*
G75*
G02*
X111025000Y-101525000I0J200000D01*
G01*
X111025000Y-101125000D01*
G75*
G02*
X111225000Y-100925000I200000J0D01*
G01*
G37*
G36*
G01*
X111225000Y-99275000D02*
X111775000Y-99275000D01*
G75*
G02*
X111975000Y-99475000I0J-200000D01*
G01*
X111975000Y-99875000D01*
G75*
G02*
X111775000Y-100075000I-200000J0D01*
G01*
X111225000Y-100075000D01*
G75*
G02*
X111025000Y-99875000I0J200000D01*
G01*
X111025000Y-99475000D01*
G75*
G02*
X111225000Y-99275000I200000J0D01*
G01*
G37*
%TD*%
D21*
%TO.C,Q1*%
X71500000Y-126450000D03*
X71500000Y-128350000D03*
X73500000Y-127400000D03*
%TD*%
D22*
%TO.C,D1*%
X128500000Y-84800000D03*
X128500000Y-80800000D03*
%TD*%
%TO.C,C18*%
G36*
G01*
X65150000Y-109025000D02*
X65650000Y-109025000D01*
G75*
G02*
X65875000Y-109250000I0J-225000D01*
G01*
X65875000Y-109700000D01*
G75*
G02*
X65650000Y-109925000I-225000J0D01*
G01*
X65150000Y-109925000D01*
G75*
G02*
X64925000Y-109700000I0J225000D01*
G01*
X64925000Y-109250000D01*
G75*
G02*
X65150000Y-109025000I225000J0D01*
G01*
G37*
G36*
G01*
X65150000Y-110575000D02*
X65650000Y-110575000D01*
G75*
G02*
X65875000Y-110800000I0J-225000D01*
G01*
X65875000Y-111250000D01*
G75*
G02*
X65650000Y-111475000I-225000J0D01*
G01*
X65150000Y-111475000D01*
G75*
G02*
X64925000Y-111250000I0J225000D01*
G01*
X64925000Y-110800000D01*
G75*
G02*
X65150000Y-110575000I225000J0D01*
G01*
G37*
%TD*%
%TO.C,C19*%
G36*
G01*
X65650000Y-114941666D02*
X65150000Y-114941666D01*
G75*
G02*
X64925000Y-114716666I0J225000D01*
G01*
X64925000Y-114266666D01*
G75*
G02*
X65150000Y-114041666I225000J0D01*
G01*
X65650000Y-114041666D01*
G75*
G02*
X65875000Y-114266666I0J-225000D01*
G01*
X65875000Y-114716666D01*
G75*
G02*
X65650000Y-114941666I-225000J0D01*
G01*
G37*
G36*
G01*
X65650000Y-113391666D02*
X65150000Y-113391666D01*
G75*
G02*
X64925000Y-113166666I0J225000D01*
G01*
X64925000Y-112716666D01*
G75*
G02*
X65150000Y-112491666I225000J0D01*
G01*
X65650000Y-112491666D01*
G75*
G02*
X65875000Y-112716666I0J-225000D01*
G01*
X65875000Y-113166666D01*
G75*
G02*
X65650000Y-113391666I-225000J0D01*
G01*
G37*
%TD*%
%TO.C,C23*%
G36*
G01*
X91925000Y-109350000D02*
X91925000Y-108850000D01*
G75*
G02*
X92150000Y-108625000I225000J0D01*
G01*
X92600000Y-108625000D01*
G75*
G02*
X92825000Y-108850000I0J-225000D01*
G01*
X92825000Y-109350000D01*
G75*
G02*
X92600000Y-109575000I-225000J0D01*
G01*
X92150000Y-109575000D01*
G75*
G02*
X91925000Y-109350000I0J225000D01*
G01*
G37*
G36*
G01*
X90375000Y-109350000D02*
X90375000Y-108850000D01*
G75*
G02*
X90600000Y-108625000I225000J0D01*
G01*
X91050000Y-108625000D01*
G75*
G02*
X91275000Y-108850000I0J-225000D01*
G01*
X91275000Y-109350000D01*
G75*
G02*
X91050000Y-109575000I-225000J0D01*
G01*
X90600000Y-109575000D01*
G75*
G02*
X90375000Y-109350000I0J225000D01*
G01*
G37*
%TD*%
%TO.C,C26*%
G36*
G01*
X76950000Y-111125000D02*
X76450000Y-111125000D01*
G75*
G02*
X76225000Y-110900000I0J225000D01*
G01*
X76225000Y-110450000D01*
G75*
G02*
X76450000Y-110225000I225000J0D01*
G01*
X76950000Y-110225000D01*
G75*
G02*
X77175000Y-110450000I0J-225000D01*
G01*
X77175000Y-110900000D01*
G75*
G02*
X76950000Y-111125000I-225000J0D01*
G01*
G37*
G36*
G01*
X76950000Y-109575000D02*
X76450000Y-109575000D01*
G75*
G02*
X76225000Y-109350000I0J225000D01*
G01*
X76225000Y-108900000D01*
G75*
G02*
X76450000Y-108675000I225000J0D01*
G01*
X76950000Y-108675000D01*
G75*
G02*
X77175000Y-108900000I0J-225000D01*
G01*
X77175000Y-109350000D01*
G75*
G02*
X76950000Y-109575000I-225000J0D01*
G01*
G37*
%TD*%
%TO.C,C29*%
G36*
G01*
X80850000Y-127725000D02*
X81350000Y-127725000D01*
G75*
G02*
X81575000Y-127950000I0J-225000D01*
G01*
X81575000Y-128400000D01*
G75*
G02*
X81350000Y-128625000I-225000J0D01*
G01*
X80850000Y-128625000D01*
G75*
G02*
X80625000Y-128400000I0J225000D01*
G01*
X80625000Y-127950000D01*
G75*
G02*
X80850000Y-127725000I225000J0D01*
G01*
G37*
G36*
G01*
X80850000Y-126175000D02*
X81350000Y-126175000D01*
G75*
G02*
X81575000Y-126400000I0J-225000D01*
G01*
X81575000Y-126850000D01*
G75*
G02*
X81350000Y-127075000I-225000J0D01*
G01*
X80850000Y-127075000D01*
G75*
G02*
X80625000Y-126850000I0J225000D01*
G01*
X80625000Y-126400000D01*
G75*
G02*
X80850000Y-126175000I225000J0D01*
G01*
G37*
%TD*%
%TO.C,C30*%
G36*
G01*
X74850000Y-126175000D02*
X75350000Y-126175000D01*
G75*
G02*
X75575000Y-126400000I0J-225000D01*
G01*
X75575000Y-126850000D01*
G75*
G02*
X75350000Y-127075000I-225000J0D01*
G01*
X74850000Y-127075000D01*
G75*
G02*
X74625000Y-126850000I0J225000D01*
G01*
X74625000Y-126400000D01*
G75*
G02*
X74850000Y-126175000I225000J0D01*
G01*
G37*
G36*
G01*
X74850000Y-127725000D02*
X75350000Y-127725000D01*
G75*
G02*
X75575000Y-127950000I0J-225000D01*
G01*
X75575000Y-128400000D01*
G75*
G02*
X75350000Y-128625000I-225000J0D01*
G01*
X74850000Y-128625000D01*
G75*
G02*
X74625000Y-128400000I0J225000D01*
G01*
X74625000Y-127950000D01*
G75*
G02*
X74850000Y-127725000I225000J0D01*
G01*
G37*
%TD*%
%TO.C,C35*%
G36*
G01*
X83750000Y-109575000D02*
X83250000Y-109575000D01*
G75*
G02*
X83025000Y-109350000I0J225000D01*
G01*
X83025000Y-108900000D01*
G75*
G02*
X83250000Y-108675000I225000J0D01*
G01*
X83750000Y-108675000D01*
G75*
G02*
X83975000Y-108900000I0J-225000D01*
G01*
X83975000Y-109350000D01*
G75*
G02*
X83750000Y-109575000I-225000J0D01*
G01*
G37*
G36*
G01*
X83750000Y-111125000D02*
X83250000Y-111125000D01*
G75*
G02*
X83025000Y-110900000I0J225000D01*
G01*
X83025000Y-110450000D01*
G75*
G02*
X83250000Y-110225000I225000J0D01*
G01*
X83750000Y-110225000D01*
G75*
G02*
X83975000Y-110450000I0J-225000D01*
G01*
X83975000Y-110900000D01*
G75*
G02*
X83750000Y-111125000I-225000J0D01*
G01*
G37*
%TD*%
%TO.C,R26*%
G36*
G01*
X89775000Y-101725000D02*
X89225000Y-101725000D01*
G75*
G02*
X89025000Y-101525000I0J200000D01*
G01*
X89025000Y-101125000D01*
G75*
G02*
X89225000Y-100925000I200000J0D01*
G01*
X89775000Y-100925000D01*
G75*
G02*
X89975000Y-101125000I0J-200000D01*
G01*
X89975000Y-101525000D01*
G75*
G02*
X89775000Y-101725000I-200000J0D01*
G01*
G37*
G36*
G01*
X89775000Y-100075000D02*
X89225000Y-100075000D01*
G75*
G02*
X89025000Y-99875000I0J200000D01*
G01*
X89025000Y-99475000D01*
G75*
G02*
X89225000Y-99275000I200000J0D01*
G01*
X89775000Y-99275000D01*
G75*
G02*
X89975000Y-99475000I0J-200000D01*
G01*
X89975000Y-99875000D01*
G75*
G02*
X89775000Y-100075000I-200000J0D01*
G01*
G37*
%TD*%
M02*
