M48
; DRILL file {KiCad (5.1.8)-1} date 12/09/21 09:07:19
; FORMAT={-:-/ absolute / inch / decimal}
; #@! TF.CreationDate,2021-12-09T09:07:19-03:00
; #@! TF.GenerationSoftware,Kicad,Pcbnew,(5.1.8)-1
; #@! TF.FileFunction,Plated,1,2,PTH
FMAT,2
INCH
T1C0.0118
T2C0.0197
T3C0.0276
T4C0.0315
T5C0.0354
T6C0.0374
T7C0.0394
T8C0.0551
T9C0.1260
%
G90
G05
T1
X2.0079Y-2.0866
X2.0079Y-2.2811
X2.0079Y-2.4757
X2.0079Y-2.6702
X2.0079Y-2.8648
X2.0079Y-3.0593
X2.0079Y-3.2538
X2.0079Y-3.4484
X2.0079Y-3.6429
X2.0079Y-3.8374
X2.0079Y-4.032
X2.0079Y-4.2265
X2.0079Y-4.421
X2.0079Y-4.6156
X2.0079Y-4.8101
X2.0079Y-5.0046
X2.0079Y-5.1992
X2.0079Y-5.3937
X2.0866Y-2.0079
X2.0866Y-5.4724
X2.1142Y-2.5591
X2.1142Y-2.782
X2.1142Y-3.0049
X2.1142Y-3.2279
X2.1142Y-3.4508
X2.1142Y-3.6737
X2.1142Y-3.8967
X2.1142Y-4.1196
X2.1142Y-4.3425
X2.1929Y-3.6496
X2.1929Y-3.7283
X2.1929Y-3.8071
X2.2047Y-3.4882
X2.2441Y-2.2441
X2.2598Y-3.0472
X2.2717Y-3.6496
X2.2717Y-3.7283
X2.2717Y-3.8071
X2.2835Y-2.0079
X2.2835Y-2.4016
X2.2913Y-4.7677
X2.2913Y-4.8819
X2.2913Y-5.4724
X2.3425Y-4.3504
X2.3425Y-4.4724
X2.3504Y-3.5709
X2.3504Y-3.6496
X2.3504Y-3.7283
X2.3504Y-3.8071
X2.3622Y-2.8386
X2.3819Y-3.9567
X2.4094Y-4.9685
X2.4252Y-2.8386
X2.4291Y-3.5709
X2.4291Y-3.6496
X2.4291Y-3.7283
X2.4291Y-3.8071
X2.437Y-4.1142
X2.4409Y-2.2441
X2.4409Y-2.4409
X2.4409Y-3.185
X2.4409Y-3.2717
X2.4567Y-4.4094
X2.4606Y-2.626
X2.4606Y-3.8976
X2.4685Y-4.9134
X2.4803Y-2.0079
X2.4862Y-4.4094
X2.4882Y-2.8386
X2.4961Y-5.4724
X2.5Y-4.0197
X2.5Y-4.7559
X2.5079Y-3.5709
X2.5079Y-3.6496
X2.5079Y-3.7283
X2.5079Y-3.8071
X2.5157Y-4.4094
X2.5157Y-4.9764
X2.5236Y-5.0827
X2.5512Y-2.8386
X2.5591Y-4.9173
X2.563Y-4.0669
X2.563Y-4.1772
X2.5787Y-4.0197
X2.5866Y-3.5709
X2.5866Y-3.6496
X2.5866Y-3.7283
X2.5866Y-3.8071
X2.6024Y-3.0512
X2.6063Y-5.0709
X2.6142Y-3.2756
X2.6181Y-4.9173
X2.626Y-4.3543
X2.6378Y-3.3937
X2.6378Y-5.1969
X2.6457Y-4.5157
X2.6457Y-4.9764
X2.6496Y-3.8071
X2.6772Y-2.0079
X2.6929Y-3.2087
X2.7008Y-5.4724
X2.7087Y-5.1969
X2.7087Y-5.252
X2.7165Y-2.4016
X2.7165Y-4.4331
X2.7362Y-4.0197
X2.7598Y-4.9173
X2.7598Y-4.9764
X2.7717Y-3.8583
X2.7717Y-4.622
X2.7717Y-4.7244
X2.7835Y-4.5433
X2.7835Y-5.374
X2.815Y-5.0157
X2.815Y-5.0945
X2.8189Y-4.1142
X2.8189Y-4.1772
X2.8425Y-3.2874
X2.8504Y-3.8898
X2.8661Y-2.4488
X2.8701Y-4.8543
X2.8858Y-5.1969
X2.8858Y-5.252
X2.8937Y-4.0197
X2.8937Y-4.4331
X2.8937Y-4.9724
X2.8976Y-4.6024
X2.9055Y-5.4724
X2.9134Y-2.0079
X2.9134Y-4.7323
X2.9291Y-3.8898
X2.9409Y-3.0512
X2.9409Y-4.9173
X2.9567Y-5.0787
X2.9606Y-4.2638
X2.9698Y-5.374
X2.9803Y-4.685
X2.9803Y-4.7795
X2.9843Y-4.5512
X2.9921Y-4.9488
X3.0157Y-3.1693
X3.0157Y-5.0787
X3.0197Y-4.2638
X3.0276Y-2.8386
X3.0394Y-3.3976
X3.0433Y-4.8543
X3.0472Y-4.9488
X3.0512Y-4.0197
X3.0512Y-4.5039
X3.063Y-5.1969
X3.0669Y-3.2835
X3.0787Y-4.2638
X3.0866Y-4.7126
X3.0906Y-2.8386
X3.0906Y-3.8071
X3.1102Y-2.0079
X3.1102Y-2.3583
X3.1102Y-3.5709
X3.1102Y-3.6496
X3.1102Y-3.7283
X3.1102Y-5.4724
X3.1142Y-4.0669
X3.1142Y-4.5551
X3.1142Y-4.6063
X3.122Y-2.5984
X3.1299Y-4.0197
X3.1339Y-4.7835
X3.1339Y-5.0787
X3.1535Y-2.8386
X3.1535Y-3.1142
X3.1535Y-3.2047
X3.1562Y-5.374
X3.1614Y-3.3858
X3.1614Y-3.4134
X3.1614Y-4.685
X3.1693Y-3.8937
X3.189Y-3.3858
X3.189Y-3.4134
X3.189Y-3.5709
X3.189Y-3.6496
X3.189Y-3.7283
X3.189Y-4.9252
X3.1929Y-5.0787
X3.2008Y-4.5551
X3.2126Y-4.7362
X3.2165Y-2.8386
X3.2165Y-3.3858
X3.2165Y-3.4134
X3.2283Y-4.2638
X3.2402Y-5.1969
X3.2441Y-3.3858
X3.2441Y-3.4134
X3.2677Y-3.5709
X3.2677Y-3.6496
X3.2677Y-3.7283
X3.2835Y-3.0512
X3.2835Y-3.8701
X3.2874Y-3.4291
X3.2874Y-4.0197
X3.2874Y-4.1772
X3.2874Y-4.2638
X3.2874Y-4.4528
X3.2874Y-4.7441
X3.2913Y-4.5591
X3.2913Y-4.6575
X3.3071Y-2.0079
X3.3071Y-2.3583
X3.315Y-4.4528
X3.315Y-5.4724
X3.3346Y-3.9528
X3.3425Y-5.374
X3.3465Y-4.2638
X3.3465Y-5.0787
X3.3504Y-3.7283
X3.3583Y-4.0315
X3.3583Y-4.7992
X3.3583Y-5.1614
X3.3858Y-3.1457
X3.3858Y-3.2362
X3.3858Y-3.3307
X3.3858Y-3.4291
X3.3858Y-4.4567
X3.3937Y-3.8583
X3.4055Y-4.2638
X3.4055Y-4.6142
X3.4055Y-5.0591
X3.4055Y-5.374
X3.4173Y-3.7677
X3.4173Y-5.1969
X3.4213Y-4.685
X3.4449Y-3.8701
X3.4449Y-4.0197
X3.4528Y-2.8307
X3.4528Y-4.0906
X3.4528Y-4.1772
X3.4567Y-5.0433
X3.4646Y-4.2638
X3.4724Y-4.5276
X3.4759Y-4.0349
X3.4803Y-5.021
X3.4961Y-4.0591
X3.5Y-3.8031
X3.5039Y-3.1457
X3.5039Y-3.2402
X3.5039Y-3.3346
X3.5039Y-3.4291
X3.5046Y-5.0411
X3.5197Y-5.4724
X3.5302Y-5.0229
X3.5315Y-3.7323
X3.5315Y-4.4724
X3.5335Y-4.2854
X3.5354Y-4.0315
X3.5354Y-4.3858
X3.5433Y-2.0079
X3.5433Y-4.0906
X3.5433Y-4.1772
X3.5433Y-4.8189
X3.5662Y-4.0249
X3.5709Y-2.3583
X3.5748Y-5.0591
X3.5748Y-5.1969
X3.5748Y-5.2677
X3.5758Y-4.2549
X3.5827Y-3.5709
X3.5827Y-3.7323
X3.6024Y-3.4291
X3.6155Y-5.374
X3.626Y-3.0512
X3.6457Y-3.3858
X3.6457Y-3.4134
X3.6614Y-3.5709
X3.6614Y-3.6496
X3.6614Y-3.7283
X3.6614Y-3.8071
X3.6693Y-4.2953
X3.6693Y-4.4724
X3.6693Y-4.5906
X3.6732Y-3.3858
X3.6732Y-3.4134
X3.6811Y-4.0197
X3.6929Y-2.8386
X3.7008Y-3.3858
X3.7008Y-3.4134
X3.7008Y-4.685
X3.7244Y-5.4724
X3.7283Y-3.3858
X3.7283Y-3.4134
X3.7402Y-3.1142
X3.7402Y-3.2047
X3.7402Y-3.5709
X3.7402Y-3.6496
X3.7402Y-3.7283
X3.7402Y-3.8071
X3.7402Y-5.0591
X3.7402Y-5.1969
X3.7402Y-5.2677
X3.7441Y-4.0669
X3.7441Y-4.1772
X3.748Y-3.315
X3.752Y-4.2953
X3.7559Y-2.8386
X3.7598Y-4.0197
X3.7874Y-2.6181
X3.7992Y-2.0079
X3.7992Y-2.3543
X3.8031Y-4.4094
X3.8031Y-4.4764
X3.8189Y-2.8386
X3.8228Y-3.3937
X3.8255Y-5.374
X3.8384Y-4.2719
X3.8622Y-4.7244
X3.8622Y-4.874
X3.8661Y-5.0669
X3.8819Y-2.8386
X3.8858Y-3.1811
X3.8884Y-4.273
X3.9055Y-5.1969
X3.9173Y-4.0197
X3.9173Y-4.1142
X3.9173Y-4.1772
X3.9291Y-5.4724
X3.9384Y-4.273
X3.9409Y-3.8701
X3.9488Y-4.7244
X3.9488Y-4.874
X3.9685Y-3.0512
X3.9685Y-5.0669
X3.9884Y-4.2719
X3.9961Y-2.0079
X3.9961Y-2.3543
X4.0236Y-3.2835
X4.0354Y-5.374
X4.063Y-4.4449
X4.0709Y-5.1969
X4.0709Y-5.252
X4.0748Y-4.0197
X4.1024Y-4.1142
X4.1024Y-4.1772
X4.1024Y-5.374
X4.1142Y-3.8858
X4.1142Y-4.5118
X4.1142Y-4.5748
X4.1339Y-5.4724
X4.1811Y-3.2165
X4.1929Y-2.0079
X4.1929Y-2.2835
X4.2126Y-4.4567
X4.2126Y-4.5236
X4.2283Y-3.3976
X4.2283Y-3.8386
X4.2323Y-4.0197
X4.2362Y-5.1969
X4.2362Y-5.252
X4.252Y-3.2795
X4.252Y-5.374
X4.2598Y-4.8583
X4.2598Y-4.8858
X4.2598Y-4.9134
X4.2874Y-4.8583
X4.2874Y-4.8858
X4.2874Y-4.9134
X4.2953Y-4.0669
X4.3071Y-3.0512
X4.3071Y-4.6693
X4.3071Y-4.7913
X4.311Y-3.5709
X4.311Y-3.6496
X4.311Y-3.7283
X4.311Y-3.8071
X4.311Y-4.0197
X4.315Y-4.4567
X4.315Y-4.5197
X4.315Y-4.9409
X4.315Y-4.9685
X4.3386Y-5.4724
X4.3425Y-4.9409
X4.3425Y-4.9685
X4.3504Y-3.8976
X4.3583Y-2.8386
X4.3701Y-2.3622
X4.3701Y-4.3858
X4.3701Y-4.9409
X4.3701Y-4.9685
X4.3858Y-3.3937
X4.3898Y-2.0079
X4.3898Y-3.5709
X4.3898Y-3.6496
X4.3898Y-3.7283
X4.3898Y-3.8071
X4.4016Y-5.0
X4.4016Y-5.0984
X4.4016Y-5.1969
X4.4016Y-5.2559
X4.4016Y-5.374
X4.4213Y-2.8386
X4.4291Y-2.6142
X4.4291Y-3.9252
X4.4291Y-4.3858
X4.4606Y-5.0
X4.4606Y-5.0984
X4.4606Y-5.1969
X4.4606Y-5.2559
X4.4606Y-5.374
X4.4685Y-3.5709
X4.4685Y-3.6496
X4.4685Y-3.7283
X4.4685Y-3.8071
X4.4685Y-4.0197
X4.4764Y-3.185
X4.4764Y-3.2717
X4.4843Y-2.8386
X4.4882Y-4.3858
X4.5433Y-5.4724
X4.5472Y-2.8386
X4.5472Y-3.5709
X4.5472Y-3.6496
X4.5472Y-3.7283
X4.5472Y-3.8071
X4.5472Y-3.8858
X4.5472Y-3.9646
X4.563Y-4.4882
X4.563Y-4.5748
X4.563Y-4.6732
X4.563Y-4.7953
X4.5669Y-2.0079
X4.5866Y-5.1969
X4.622Y-3.3937
X4.626Y-3.7283
X4.626Y-3.8071
X4.626Y-3.8858
X4.626Y-3.9646
X4.6496Y-3.0512
X4.6575Y-4.4528
X4.6614Y-3.2126
X4.7047Y-3.5709
X4.7047Y-3.6496
X4.7047Y-3.7283
X4.7047Y-3.8071
X4.7047Y-3.8858
X4.7047Y-3.9646
X4.7126Y-5.374
X4.7244Y-4.7087
X4.7244Y-4.7953
X4.748Y-5.4724
X4.752Y-4.5591
X4.7638Y-2.0079
X4.7717Y-4.437
X4.7717Y-4.4646
X4.7835Y-3.5709
X4.7835Y-3.6496
X4.7835Y-3.7283
X4.7835Y-3.8071
X4.7835Y-3.8858
X4.7835Y-3.9646
X4.811Y-4.437
X4.811Y-4.4646
X4.8386Y-2.9134
X4.8386Y-3.0735
X4.8386Y-3.2336
X4.8386Y-3.3937
X4.8386Y-4.7087
X4.8386Y-4.7992
X4.8425Y-4.5669
X4.8504Y-4.437
X4.8504Y-4.4646
X4.8583Y-4.8898
X4.8583Y-5.0
X4.8823Y-2.5331
X4.9134Y-4.5512
X4.9134Y-4.5787
X4.9224Y-2.6929
X4.9291Y-4.7874
X4.9488Y-4.0669
X4.9488Y-4.3819
X4.9528Y-5.4724
X4.9567Y-4.7874
X4.9606Y-2.0079
X4.9646Y-3.4252
X4.9646Y-3.5696
X4.9646Y-3.7336
X4.9646Y-3.8976
X4.9646Y-4.5984
X4.9776Y-3.2094
X4.9843Y-4.7874
X4.9846Y-3.0835
X5.0118Y-4.6929
X5.0118Y-4.7874
X5.0394Y-4.6929
X5.0748Y-4.0669
X5.0748Y-4.3819
X5.0787Y-4.8031
X5.0787Y-4.9764
X5.0866Y-4.5276
X5.0866Y-4.6063
X5.1575Y-2.0079
X5.1575Y-5.4724
X5.2362Y-2.0866
X5.2362Y-2.2811
X5.2362Y-2.4757
X5.2362Y-2.6702
X5.2362Y-2.8648
X5.2362Y-3.0593
X5.2362Y-3.2538
X5.2362Y-3.4484
X5.2362Y-3.6429
X5.2362Y-3.8374
X5.2362Y-4.032
X5.2362Y-4.2265
X5.2362Y-4.421
X5.2362Y-4.6156
X5.2362Y-4.8101
X5.2362Y-5.0046
X5.2362Y-5.1992
X5.2362Y-5.3937
X2.6496Y-3.5138
X2.6496Y-3.5728
X2.6496Y-3.6319
X2.6496Y-3.6909
X2.7008Y-3.5138
X2.7008Y-3.5728
X2.7008Y-3.6319
X2.7008Y-3.6909
X2.752Y-3.5138
X2.752Y-3.5728
X2.752Y-3.6319
X2.752Y-3.6909
X2.8031Y-3.5138
X2.8031Y-3.5728
X2.8031Y-3.6319
X2.8031Y-3.6909
X2.8543Y-3.5138
X2.8543Y-3.5728
X2.8543Y-3.6319
X2.8543Y-3.6909
X2.9055Y-3.5138
X2.9055Y-3.5728
X2.9055Y-3.6319
X2.9055Y-3.6909
X2.9567Y-3.5138
X2.9567Y-3.5728
X2.9567Y-3.6319
X2.9567Y-3.6909
X3.0079Y-3.5138
X3.0079Y-3.5728
X3.0079Y-3.6319
X3.0079Y-3.6909
X3.0591Y-3.5138
X3.0591Y-3.5728
X3.0591Y-3.6319
X3.0591Y-3.6909
X3.8307Y-3.5138
X3.8307Y-3.5728
X3.8307Y-3.6319
X3.8307Y-3.6909
X3.8819Y-3.5138
X3.8819Y-3.5728
X3.8819Y-3.6319
X3.8819Y-3.6909
X3.9331Y-3.5138
X3.9331Y-3.5728
X3.9331Y-3.6319
X3.9331Y-3.6909
X3.9843Y-3.5138
X3.9843Y-3.5728
X3.9843Y-3.6319
X3.9843Y-3.6909
X4.0354Y-3.5138
X4.0354Y-3.5728
X4.0354Y-3.6319
X4.0354Y-3.6909
X4.0866Y-3.5138
X4.0866Y-3.5728
X4.0866Y-3.6319
X4.0866Y-3.6909
X4.1378Y-3.5138
X4.1378Y-3.5728
X4.1378Y-3.6319
X4.1378Y-3.6909
X4.189Y-3.5138
X4.189Y-3.5728
X4.189Y-3.6319
X4.189Y-3.6909
X4.2402Y-3.5138
X4.2402Y-3.5728
X4.2402Y-3.6319
X4.2402Y-3.6909
T2
X3.3504Y-3.6024
X3.3781Y-3.5355
X3.3781Y-3.6692
X3.4449Y-3.5079
X3.4449Y-3.6969
X3.5117Y-3.5355
X3.5117Y-3.6692
X3.5394Y-3.6024
X2.748Y-4.1457
X4.2638Y-4.4894
X3.0906Y-4.1378
X3.9961Y-4.1457
X4.8583Y-4.9449
X3.3465Y-4.1024
T3
X3.2949Y-3.3268
X3.5949Y-3.3268
T4
X4.0197Y-2.6378
X4.0197Y-2.8346
X4.6239Y-3.4508
X4.6239Y-3.5886
X3.5551Y-2.6378
X3.5551Y-2.8346
X2.2659Y-3.4508
X2.2659Y-3.5886
X4.2205Y-2.6378
X4.2205Y-2.8346
X2.689Y-2.6378
X2.689Y-2.8346
X2.2244Y-2.6378
X2.2244Y-2.8346
X4.873Y-4.2244
X5.0108Y-4.2244
X2.8898Y-2.6378
X2.8898Y-2.8346
X3.3543Y-2.6378
X3.3543Y-2.8346
X4.685Y-2.6378
X4.685Y-2.8346
T5
X2.1969Y-4.8002
X2.1969Y-4.9002
X2.3858Y-4.8002
X2.3858Y-4.9002
T6
X2.4803Y-5.315
X2.5787Y-5.315
X2.6772Y-5.315
X4.5669Y-5.315
X4.6654Y-5.315
X4.7638Y-5.315
X3.8714Y-5.315
X3.9698Y-5.315
X4.0682Y-5.315
X2.2165Y-4.311
X2.2165Y-4.4094
X2.2165Y-4.5079
X3.1759Y-5.315
X3.2743Y-5.315
X3.3727Y-5.315
X5.0Y-2.6969
X5.0Y-2.7953
X5.0Y-2.8937
X5.0Y-2.9921
T7
X4.0181Y-4.752
X4.1181Y-4.752
X3.8181Y-5.0157
X3.9181Y-5.0157
X4.0181Y-5.0157
X4.1181Y-5.0157
T8
X2.815Y-2.0787
X2.815Y-2.2756
X3.0118Y-2.0787
X3.0118Y-2.2756
X3.2087Y-2.0787
X3.2087Y-2.2756
X3.4055Y-2.0787
X3.4055Y-2.2756
X3.7008Y-2.0787
X3.7008Y-2.2756
X3.8976Y-2.0787
X3.8976Y-2.2756
X4.0945Y-2.0787
X4.0945Y-2.2756
X4.2913Y-2.0787
X4.2913Y-2.2756
T9
X3.4449Y-3.6024
T2
G00X2.3457Y-2.1063
M15
G01X2.3457Y-2.0748
M16
G05
G00X2.3457Y-2.3701
M15
G01X2.3457Y-2.3386
M16
G05
G00X2.5276Y-2.437
M15
G01X2.5276Y-2.4055
M16
G05
G00X2.5362Y-2.0709
M15
G01X2.5362Y-2.0394
M16
G05
G00X2.5362Y-2.2126
M15
G01X2.5362Y-2.1811
M16
G05
T7
G00X4.5591Y-2.2953
M15
G01X4.5591Y-2.374
M16
G05
G00X4.7835Y-2.2165
M15
G01X4.7047Y-2.2165
M16
G05
G00X4.7933Y-2.4528
M15
G01X4.6949Y-2.4528
M16
G05
T0
M30
